<mxfile host="Electron" agent="Mozilla/5.0 (Macintosh; Intel Mac OS X 10_15_7) AppleWebKit/537.36 (KHTML, like Gecko) draw.io/28.0.4 Chrome/138.0.7204.97 Electron/37.2.1 Safari/537.36" version="28.0.4" pages="17">
  <diagram id="D-fT32pPSd6CnJNmmywp" name="Overview">
    <mxGraphModel dx="1812" dy="1056" grid="1" gridSize="10" guides="1" tooltips="1" connect="1" arrows="1" fold="1" page="1" pageScale="1" pageWidth="827" pageHeight="1169" math="0" shadow="0">
      <root>
        <mxCell id="0" />
        <mxCell id="1" parent="0" />
        <mxCell id="YhuTHeu8PJgn1JcNQfF2-1" value="" style="rounded=0;whiteSpace=wrap;html=1;align=left;fillColor=#f5f5f5;strokeColor=#666666;gradientColor=#b3b3b3;" parent="1" vertex="1">
          <mxGeometry x="13" y="26" width="60" height="20" as="geometry" />
        </mxCell>
        <mxCell id="YhuTHeu8PJgn1JcNQfF2-2" value="Area 7 - Lineage" style="rounded=0;whiteSpace=wrap;html=1;align=left;verticalAlign=top;" parent="1" vertex="1">
          <mxGeometry x="13" y="46" width="1060" height="770" as="geometry" />
        </mxCell>
        <mxCell id="YhuTHeu8PJgn1JcNQfF2-3" value="" style="rounded=0;whiteSpace=wrap;html=1;align=left;fillColor=#f5f5f5;strokeColor=#666666;gradientColor=#b3b3b3;" parent="1" vertex="1">
          <mxGeometry x="62" y="85" width="40" height="13" as="geometry" />
        </mxCell>
        <mxCell id="YhuTHeu8PJgn1JcNQfF2-4" value="0710&lt;br&gt;Digital Products" style="rounded=0;whiteSpace=wrap;html=1;align=left;verticalAlign=top;" parent="1" vertex="1">
          <mxGeometry x="62" y="98" width="140" height="80" as="geometry" />
        </mxCell>
        <mxCell id="YhuTHeu8PJgn1JcNQfF2-5" value="" style="rounded=0;whiteSpace=wrap;html=1;align=left;fillColor=#f5f5f5;strokeColor=#666666;gradientColor=#b3b3b3;" parent="1" vertex="1">
          <mxGeometry x="221" y="85" width="40" height="13" as="geometry" />
        </mxCell>
        <mxCell id="YhuTHeu8PJgn1JcNQfF2-6" value="0711&lt;br&gt;Digital Subscriptions" style="rounded=0;whiteSpace=wrap;html=1;align=left;verticalAlign=top;" parent="1" vertex="1">
          <mxGeometry x="221" y="98" width="140" height="80" as="geometry" />
        </mxCell>
        <mxCell id="YhuTHeu8PJgn1JcNQfF2-7" value="" style="rounded=0;whiteSpace=wrap;html=1;align=left;fillColor=#f5f5f5;strokeColor=#666666;gradientColor=#b3b3b3;" parent="1" vertex="1">
          <mxGeometry x="382" y="340" width="40" height="13" as="geometry" />
        </mxCell>
        <mxCell id="YhuTHeu8PJgn1JcNQfF2-8" value="0737&lt;br&gt;Solution Implementation" style="rounded=0;whiteSpace=wrap;html=1;align=left;verticalAlign=top;" parent="1" vertex="1">
          <mxGeometry x="382" y="353" width="140" height="80" as="geometry" />
        </mxCell>
        <mxCell id="YhuTHeu8PJgn1JcNQfF2-13" value="" style="rounded=0;whiteSpace=wrap;html=1;align=left;fillColor=#f5f5f5;strokeColor=#666666;gradientColor=#b3b3b3;" parent="1" vertex="1">
          <mxGeometry x="62" y="340" width="40" height="13" as="geometry" />
        </mxCell>
        <mxCell id="YhuTHeu8PJgn1JcNQfF2-14" value="0730&lt;br&gt;Solution Components" style="rounded=0;whiteSpace=wrap;html=1;align=left;verticalAlign=top;" parent="1" vertex="1">
          <mxGeometry x="62" y="353" width="140" height="80" as="geometry" />
        </mxCell>
        <mxCell id="YhuTHeu8PJgn1JcNQfF2-15" value="" style="rounded=0;whiteSpace=wrap;html=1;align=left;fillColor=#f5f5f5;strokeColor=#666666;gradientColor=#b3b3b3;" parent="1" vertex="1">
          <mxGeometry x="221" y="340" width="40" height="13" as="geometry" />
        </mxCell>
        <mxCell id="YhuTHeu8PJgn1JcNQfF2-16" value="0740&lt;br&gt;Solution Blueprints" style="rounded=0;whiteSpace=wrap;html=1;align=left;verticalAlign=top;" parent="1" vertex="1">
          <mxGeometry x="540" y="353" width="140" height="80" as="geometry" />
        </mxCell>
        <mxCell id="YhuTHeu8PJgn1JcNQfF2-25" value="" style="rounded=0;whiteSpace=wrap;html=1;align=left;fillColor=#f5f5f5;strokeColor=#666666;gradientColor=#b3b3b3;" parent="1" vertex="1">
          <mxGeometry x="62" y="470" width="40" height="13" as="geometry" />
        </mxCell>
        <mxCell id="YhuTHeu8PJgn1JcNQfF2-26" value="0750&lt;br&gt;Data Passing" style="rounded=0;whiteSpace=wrap;html=1;align=left;verticalAlign=top;" parent="1" vertex="1">
          <mxGeometry x="62" y="483" width="140" height="80" as="geometry" />
        </mxCell>
        <mxCell id="YhuTHeu8PJgn1JcNQfF2-31" value="" style="rounded=0;whiteSpace=wrap;html=1;align=left;fillColor=#f5f5f5;strokeColor=#666666;gradientColor=#b3b3b3;" parent="1" vertex="1">
          <mxGeometry x="540" y="340" width="40" height="13" as="geometry" />
        </mxCell>
        <mxCell id="YhuTHeu8PJgn1JcNQfF2-32" value="0735&lt;br&gt;Solution Ports and Wires" style="rounded=0;whiteSpace=wrap;html=1;align=left;verticalAlign=top;" parent="1" vertex="1">
          <mxGeometry x="221" y="353" width="140" height="80" as="geometry" />
        </mxCell>
        <mxCell id="YhuTHeu8PJgn1JcNQfF2-35" value="" style="rounded=0;whiteSpace=wrap;html=1;align=left;fillColor=#f5f5f5;strokeColor=#666666;gradientColor=#b3b3b3;" parent="1" vertex="1">
          <mxGeometry x="62" y="210" width="40" height="13" as="geometry" />
        </mxCell>
        <mxCell id="YhuTHeu8PJgn1JcNQfF2-36" value="0720&lt;br&gt;Information Supply Chains" style="rounded=0;whiteSpace=wrap;html=1;align=left;verticalAlign=top;" parent="1" vertex="1">
          <mxGeometry x="62" y="223" width="140" height="80" as="geometry" />
        </mxCell>
        <mxCell id="jZowSqK3XqBFE5ncK902-1" value="" style="rounded=0;whiteSpace=wrap;html=1;align=left;fillColor=#f5f5f5;strokeColor=#666666;gradientColor=#b3b3b3;" parent="1" vertex="1">
          <mxGeometry x="382" y="470" width="40" height="13" as="geometry" />
        </mxCell>
        <mxCell id="jZowSqK3XqBFE5ncK902-2" value="0760&lt;br&gt;Business Lineage" style="rounded=0;whiteSpace=wrap;html=1;align=left;verticalAlign=top;" parent="1" vertex="1">
          <mxGeometry x="382" y="483" width="140" height="80" as="geometry" />
        </mxCell>
        <mxCell id="dP81T5wVCNS5uh4FwSb8-1" value="" style="rounded=0;whiteSpace=wrap;html=1;align=left;fillColor=#f5f5f5;strokeColor=#666666;gradientColor=#b3b3b3;" parent="1" vertex="1">
          <mxGeometry x="543" y="470" width="40" height="13" as="geometry" />
        </mxCell>
        <mxCell id="dP81T5wVCNS5uh4FwSb8-2" value="0770&lt;br&gt;Lineage Mapping" style="rounded=0;whiteSpace=wrap;html=1;align=left;verticalAlign=top;" parent="1" vertex="1">
          <mxGeometry x="543" y="483" width="140" height="80" as="geometry" />
        </mxCell>
        <mxCell id="L47BYAXVUDp9Z39xeeTo-1" value="" style="rounded=0;whiteSpace=wrap;html=1;align=left;fillColor=#f5f5f5;strokeColor=#666666;gradientColor=#b3b3b3;" parent="1" vertex="1">
          <mxGeometry x="62" y="585" width="40" height="13" as="geometry" />
        </mxCell>
        <mxCell id="L47BYAXVUDp9Z39xeeTo-2" value="0780&lt;br&gt;Code Analysis" style="rounded=0;whiteSpace=wrap;html=1;align=left;verticalAlign=top;" parent="1" vertex="1">
          <mxGeometry x="62" y="598" width="140" height="80" as="geometry" />
        </mxCell>
        <mxCell id="nvGscb_FVJ_ubLQqms8T-1" value="" style="rounded=0;whiteSpace=wrap;html=1;align=left;fillColor=#f5f5f5;strokeColor=#666666;gradientColor=#b3b3b3;" parent="1" vertex="1">
          <mxGeometry x="62" y="700" width="40" height="13" as="geometry" />
        </mxCell>
        <mxCell id="nvGscb_FVJ_ubLQqms8T-2" value="0790&lt;br&gt;Incomplete" style="rounded=0;whiteSpace=wrap;html=1;align=left;verticalAlign=top;" parent="1" vertex="1">
          <mxGeometry x="62" y="713" width="140" height="80" as="geometry" />
        </mxCell>
        <mxCell id="C-oL4ZhQmUAXVh_6iqAg-1" value="" style="rounded=0;whiteSpace=wrap;html=1;align=left;fillColor=#f5f5f5;strokeColor=#666666;gradientColor=#b3b3b3;" parent="1" vertex="1">
          <mxGeometry x="382" y="85" width="40" height="13" as="geometry" />
        </mxCell>
        <mxCell id="C-oL4ZhQmUAXVh_6iqAg-2" value="0715&lt;br&gt;Digital Product&lt;br&gt;Management" style="rounded=0;whiteSpace=wrap;html=1;align=left;verticalAlign=top;" parent="1" vertex="1">
          <mxGeometry x="382" y="98" width="140" height="80" as="geometry" />
        </mxCell>
        <mxCell id="e3jd2shy9_xAMZg41kmC-1" value="" style="rounded=0;whiteSpace=wrap;html=1;align=left;fillColor=#f5f5f5;strokeColor=#666666;gradientColor=#b3b3b3;" parent="1" vertex="1">
          <mxGeometry x="222" y="470" width="40" height="13" as="geometry" />
        </mxCell>
        <mxCell id="e3jd2shy9_xAMZg41kmC-2" value="0755&lt;br&gt;Ultimate Source and Destination" style="rounded=0;whiteSpace=wrap;html=1;align=left;verticalAlign=top;" parent="1" vertex="1">
          <mxGeometry x="222" y="483" width="140" height="80" as="geometry" />
        </mxCell>
      </root>
    </mxGraphModel>
  </diagram>
  <diagram id="7fsQgAaYE9sfHcw1XIoF" name="0710-Digital-Products">
    <mxGraphModel dx="1234" dy="838" grid="1" gridSize="10" guides="1" tooltips="1" connect="1" arrows="1" fold="1" page="1" pageScale="1" pageWidth="827" pageHeight="1169" math="0" shadow="0">
      <root>
        <mxCell id="gJXXQZJIZcjf3K1snlwj-0" />
        <mxCell id="gJXXQZJIZcjf3K1snlwj-1" parent="gJXXQZJIZcjf3K1snlwj-0" />
        <mxCell id="RpYh0YSagH3gKZOlWNxV-0" value="" style="rounded=0;whiteSpace=wrap;html=1;align=left;fillColor=#f5f5f5;strokeColor=#666666;gradientColor=#b3b3b3;" parent="gJXXQZJIZcjf3K1snlwj-1" vertex="1">
          <mxGeometry x="13" y="37" width="60" height="20" as="geometry" />
        </mxCell>
        <mxCell id="RpYh0YSagH3gKZOlWNxV-1" value="0710 - Digital Product" style="rounded=0;whiteSpace=wrap;html=1;align=left;verticalAlign=top;fillColor=#f5f5f5;fontColor=#333333;strokeColor=#666666;" parent="gJXXQZJIZcjf3K1snlwj-1" vertex="1">
          <mxGeometry x="13" y="57" width="1060" height="770" as="geometry" />
        </mxCell>
        <mxCell id="W0zadm7N6_j1NPN0jkPf-0" style="edgeStyle=orthogonalEdgeStyle;rounded=0;orthogonalLoop=1;jettySize=auto;html=1;exitX=0.5;exitY=0;exitDx=0;exitDy=0;endArrow=block;endFill=0;endSize=15;" parent="gJXXQZJIZcjf3K1snlwj-1" source="RpYh0YSagH3gKZOlWNxV-8" target="W0zadm7N6_j1NPN0jkPf-1" edge="1">
          <mxGeometry relative="1" as="geometry" />
        </mxCell>
        <mxCell id="RpYh0YSagH3gKZOlWNxV-8" value="«entity»&lt;br&gt;&lt;b&gt;DigitalProduct&lt;br&gt;&lt;/b&gt;" style="html=1;strokeColor=#666666;align=center;fillColor=#f5f5f5;gradientColor=#b3b3b3;" parent="gJXXQZJIZcjf3K1snlwj-1" vertex="1">
          <mxGeometry x="529" y="346" width="240" height="50" as="geometry" />
        </mxCell>
        <mxCell id="RpYh0YSagH3gKZOlWNxV-12" value="userDefinedStatus : string&lt;div&gt;productName : string&lt;/div&gt;&lt;div&gt;identifier : string&lt;br&gt;productType : string&lt;br&gt;introductionDate : date&lt;br&gt;maturity : string&lt;br&gt;serviceLife : string&lt;br&gt;nextVersion : date&lt;br&gt;withdrawDate : date&lt;br&gt;&lt;/div&gt;&lt;div style=&quot;text-align: left&quot;&gt;&lt;/div&gt;" style="rounded=0;whiteSpace=wrap;html=1;strokeColor=#666666;align=left;perimeterSpacing=1;fillColor=#f5f5f5;fontColor=#333333;" parent="gJXXQZJIZcjf3K1snlwj-1" vertex="1">
          <mxGeometry x="529" y="396" width="240" height="154" as="geometry" />
        </mxCell>
        <mxCell id="W0zadm7N6_j1NPN0jkPf-1" value="«entity»&lt;br&gt;&lt;b&gt;Collection&lt;/b&gt;" style="html=1;strokeColor=#d6b656;align=center;fillColor=#fff2cc;gradientColor=#ffd966;" parent="gJXXQZJIZcjf3K1snlwj-1" vertex="1">
          <mxGeometry x="529" y="245.5" width="240" height="50" as="geometry" />
        </mxCell>
        <mxCell id="LGnFX3niNRm69BrZTy_G-0" value="" style="rounded=0;whiteSpace=wrap;html=1;align=left;fillColor=#f5f5f5;strokeColor=#666666;gradientColor=#b3b3b3;" parent="gJXXQZJIZcjf3K1snlwj-1" vertex="1">
          <mxGeometry x="1140" y="37" width="60" height="20" as="geometry" />
        </mxCell>
        <mxCell id="LGnFX3niNRm69BrZTy_G-1" value="0710 - Digital Service" style="rounded=0;whiteSpace=wrap;html=1;align=left;verticalAlign=top;" parent="gJXXQZJIZcjf3K1snlwj-1" vertex="1">
          <mxGeometry x="1140" y="57" width="1060" height="770" as="geometry" />
        </mxCell>
        <mxCell id="LGnFX3niNRm69BrZTy_G-2" style="edgeStyle=orthogonalEdgeStyle;rounded=0;orthogonalLoop=1;jettySize=auto;html=1;exitX=1;exitY=0.5;exitDx=0;exitDy=0;endArrow=none;endFill=0;" parent="gJXXQZJIZcjf3K1snlwj-1" source="LGnFX3niNRm69BrZTy_G-3" target="LGnFX3niNRm69BrZTy_G-16" edge="1">
          <mxGeometry relative="1" as="geometry" />
        </mxCell>
        <mxCell id="LGnFX3niNRm69BrZTy_G-3" value="«entity»&lt;br&gt;&lt;b&gt;Referenceable&lt;/b&gt;" style="html=1;strokeColor=#d6b656;align=center;fillColor=#fff2cc;gradientColor=#ffd966;" parent="gJXXQZJIZcjf3K1snlwj-1" vertex="1">
          <mxGeometry x="1552.75" y="510" width="240" height="50" as="geometry" />
        </mxCell>
        <mxCell id="LGnFX3niNRm69BrZTy_G-4" style="edgeStyle=orthogonalEdgeStyle;rounded=0;html=1;exitX=1;exitY=0.5;dashed=1;endArrow=none;endFill=0;jettySize=auto;orthogonalLoop=1;" parent="gJXXQZJIZcjf3K1snlwj-1" source="LGnFX3niNRm69BrZTy_G-5" edge="1">
          <mxGeometry relative="1" as="geometry">
            <mxPoint x="1533.75" y="323.5" as="targetPoint" />
          </mxGeometry>
        </mxCell>
        <mxCell id="LGnFX3niNRm69BrZTy_G-5" value="«relationship»&lt;br&gt;&lt;b&gt;DigitalServiceDependency&lt;/b&gt;" style="html=1;strokeColor=#666666;align=center;fillColor=#f5f5f5;gradientColor=#b3b3b3;" parent="gJXXQZJIZcjf3K1snlwj-1" vertex="1">
          <mxGeometry x="1194.25" y="298.5" width="206" height="50" as="geometry" />
        </mxCell>
        <mxCell id="LGnFX3niNRm69BrZTy_G-6" value="description : string" style="rounded=0;whiteSpace=wrap;html=1;strokeColor=#000000;gradientColor=#ffffff;align=left;" parent="gJXXQZJIZcjf3K1snlwj-1" vertex="1">
          <mxGeometry x="1194.75" y="348.5" width="206" height="42" as="geometry" />
        </mxCell>
        <mxCell id="LGnFX3niNRm69BrZTy_G-7" style="edgeStyle=orthogonalEdgeStyle;rounded=0;orthogonalLoop=1;jettySize=auto;html=1;exitX=0.5;exitY=0;exitDx=0;exitDy=0;endArrow=block;endFill=0;endSize=15;" parent="gJXXQZJIZcjf3K1snlwj-1" source="LGnFX3niNRm69BrZTy_G-8" target="LGnFX3niNRm69BrZTy_G-18" edge="1">
          <mxGeometry relative="1" as="geometry" />
        </mxCell>
        <mxCell id="LGnFX3niNRm69BrZTy_G-8" value="«entity»&lt;br&gt;&lt;b&gt;DigitalService&lt;br&gt;&lt;/b&gt;" style="html=1;strokeColor=#666666;align=center;fillColor=#f5f5f5;gradientColor=#b3b3b3;" parent="gJXXQZJIZcjf3K1snlwj-1" vertex="1">
          <mxGeometry x="1552.75" y="270.5" width="240" height="50" as="geometry" />
        </mxCell>
        <mxCell id="LGnFX3niNRm69BrZTy_G-9" style="edgeStyle=orthogonalEdgeStyle;rounded=0;orthogonalLoop=1;jettySize=auto;html=1;endArrow=oval;endFill=1;endSize=6;" parent="gJXXQZJIZcjf3K1snlwj-1" source="LGnFX3niNRm69BrZTy_G-10" target="LGnFX3niNRm69BrZTy_G-3" edge="1">
          <mxGeometry relative="1" as="geometry" />
        </mxCell>
        <mxCell id="LGnFX3niNRm69BrZTy_G-10" value="displayName : string&lt;br&gt;description : string&lt;br&gt;versionIdentifier : string&lt;br&gt;&lt;div style=&quot;text-align: left&quot;&gt;&lt;/div&gt;" style="rounded=0;whiteSpace=wrap;html=1;strokeColor=#000000;gradientColor=#ffffff;align=left;perimeterSpacing=1;" parent="gJXXQZJIZcjf3K1snlwj-1" vertex="1">
          <mxGeometry x="1552.75" y="320.5" width="240" height="70" as="geometry" />
        </mxCell>
        <mxCell id="LGnFX3niNRm69BrZTy_G-11" value="calledByDigitalServices" style="text;html=1;resizable=0;points=[];autosize=1;align=center;verticalAlign=top;spacingTop=-4;" parent="gJXXQZJIZcjf3K1snlwj-1" vertex="1">
          <mxGeometry x="1417.75" y="261.5" width="140" height="20" as="geometry" />
        </mxCell>
        <mxCell id="LGnFX3niNRm69BrZTy_G-12" value="*" style="text;html=1;resizable=0;points=[];autosize=1;align=center;verticalAlign=top;spacingTop=-4;" parent="gJXXQZJIZcjf3K1snlwj-1" vertex="1">
          <mxGeometry x="1532.75" y="283.5" width="15" height="14" as="geometry" />
        </mxCell>
        <mxCell id="LGnFX3niNRm69BrZTy_G-13" value="*" style="text;html=1;resizable=0;points=[];autosize=1;align=center;verticalAlign=top;spacingTop=-4;" parent="gJXXQZJIZcjf3K1snlwj-1" vertex="1">
          <mxGeometry x="1533.75" y="357.5" width="15" height="14" as="geometry" />
        </mxCell>
        <mxCell id="LGnFX3niNRm69BrZTy_G-14" value="callsDigitalServices" style="text;html=1;resizable=0;points=[];autosize=1;align=center;verticalAlign=top;spacingTop=-4;" parent="gJXXQZJIZcjf3K1snlwj-1" vertex="1">
          <mxGeometry x="1437.75" y="374.5" width="120" height="20" as="geometry" />
        </mxCell>
        <mxCell id="LGnFX3niNRm69BrZTy_G-15" style="edgeStyle=orthogonalEdgeStyle;rounded=0;html=1;exitX=0;exitY=0.75;entryX=0;entryY=0.25;endArrow=none;endFill=0;jettySize=auto;orthogonalLoop=1;entryDx=0;entryDy=0;exitDx=0;exitDy=0;startArrow=oval;startFill=1;" parent="gJXXQZJIZcjf3K1snlwj-1" source="LGnFX3niNRm69BrZTy_G-10" target="LGnFX3niNRm69BrZTy_G-8" edge="1">
          <mxGeometry relative="1" as="geometry" />
        </mxCell>
        <mxCell id="LGnFX3niNRm69BrZTy_G-16" value="«classification»&lt;br&gt;&lt;b&gt;DigitalProduct&lt;br&gt;&lt;/b&gt;" style="html=1;strokeColor=#666666;align=center;fillColor=#f5f5f5;gradientColor=#b3b3b3;" parent="gJXXQZJIZcjf3K1snlwj-1" vertex="1">
          <mxGeometry x="1847" y="510" width="240" height="50" as="geometry" />
        </mxCell>
        <mxCell id="LGnFX3niNRm69BrZTy_G-17" value="productStatus : string&lt;div&gt;productName : string&lt;br&gt;productType : string&lt;br&gt;description : string&lt;br&gt;introductionDate : date&lt;br&gt;maturity : string&lt;br&gt;serviceLife : string&lt;br&gt;currentVersion : string&lt;br&gt;nextVersion : date&lt;br&gt;withdrawDate : date&lt;br&gt;additionalProperties : map&amp;lt;string, string&amp;gt;&lt;br&gt;&lt;div style=&quot;text-align: left&quot;&gt;&lt;/div&gt;&lt;/div&gt;" style="rounded=0;whiteSpace=wrap;html=1;strokeColor=#000000;gradientColor=#ffffff;align=left;perimeterSpacing=1;" parent="gJXXQZJIZcjf3K1snlwj-1" vertex="1">
          <mxGeometry x="1847" y="560" width="240" height="190" as="geometry" />
        </mxCell>
        <mxCell id="LGnFX3niNRm69BrZTy_G-18" value="«entity»&lt;br&gt;&lt;b&gt;Referenceable&lt;/b&gt;" style="html=1;strokeColor=#d6b656;align=center;fillColor=#fff2cc;gradientColor=#ffd966;" parent="gJXXQZJIZcjf3K1snlwj-1" vertex="1">
          <mxGeometry x="1552.75" y="170" width="240" height="50" as="geometry" />
        </mxCell>
        <mxCell id="LGnFX3niNRm69BrZTy_G-19" value="0..1" style="text;html=1;align=center;verticalAlign=middle;resizable=0;points=[];autosize=1;strokeColor=none;fillColor=none;" parent="gJXXQZJIZcjf3K1snlwj-1" vertex="1">
          <mxGeometry x="1677" y="390.5" width="40" height="30" as="geometry" />
        </mxCell>
        <mxCell id="LGnFX3niNRm69BrZTy_G-20" value="*" style="text;html=1;align=center;verticalAlign=middle;resizable=0;points=[];autosize=1;strokeColor=none;fillColor=none;" parent="gJXXQZJIZcjf3K1snlwj-1" vertex="1">
          <mxGeometry x="1677" y="490" width="30" height="30" as="geometry" />
        </mxCell>
        <mxCell id="LGnFX3niNRm69BrZTy_G-21" style="edgeStyle=orthogonalEdgeStyle;rounded=0;html=1;exitX=1;exitY=0.5;dashed=1;endArrow=none;endFill=0;jettySize=auto;orthogonalLoop=1;" parent="gJXXQZJIZcjf3K1snlwj-1" source="LGnFX3niNRm69BrZTy_G-22" edge="1">
          <mxGeometry relative="1" as="geometry">
            <mxPoint x="1672" y="465" as="targetPoint" />
          </mxGeometry>
        </mxCell>
        <mxCell id="LGnFX3niNRm69BrZTy_G-22" value="«relationship»&lt;br&gt;&lt;b&gt;DigitalServiceProduct&lt;/b&gt;" style="html=1;strokeColor=#666666;align=center;fillColor=#f5f5f5;gradientColor=#b3b3b3;" parent="gJXXQZJIZcjf3K1snlwj-1" vertex="1">
          <mxGeometry x="1272" y="440" width="206" height="50" as="geometry" />
        </mxCell>
        <mxCell id="LGnFX3niNRm69BrZTy_G-23" value="" style="rounded=0;whiteSpace=wrap;html=1;strokeColor=#000000;gradientColor=#ffffff;align=left;" parent="gJXXQZJIZcjf3K1snlwj-1" vertex="1">
          <mxGeometry x="1272.5" y="490" width="206" height="30" as="geometry" />
        </mxCell>
        <mxCell id="LGnFX3niNRm69BrZTy_G-24" value="digitalProducts" style="text;html=1;align=center;verticalAlign=middle;resizable=0;points=[];autosize=1;strokeColor=none;fillColor=none;" parent="gJXXQZJIZcjf3K1snlwj-1" vertex="1">
          <mxGeometry x="1567" y="480" width="100" height="30" as="geometry" />
        </mxCell>
        <mxCell id="LGnFX3niNRm69BrZTy_G-25" value="managingDigitalService" style="text;html=1;align=center;verticalAlign=middle;resizable=0;points=[];autosize=1;strokeColor=none;fillColor=none;" parent="gJXXQZJIZcjf3K1snlwj-1" vertex="1">
          <mxGeometry x="1527" y="390.5" width="150" height="30" as="geometry" />
        </mxCell>
        <mxCell id="WmVzsQOer41YC8Kw7J9q-0" style="edgeStyle=orthogonalEdgeStyle;rounded=0;html=1;exitX=1;exitY=0.5;dashed=1;endArrow=none;endFill=0;jettySize=auto;orthogonalLoop=1;" parent="gJXXQZJIZcjf3K1snlwj-1" source="WmVzsQOer41YC8Kw7J9q-1" edge="1">
          <mxGeometry relative="1" as="geometry">
            <mxPoint x="507" y="421" as="targetPoint" />
          </mxGeometry>
        </mxCell>
        <mxCell id="WmVzsQOer41YC8Kw7J9q-1" value="«relationship»&lt;br&gt;&lt;b&gt;DigitalProductDependency&lt;/b&gt;" style="html=1;strokeColor=#666666;align=center;fillColor=#f5f5f5;gradientColor=#b3b3b3;" parent="gJXXQZJIZcjf3K1snlwj-1" vertex="1">
          <mxGeometry x="240" y="396" width="206" height="50" as="geometry" />
        </mxCell>
        <mxCell id="WmVzsQOer41YC8Kw7J9q-2" value="description : string" style="rounded=0;whiteSpace=wrap;html=1;strokeColor=#666666;align=left;fillColor=#f5f5f5;fontColor=#333333;" parent="gJXXQZJIZcjf3K1snlwj-1" vertex="1">
          <mxGeometry x="240.5" y="446" width="206" height="42" as="geometry" />
        </mxCell>
        <mxCell id="WmVzsQOer41YC8Kw7J9q-3" value="usedByDigitalProduct" style="text;html=1;resizable=0;points=[];autosize=1;align=center;verticalAlign=top;spacingTop=-4;" parent="gJXXQZJIZcjf3K1snlwj-1" vertex="1">
          <mxGeometry x="389" y="346" width="140" height="20" as="geometry" />
        </mxCell>
        <mxCell id="WmVzsQOer41YC8Kw7J9q-4" value="*" style="text;html=1;resizable=0;points=[];autosize=1;align=center;verticalAlign=top;spacingTop=-4;" parent="gJXXQZJIZcjf3K1snlwj-1" vertex="1">
          <mxGeometry x="514" y="370.5" width="15" height="14" as="geometry" />
        </mxCell>
        <mxCell id="WmVzsQOer41YC8Kw7J9q-5" value="*" style="text;html=1;resizable=0;points=[];autosize=1;align=center;verticalAlign=top;spacingTop=-4;" parent="gJXXQZJIZcjf3K1snlwj-1" vertex="1">
          <mxGeometry x="514" y="496" width="15" height="14" as="geometry" />
        </mxCell>
        <mxCell id="WmVzsQOer41YC8Kw7J9q-6" value="usesDigitalProducts" style="text;html=1;resizable=0;points=[];autosize=1;align=center;verticalAlign=top;spacingTop=-4;" parent="gJXXQZJIZcjf3K1snlwj-1" vertex="1">
          <mxGeometry x="399" y="520" width="130" height="20" as="geometry" />
        </mxCell>
        <mxCell id="WmVzsQOer41YC8Kw7J9q-7" style="edgeStyle=orthogonalEdgeStyle;rounded=0;html=1;exitX=0;exitY=0.75;entryX=0;entryY=0.5;endArrow=none;endFill=0;jettySize=auto;orthogonalLoop=1;entryDx=0;entryDy=0;exitDx=0;exitDy=0;startArrow=oval;startFill=1;" parent="gJXXQZJIZcjf3K1snlwj-1" source="RpYh0YSagH3gKZOlWNxV-12" target="RpYh0YSagH3gKZOlWNxV-8" edge="1">
          <mxGeometry relative="1" as="geometry">
            <mxPoint x="485.75" y="505.5" as="sourcePoint" />
            <mxPoint x="486.75" y="414.5" as="targetPoint" />
          </mxGeometry>
        </mxCell>
      </root>
    </mxGraphModel>
  </diagram>
  <diagram name="0711-Digital-Subscription" id="_S9NA54iBMqRF7TFp2N2">
    <mxGraphModel dx="1186" dy="773" grid="1" gridSize="10" guides="1" tooltips="1" connect="1" arrows="1" fold="1" page="1" pageScale="1" pageWidth="827" pageHeight="1169" math="0" shadow="0">
      <root>
        <mxCell id="WxCcyCYEGk11gSl3iiKJ-0" />
        <mxCell id="WxCcyCYEGk11gSl3iiKJ-1" parent="WxCcyCYEGk11gSl3iiKJ-0" />
        <mxCell id="WxCcyCYEGk11gSl3iiKJ-2" value="" style="rounded=0;whiteSpace=wrap;html=1;align=left;fillColor=#f5f5f5;strokeColor=#666666;gradientColor=#b3b3b3;" parent="WxCcyCYEGk11gSl3iiKJ-1" vertex="1">
          <mxGeometry x="20" y="37" width="60" height="20" as="geometry" />
        </mxCell>
        <mxCell id="WxCcyCYEGk11gSl3iiKJ-3" value="0711 - Digital Subscription" style="rounded=0;whiteSpace=wrap;html=1;align=left;verticalAlign=top;" parent="WxCcyCYEGk11gSl3iiKJ-1" vertex="1">
          <mxGeometry x="20" y="57" width="1060" height="770" as="geometry" />
        </mxCell>
        <mxCell id="MTg5pVm4fMqa8UeOlJdq-2" style="edgeStyle=orthogonalEdgeStyle;rounded=0;orthogonalLoop=1;jettySize=auto;html=1;exitX=0.5;exitY=0;exitDx=0;exitDy=0;startArrow=none;startFill=0;endArrow=block;endFill=0;endSize=14;strokeWidth=1;" parent="WxCcyCYEGk11gSl3iiKJ-1" source="WxCcyCYEGk11gSl3iiKJ-10" target="MTg5pVm4fMqa8UeOlJdq-0" edge="1">
          <mxGeometry relative="1" as="geometry">
            <mxPoint x="803.5" y="284" as="targetPoint" />
          </mxGeometry>
        </mxCell>
        <mxCell id="WxCcyCYEGk11gSl3iiKJ-10" value="«entity»&lt;br&gt;&lt;b&gt;DigitalSubscription&lt;br&gt;&lt;/b&gt;" style="html=1;strokeColor=#666666;align=center;fillColor=#f5f5f5;gradientColor=#b3b3b3;" parent="WxCcyCYEGk11gSl3iiKJ-1" vertex="1">
          <mxGeometry x="680" y="330.5" width="240" height="50" as="geometry" />
        </mxCell>
        <mxCell id="WxCcyCYEGk11gSl3iiKJ-11" value="supportLevel : string&lt;br&gt;serviceLevels : map&amp;lt;string, string&amp;gt;&lt;br&gt;&lt;div style=&quot;text-align: left&quot;&gt;&lt;/div&gt;" style="rounded=0;whiteSpace=wrap;html=1;strokeColor=#000000;gradientColor=#ffffff;align=left;perimeterSpacing=1;" parent="WxCcyCYEGk11gSl3iiKJ-1" vertex="1">
          <mxGeometry x="680" y="380.5" width="240" height="50.5" as="geometry" />
        </mxCell>
        <mxCell id="WxCcyCYEGk11gSl3iiKJ-13" value="*" style="text;html=1;resizable=0;points=[];autosize=1;align=center;verticalAlign=top;spacingTop=-4;" parent="WxCcyCYEGk11gSl3iiKJ-1" vertex="1">
          <mxGeometry x="654.5" y="395" width="15" height="14" as="geometry" />
        </mxCell>
        <mxCell id="WxCcyCYEGk11gSl3iiKJ-20" value="«entity»&lt;br&gt;&lt;b&gt;Referenceable&lt;/b&gt;" style="html=1;strokeColor=#d6b656;align=center;fillColor=#fff2cc;gradientColor=#ffd966;" parent="WxCcyCYEGk11gSl3iiKJ-1" vertex="1">
          <mxGeometry x="110" y="367.5" width="160" height="50" as="geometry" />
        </mxCell>
        <mxCell id="GZY4WiJOAqmKPfDvNCXV-3" value="«relationship»&lt;br&gt;&lt;b&gt;DigitalSubscriber&lt;/b&gt;" style="html=1;strokeColor=#666666;align=center;fillColor=#f5f5f5;gradientColor=#b3b3b3;" parent="WxCcyCYEGk11gSl3iiKJ-1" vertex="1">
          <mxGeometry x="343" y="237.5" width="206" height="50" as="geometry" />
        </mxCell>
        <mxCell id="GZY4WiJOAqmKPfDvNCXV-4" value="subscriberId : string" style="rounded=0;whiteSpace=wrap;html=1;strokeColor=#000000;gradientColor=#ffffff;align=left;" parent="WxCcyCYEGk11gSl3iiKJ-1" vertex="1">
          <mxGeometry x="343" y="287.5" width="206" height="42" as="geometry" />
        </mxCell>
        <mxCell id="GZY4WiJOAqmKPfDvNCXV-5" style="edgeStyle=orthogonalEdgeStyle;rounded=0;html=1;exitX=0.5;exitY=1;dashed=1;endArrow=none;endFill=0;jettySize=auto;orthogonalLoop=1;exitDx=0;exitDy=0;" parent="WxCcyCYEGk11gSl3iiKJ-1" source="GZY4WiJOAqmKPfDvNCXV-4" edge="1">
          <mxGeometry relative="1" as="geometry">
            <mxPoint x="446" y="393" as="targetPoint" />
            <mxPoint x="771.5" y="141.5" as="sourcePoint" />
          </mxGeometry>
        </mxCell>
        <mxCell id="GZY4WiJOAqmKPfDvNCXV-6" value="digitalSubscribers" style="text;html=1;align=center;verticalAlign=middle;resizable=0;points=[];autosize=1;strokeColor=none;fillColor=none;" parent="WxCcyCYEGk11gSl3iiKJ-1" vertex="1">
          <mxGeometry x="260.5" y="389" width="120" height="30" as="geometry" />
        </mxCell>
        <mxCell id="GZY4WiJOAqmKPfDvNCXV-7" value="*" style="text;html=1;align=center;verticalAlign=middle;resizable=0;points=[];autosize=1;strokeColor=none;fillColor=none;" parent="WxCcyCYEGk11gSl3iiKJ-1" vertex="1">
          <mxGeometry x="275" y="363" width="30" height="30" as="geometry" />
        </mxCell>
        <mxCell id="GZY4WiJOAqmKPfDvNCXV-8" value="digitalSubscriptions" style="text;html=1;align=center;verticalAlign=middle;resizable=0;points=[];autosize=1;strokeColor=none;fillColor=none;" parent="WxCcyCYEGk11gSl3iiKJ-1" vertex="1">
          <mxGeometry x="555" y="361.5" width="130" height="30" as="geometry" />
        </mxCell>
        <mxCell id="GZY4WiJOAqmKPfDvNCXV-11" style="edgeStyle=orthogonalEdgeStyle;rounded=0;orthogonalLoop=1;jettySize=auto;html=1;exitX=1;exitY=0.5;exitDx=0;exitDy=0;entryX=0;entryY=0.25;entryDx=0;entryDy=0;startArrow=none;startFill=0;endArrow=oval;endFill=1;endSize=6;" parent="WxCcyCYEGk11gSl3iiKJ-1" source="WxCcyCYEGk11gSl3iiKJ-20" target="WxCcyCYEGk11gSl3iiKJ-11" edge="1">
          <mxGeometry relative="1" as="geometry" />
        </mxCell>
        <mxCell id="MTg5pVm4fMqa8UeOlJdq-0" value="«entity»&lt;br&gt;&lt;b&gt;Agreement&lt;br&gt;&lt;/b&gt;" style="html=1;strokeColor=#82b366;align=center;fillColor=#d5e8d4;gradientColor=#97d077;" parent="WxCcyCYEGk11gSl3iiKJ-1" vertex="1">
          <mxGeometry x="680.5" y="180" width="240" height="50" as="geometry" />
        </mxCell>
      </root>
    </mxGraphModel>
  </diagram>
  <diagram id="buv8tUeQr_PRYwmhzUto" name="0715-Digital-Product-Management">
    <mxGraphModel dx="1812" dy="1056" grid="1" gridSize="10" guides="1" tooltips="1" connect="1" arrows="1" fold="1" page="1" pageScale="1" pageWidth="827" pageHeight="1169" math="0" shadow="0">
      <root>
        <mxCell id="WKeq32_BB5dezChJn7f3-0" />
        <mxCell id="WKeq32_BB5dezChJn7f3-1" parent="WKeq32_BB5dezChJn7f3-0" />
        <mxCell id="EGDd3p9W_Qj3-g3cCvyR-0" value="" style="rounded=0;whiteSpace=wrap;html=1;align=left;fillColor=#f5f5f5;strokeColor=#666666;gradientColor=#b3b3b3;" parent="WKeq32_BB5dezChJn7f3-1" vertex="1">
          <mxGeometry x="13" y="37" width="60" height="20" as="geometry" />
        </mxCell>
        <mxCell id="EGDd3p9W_Qj3-g3cCvyR-1" value="0715 - Digital Product Management" style="rounded=0;whiteSpace=wrap;html=1;align=left;verticalAlign=top;" parent="WKeq32_BB5dezChJn7f3-1" vertex="1">
          <mxGeometry x="13" y="57" width="1060" height="770" as="geometry" />
        </mxCell>
        <mxCell id="EGDd3p9W_Qj3-g3cCvyR-8" value="«entity»&lt;br&gt;&lt;b&gt;DigitalProduct&lt;/b&gt;" style="html=1;strokeColor=#666666;align=center;fillColor=#f5f5f5;gradientColor=#b3b3b3;" parent="WKeq32_BB5dezChJn7f3-1" vertex="1">
          <mxGeometry x="140" y="319.5" width="240" height="50" as="geometry" />
        </mxCell>
        <mxCell id="EGDd3p9W_Qj3-g3cCvyR-25" value="*" style="text;html=1;resizable=0;points=[];autosize=1;align=center;verticalAlign=top;spacingTop=-4;" parent="WKeq32_BB5dezChJn7f3-1" vertex="1">
          <mxGeometry x="394.5" y="325.5" width="15" height="14" as="geometry" />
        </mxCell>
        <mxCell id="EGDd3p9W_Qj3-g3cCvyR-30" value="digitalProductManagers" style="text;html=1;resizable=0;points=[];autosize=1;align=center;verticalAlign=top;spacingTop=-4;" parent="WKeq32_BB5dezChJn7f3-1" vertex="1">
          <mxGeometry x="553" y="319.5" width="150" height="20" as="geometry" />
        </mxCell>
        <mxCell id="d3mtFlWCItd1Romx6_BC-33" style="edgeStyle=orthogonalEdgeStyle;rounded=0;orthogonalLoop=1;jettySize=auto;html=1;exitX=0.5;exitY=0;exitDx=0;exitDy=0;endArrow=block;endFill=0;startSize=6;endSize=15;" edge="1" parent="WKeq32_BB5dezChJn7f3-1" source="p0uRSspzMt8wWXsumDOr-3" target="AdnE94B2kkjTDJjHpTNt-10">
          <mxGeometry relative="1" as="geometry" />
        </mxCell>
        <mxCell id="AdnE94B2kkjTDJjHpTNt-2" value="«entity»&lt;br&gt;&lt;b&gt;DigitalProductManager&lt;/b&gt;" style="html=1;strokeColor=#666666;align=center;fillColor=#f5f5f5;gradientColor=#b3b3b3;" parent="WKeq32_BB5dezChJn7f3-1" vertex="1">
          <mxGeometry x="700" y="505.5" width="186" height="50" as="geometry" />
        </mxCell>
        <mxCell id="AdnE94B2kkjTDJjHpTNt-3" value="*" style="text;html=1;strokeColor=none;fillColor=none;align=center;verticalAlign=middle;whiteSpace=wrap;rounded=0;" parent="WKeq32_BB5dezChJn7f3-1" vertex="1">
          <mxGeometry x="674" y="351.5" width="26" height="18" as="geometry" />
        </mxCell>
        <mxCell id="AdnE94B2kkjTDJjHpTNt-4" value="«relationship»&lt;br&gt;&lt;b&gt;DigitalProductManagement&lt;/b&gt;" style="html=1;strokeColor=#666666;align=center;fillColor=#f5f5f5;gradientColor=#b3b3b3;" parent="WKeq32_BB5dezChJn7f3-1" vertex="1">
          <mxGeometry x="382.5" y="196.5" width="206" height="53" as="geometry" />
        </mxCell>
        <mxCell id="AdnE94B2kkjTDJjHpTNt-6" value="" style="rounded=0;whiteSpace=wrap;html=1;strokeColor=#000000;gradientColor=#ffffff;align=left;" parent="WKeq32_BB5dezChJn7f3-1" vertex="1">
          <mxGeometry x="382.5" y="249.5" width="206" height="31" as="geometry" />
        </mxCell>
        <mxCell id="AdnE94B2kkjTDJjHpTNt-8" value="managesDigitalProducts" style="text;html=1;strokeColor=none;fillColor=none;align=center;verticalAlign=middle;whiteSpace=wrap;rounded=0;" parent="WKeq32_BB5dezChJn7f3-1" vertex="1">
          <mxGeometry x="394.5" y="353" width="115" height="20" as="geometry" />
        </mxCell>
        <mxCell id="AdnE94B2kkjTDJjHpTNt-10" value="«entity»&lt;br&gt;&lt;b&gt;ActorRole&lt;/b&gt;" style="html=1;strokeColor=#b85450;align=center;fillColor=#f8cecc;gradientColor=#FF0080;" parent="WKeq32_BB5dezChJn7f3-1" vertex="1">
          <mxGeometry x="703" y="319.5" width="180" height="50" as="geometry" />
        </mxCell>
        <mxCell id="AdnE94B2kkjTDJjHpTNt-0" style="edgeStyle=orthogonalEdgeStyle;rounded=0;html=1;jettySize=auto;orthogonalLoop=1;endArrow=oval;endFill=1;entryX=0;entryY=0.5;entryDx=0;entryDy=0;" parent="WKeq32_BB5dezChJn7f3-1" source="EGDd3p9W_Qj3-g3cCvyR-8" target="AdnE94B2kkjTDJjHpTNt-10" edge="1">
          <mxGeometry relative="1" as="geometry" />
        </mxCell>
        <mxCell id="Va7dIxMRQrXzxgXTygK1-3" value="" style="rounded=0;whiteSpace=wrap;html=1;strokeColor=#000000;gradientColor=#ffffff;align=left;" parent="WKeq32_BB5dezChJn7f3-1" vertex="1">
          <mxGeometry x="700" y="555.5" width="186" height="32" as="geometry" />
        </mxCell>
        <mxCell id="d3mtFlWCItd1Romx6_BC-0" value="" style="rounded=0;whiteSpace=wrap;html=1;align=left;fillColor=#f5f5f5;strokeColor=#666666;gradientColor=#b3b3b3;" vertex="1" parent="WKeq32_BB5dezChJn7f3-1">
          <mxGeometry x="1140" y="37" width="60" height="20" as="geometry" />
        </mxCell>
        <mxCell id="d3mtFlWCItd1Romx6_BC-1" value="0715 - Digital Service Ownership" style="rounded=0;whiteSpace=wrap;html=1;align=left;verticalAlign=top;" vertex="1" parent="WKeq32_BB5dezChJn7f3-1">
          <mxGeometry x="1140" y="57" width="1060" height="770" as="geometry" />
        </mxCell>
        <mxCell id="d3mtFlWCItd1Romx6_BC-2" style="edgeStyle=orthogonalEdgeStyle;rounded=0;html=1;exitX=0.75;exitY=0;dashed=1;endArrow=none;endFill=0;jettySize=auto;orthogonalLoop=1;exitDx=0;exitDy=0;" edge="1" parent="WKeq32_BB5dezChJn7f3-1" source="d3mtFlWCItd1Romx6_BC-3">
          <mxGeometry relative="1" as="geometry">
            <mxPoint x="1372" y="299" as="targetPoint" />
          </mxGeometry>
        </mxCell>
        <mxCell id="d3mtFlWCItd1Romx6_BC-3" value="«relationship»&lt;br&gt;&lt;b&gt;DigitalServiceOperator&lt;/b&gt;" style="html=1;strokeColor=#666666;align=center;fillColor=#f5f5f5;gradientColor=#b3b3b3;" vertex="1" parent="WKeq32_BB5dezChJn7f3-1">
          <mxGeometry x="1217" y="381.5" width="206" height="50" as="geometry" />
        </mxCell>
        <mxCell id="d3mtFlWCItd1Romx6_BC-4" value="scope : string" style="rounded=0;whiteSpace=wrap;html=1;strokeColor=#000000;gradientColor=#ffffff;align=left;" vertex="1" parent="WKeq32_BB5dezChJn7f3-1">
          <mxGeometry x="1217.5" y="431.5" width="206" height="38.5" as="geometry" />
        </mxCell>
        <mxCell id="d3mtFlWCItd1Romx6_BC-5" value="«entity»&lt;br&gt;&lt;b&gt;DigitalService&lt;/b&gt;" style="html=1;strokeColor=#666666;align=center;fillColor=#f5f5f5;gradientColor=#b3b3b3;" vertex="1" parent="WKeq32_BB5dezChJn7f3-1">
          <mxGeometry x="1532.5" y="425.5" width="240" height="50" as="geometry" />
        </mxCell>
        <mxCell id="d3mtFlWCItd1Romx6_BC-6" value="«entity»&lt;br&gt;&lt;b&gt;BusinessCapability&lt;/b&gt;" style="html=1;strokeColor=#82b366;align=center;fillColor=#d5e8d4;gradientColor=#97d077;" vertex="1" parent="WKeq32_BB5dezChJn7f3-1">
          <mxGeometry x="1592.5" y="120" width="240" height="50" as="geometry" />
        </mxCell>
        <mxCell id="d3mtFlWCItd1Romx6_BC-7" style="edgeStyle=orthogonalEdgeStyle;rounded=0;html=1;exitX=0;exitY=0.5;endArrow=none;endFill=0;jettySize=auto;orthogonalLoop=1;dashed=1;" edge="1" parent="WKeq32_BB5dezChJn7f3-1" source="d3mtFlWCItd1Romx6_BC-8">
          <mxGeometry relative="1" as="geometry">
            <mxPoint x="1714" y="240" as="targetPoint" />
          </mxGeometry>
        </mxCell>
        <mxCell id="d3mtFlWCItd1Romx6_BC-8" value="«relationship»&lt;br&gt;&lt;b&gt;DigitalSupport&lt;/b&gt;" style="html=1;strokeColor=#666666;align=center;fillColor=#f5f5f5;gradientColor=#b3b3b3;" vertex="1" parent="WKeq32_BB5dezChJn7f3-1">
          <mxGeometry x="1762" y="215" width="206" height="50" as="geometry" />
        </mxCell>
        <mxCell id="d3mtFlWCItd1Romx6_BC-9" value="" style="rounded=0;whiteSpace=wrap;html=1;strokeColor=#000000;gradientColor=#ffffff;align=left;" vertex="1" parent="WKeq32_BB5dezChJn7f3-1">
          <mxGeometry x="1762.5" y="265" width="206" height="32" as="geometry" />
        </mxCell>
        <mxCell id="d3mtFlWCItd1Romx6_BC-10" value="digitalServiceOperators" style="text;html=1;resizable=0;points=[];autosize=1;align=center;verticalAlign=top;spacingTop=-4;" vertex="1" parent="WKeq32_BB5dezChJn7f3-1">
          <mxGeometry x="1336" y="174" width="140" height="20" as="geometry" />
        </mxCell>
        <mxCell id="d3mtFlWCItd1Romx6_BC-11" value="*" style="text;html=1;resizable=0;points=[];autosize=1;align=center;verticalAlign=top;spacingTop=-4;" vertex="1" parent="WKeq32_BB5dezChJn7f3-1">
          <mxGeometry x="1313" y="177" width="15" height="14" as="geometry" />
        </mxCell>
        <mxCell id="d3mtFlWCItd1Romx6_BC-12" value="*" style="text;html=1;resizable=0;points=[];autosize=1;align=center;verticalAlign=top;spacingTop=-4;" vertex="1" parent="WKeq32_BB5dezChJn7f3-1">
          <mxGeometry x="1594" y="406" width="15" height="14" as="geometry" />
        </mxCell>
        <mxCell id="d3mtFlWCItd1Romx6_BC-13" value="*" style="text;html=1;resizable=0;points=[];autosize=1;align=center;verticalAlign=top;spacingTop=-4;" vertex="1" parent="WKeq32_BB5dezChJn7f3-1">
          <mxGeometry x="1716" y="177" width="15" height="14" as="geometry" />
        </mxCell>
        <mxCell id="d3mtFlWCItd1Romx6_BC-14" value="*" style="text;html=1;resizable=0;points=[];autosize=1;align=center;verticalAlign=top;spacingTop=-4;" vertex="1" parent="WKeq32_BB5dezChJn7f3-1">
          <mxGeometry x="1656.25" y="482" width="15" height="14" as="geometry" />
        </mxCell>
        <mxCell id="d3mtFlWCItd1Romx6_BC-15" value="usesDigitalServices" style="text;html=1;resizable=0;points=[];autosize=1;align=center;verticalAlign=top;spacingTop=-4;" vertex="1" parent="WKeq32_BB5dezChJn7f3-1">
          <mxGeometry x="1714" y="403" width="120" height="20" as="geometry" />
        </mxCell>
        <mxCell id="d3mtFlWCItd1Romx6_BC-16" value="digitalServiceManagers" style="text;html=1;resizable=0;points=[];autosize=1;align=center;verticalAlign=top;spacingTop=-4;" vertex="1" parent="WKeq32_BB5dezChJn7f3-1">
          <mxGeometry x="1739.5" y="524" width="140" height="20" as="geometry" />
        </mxCell>
        <mxCell id="d3mtFlWCItd1Romx6_BC-17" style="edgeStyle=orthogonalEdgeStyle;rounded=0;orthogonalLoop=1;jettySize=auto;html=1;exitX=0.5;exitY=0;exitDx=0;exitDy=0;endArrow=block;endFill=0;endSize=20;" edge="1" parent="WKeq32_BB5dezChJn7f3-1" source="d3mtFlWCItd1Romx6_BC-18" target="d3mtFlWCItd1Romx6_BC-26">
          <mxGeometry relative="1" as="geometry" />
        </mxCell>
        <mxCell id="d3mtFlWCItd1Romx6_BC-18" value="«entity»&lt;br&gt;&lt;b&gt;DigitialServiceManager&lt;/b&gt;" style="html=1;strokeColor=#666666;align=center;fillColor=#f5f5f5;gradientColor=#b3b3b3;" vertex="1" parent="WKeq32_BB5dezChJn7f3-1">
          <mxGeometry x="1875" y="636" width="186" height="50" as="geometry" />
        </mxCell>
        <mxCell id="d3mtFlWCItd1Romx6_BC-19" value="*" style="text;html=1;strokeColor=none;fillColor=none;align=center;verticalAlign=middle;whiteSpace=wrap;rounded=0;" vertex="1" parent="WKeq32_BB5dezChJn7f3-1">
          <mxGeometry x="1844" y="556" width="26" height="18" as="geometry" />
        </mxCell>
        <mxCell id="d3mtFlWCItd1Romx6_BC-20" value="«relationship»&lt;br&gt;&lt;b&gt;DigitalServiceManagement&lt;/b&gt;" style="html=1;strokeColor=#666666;align=center;fillColor=#f5f5f5;gradientColor=#b3b3b3;" vertex="1" parent="WKeq32_BB5dezChJn7f3-1">
          <mxGeometry x="1594" y="602" width="206" height="53" as="geometry" />
        </mxCell>
        <mxCell id="d3mtFlWCItd1Romx6_BC-21" value="" style="endArrow=none;dashed=1;html=1;entryX=0.5;entryY=0;entryDx=0;entryDy=0;" edge="1" parent="WKeq32_BB5dezChJn7f3-1" target="d3mtFlWCItd1Romx6_BC-20">
          <mxGeometry width="50" height="50" relative="1" as="geometry">
            <mxPoint x="1697.25" y="553" as="sourcePoint" />
            <mxPoint x="1684" y="1273" as="targetPoint" />
          </mxGeometry>
        </mxCell>
        <mxCell id="d3mtFlWCItd1Romx6_BC-22" value="" style="rounded=0;whiteSpace=wrap;html=1;strokeColor=#000000;gradientColor=#ffffff;align=left;" vertex="1" parent="WKeq32_BB5dezChJn7f3-1">
          <mxGeometry x="1594" y="655" width="206" height="31" as="geometry" />
        </mxCell>
        <mxCell id="d3mtFlWCItd1Romx6_BC-23" value="consumingBusinessCapabilities" style="text;html=1;strokeColor=none;fillColor=none;align=center;verticalAlign=middle;whiteSpace=wrap;rounded=0;" vertex="1" parent="WKeq32_BB5dezChJn7f3-1">
          <mxGeometry x="1570.75" y="174" width="100.5" height="20" as="geometry" />
        </mxCell>
        <mxCell id="d3mtFlWCItd1Romx6_BC-24" value="managesDigitalServices" style="text;html=1;strokeColor=none;fillColor=none;align=center;verticalAlign=middle;whiteSpace=wrap;rounded=0;" vertex="1" parent="WKeq32_BB5dezChJn7f3-1">
          <mxGeometry x="1524" y="479" width="115" height="20" as="geometry" />
        </mxCell>
        <mxCell id="d3mtFlWCItd1Romx6_BC-25" value="*" style="text;html=1;strokeColor=none;fillColor=none;align=center;verticalAlign=middle;whiteSpace=wrap;rounded=0;" vertex="1" parent="WKeq32_BB5dezChJn7f3-1">
          <mxGeometry x="1684" y="405.5" width="26" height="18" as="geometry" />
        </mxCell>
        <mxCell id="d3mtFlWCItd1Romx6_BC-26" value="«entity»&lt;br&gt;&lt;b&gt;PersonRole&lt;/b&gt;" style="html=1;strokeColor=#b85450;align=center;fillColor=#f8cecc;gradientColor=#FF0080;" vertex="1" parent="WKeq32_BB5dezChJn7f3-1">
          <mxGeometry x="1878" y="524" width="180" height="50" as="geometry" />
        </mxCell>
        <mxCell id="d3mtFlWCItd1Romx6_BC-27" value="operatesDigitalServices" style="text;html=1;resizable=0;points=[];autosize=1;align=center;verticalAlign=top;spacingTop=-4;" vertex="1" parent="WKeq32_BB5dezChJn7f3-1">
          <mxGeometry x="1449" y="402" width="140" height="20" as="geometry" />
        </mxCell>
        <mxCell id="d3mtFlWCItd1Romx6_BC-28" style="edgeStyle=orthogonalEdgeStyle;rounded=0;html=1;exitX=0.5;exitY=1;endArrow=none;endFill=0;jettySize=auto;orthogonalLoop=1;exitDx=0;exitDy=0;startArrow=oval;startFill=1;entryX=0.75;entryY=0;entryDx=0;entryDy=0;" edge="1" parent="WKeq32_BB5dezChJn7f3-1" source="d3mtFlWCItd1Romx6_BC-6" target="d3mtFlWCItd1Romx6_BC-5">
          <mxGeometry relative="1" as="geometry" />
        </mxCell>
        <mxCell id="d3mtFlWCItd1Romx6_BC-29" style="edgeStyle=orthogonalEdgeStyle;rounded=0;html=1;exitX=0.5;exitY=1;entryX=0;entryY=0.5;jettySize=auto;orthogonalLoop=1;endArrow=oval;endFill=1;exitDx=0;exitDy=0;entryDx=0;entryDy=0;" edge="1" parent="WKeq32_BB5dezChJn7f3-1" source="d3mtFlWCItd1Romx6_BC-5" target="d3mtFlWCItd1Romx6_BC-26">
          <mxGeometry relative="1" as="geometry" />
        </mxCell>
        <mxCell id="d3mtFlWCItd1Romx6_BC-30" value="" style="rounded=0;whiteSpace=wrap;html=1;strokeColor=#000000;gradientColor=#ffffff;align=left;" vertex="1" parent="WKeq32_BB5dezChJn7f3-1">
          <mxGeometry x="1875" y="686" width="186" height="32" as="geometry" />
        </mxCell>
        <mxCell id="d3mtFlWCItd1Romx6_BC-31" value="«entity»&lt;br&gt;&lt;b&gt;Referenceable&lt;/b&gt;" style="html=1;strokeColor=#d6b656;align=center;fillColor=#fff2cc;gradientColor=#ffd966;" vertex="1" parent="WKeq32_BB5dezChJn7f3-1">
          <mxGeometry x="1243" y="120" width="180" height="50" as="geometry" />
        </mxCell>
        <mxCell id="d3mtFlWCItd1Romx6_BC-32" style="edgeStyle=orthogonalEdgeStyle;rounded=0;html=1;exitX=0.25;exitY=0;endArrow=oval;endFill=1;jettySize=auto;orthogonalLoop=1;exitDx=0;exitDy=0;" edge="1" parent="WKeq32_BB5dezChJn7f3-1" source="d3mtFlWCItd1Romx6_BC-5" target="d3mtFlWCItd1Romx6_BC-31">
          <mxGeometry relative="1" as="geometry">
            <mxPoint x="1334" y="171" as="targetPoint" />
          </mxGeometry>
        </mxCell>
        <mxCell id="p0uRSspzMt8wWXsumDOr-0" value="" style="endArrow=none;dashed=1;html=1;entryX=0.5;entryY=0;entryDx=0;entryDy=0;exitX=0.5;exitY=1;exitDx=0;exitDy=0;" edge="1" parent="WKeq32_BB5dezChJn7f3-1" source="AdnE94B2kkjTDJjHpTNt-6">
          <mxGeometry width="50" height="50" relative="1" as="geometry">
            <mxPoint x="485.75" y="296" as="sourcePoint" />
            <mxPoint x="485.5" y="345" as="targetPoint" />
          </mxGeometry>
        </mxCell>
        <mxCell id="p0uRSspzMt8wWXsumDOr-2" style="edgeStyle=orthogonalEdgeStyle;rounded=0;orthogonalLoop=1;jettySize=auto;html=1;exitX=0.5;exitY=0;exitDx=0;exitDy=0;endArrow=block;endFill=0;startSize=6;endSize=15;" edge="1" parent="WKeq32_BB5dezChJn7f3-1" target="p0uRSspzMt8wWXsumDOr-3" source="AdnE94B2kkjTDJjHpTNt-2">
          <mxGeometry relative="1" as="geometry">
            <mxPoint x="803" y="441.5" as="sourcePoint" />
          </mxGeometry>
        </mxCell>
        <mxCell id="p0uRSspzMt8wWXsumDOr-3" value="«entity»&lt;br&gt;&lt;b&gt;PersonRole&lt;/b&gt;" style="html=1;strokeColor=#b85450;align=center;fillColor=#f8cecc;gradientColor=#FF0080;" vertex="1" parent="WKeq32_BB5dezChJn7f3-1">
          <mxGeometry x="703" y="415.5" width="180" height="50" as="geometry" />
        </mxCell>
      </root>
    </mxGraphModel>
  </diagram>
  <diagram id="HZrvVjjE4ANykjIvGvKZ" name="0720-Information-Supply-Chains">
    <mxGraphModel dx="1242" dy="833" grid="1" gridSize="10" guides="1" tooltips="1" connect="1" arrows="1" fold="1" page="1" pageScale="1" pageWidth="827" pageHeight="1169" math="0" shadow="0">
      <root>
        <mxCell id="zVmAmzPXzeWF6cD0m7T5-0" />
        <mxCell id="zVmAmzPXzeWF6cD0m7T5-1" parent="zVmAmzPXzeWF6cD0m7T5-0" />
        <mxCell id="qhP3MTUpAqKOTp0r8BQ7-0" value="" style="rounded=0;whiteSpace=wrap;html=1;align=left;fillColor=#f5f5f5;strokeColor=#666666;gradientColor=#b3b3b3;" parent="zVmAmzPXzeWF6cD0m7T5-1" vertex="1">
          <mxGeometry x="13" y="37" width="60" height="20" as="geometry" />
        </mxCell>
        <mxCell id="qhP3MTUpAqKOTp0r8BQ7-1" value="0720 - Information Supply Chains" style="rounded=0;whiteSpace=wrap;html=1;align=left;verticalAlign=top;" parent="zVmAmzPXzeWF6cD0m7T5-1" vertex="1">
          <mxGeometry x="13" y="57" width="1060" height="770" as="geometry" />
        </mxCell>
        <mxCell id="qhP3MTUpAqKOTp0r8BQ7-2" value="«entity»&lt;br&gt;&lt;b&gt;Referenceable&lt;/b&gt;" style="html=1;strokeColor=#d6b656;align=center;fillColor=#fff2cc;gradientColor=#ffd966;" parent="zVmAmzPXzeWF6cD0m7T5-1" vertex="1">
          <mxGeometry x="335.5" y="240" width="240" height="50" as="geometry" />
        </mxCell>
        <mxCell id="qhP3MTUpAqKOTp0r8BQ7-3" style="edgeStyle=orthogonalEdgeStyle;rounded=0;html=1;exitX=0.5;exitY=0;dashed=1;endArrow=none;endFill=0;jettySize=auto;orthogonalLoop=1;exitDx=0;exitDy=0;" parent="zVmAmzPXzeWF6cD0m7T5-1" source="qhP3MTUpAqKOTp0r8BQ7-4" edge="1">
          <mxGeometry relative="1" as="geometry">
            <mxPoint x="595.5" y="479.5" as="targetPoint" />
            <Array as="points">
              <mxPoint x="685.5" y="479.5" />
            </Array>
          </mxGeometry>
        </mxCell>
        <mxCell id="qhP3MTUpAqKOTp0r8BQ7-4" value="«relationship»&lt;br&gt;&lt;b&gt;InformationSupplyChainComposition&lt;/b&gt;" style="html=1;strokeColor=#666666;align=center;fillColor=#f5f5f5;gradientColor=#b3b3b3;" parent="zVmAmzPXzeWF6cD0m7T5-1" vertex="1">
          <mxGeometry x="562.5" y="589.5" width="246" height="50" as="geometry" />
        </mxCell>
        <mxCell id="qhP3MTUpAqKOTp0r8BQ7-5" value="" style="rounded=0;whiteSpace=wrap;html=1;strokeColor=#000000;gradientColor=#ffffff;align=left;" parent="zVmAmzPXzeWF6cD0m7T5-1" vertex="1">
          <mxGeometry x="562.5" y="639.5" width="246.5" height="33" as="geometry" />
        </mxCell>
        <mxCell id="3gLZ6mmRimafU4ibgjGF-0" style="edgeStyle=orthogonalEdgeStyle;rounded=0;orthogonalLoop=1;jettySize=auto;html=1;exitX=0.5;exitY=0;exitDx=0;exitDy=0;endArrow=block;endFill=0;startSize=6;endSize=19;" parent="zVmAmzPXzeWF6cD0m7T5-1" source="qhP3MTUpAqKOTp0r8BQ7-8" target="qhP3MTUpAqKOTp0r8BQ7-2" edge="1">
          <mxGeometry relative="1" as="geometry" />
        </mxCell>
        <mxCell id="qhP3MTUpAqKOTp0r8BQ7-8" value="«entity»&lt;br&gt;&lt;b&gt;InformationSupplyChain&lt;/b&gt;" style="html=1;strokeColor=#666666;align=center;fillColor=#f5f5f5;gradientColor=#b3b3b3;" parent="zVmAmzPXzeWF6cD0m7T5-1" vertex="1">
          <mxGeometry x="335.5" y="410" width="240" height="50" as="geometry" />
        </mxCell>
        <mxCell id="qhP3MTUpAqKOTp0r8BQ7-10" value="scope : string&lt;br&gt;purposes : array&amp;lt;string&amp;gt;&lt;br&gt;&lt;div style=&quot;text-align: left&quot;&gt;&lt;/div&gt;&lt;div&gt;integrationStyle : string&lt;br&gt;estimatedVolumetrics : map&amp;lt;string, string&amp;gt;&lt;/div&gt;" style="rounded=0;whiteSpace=wrap;html=1;strokeColor=#000000;gradientColor=#ffffff;align=left;" parent="zVmAmzPXzeWF6cD0m7T5-1" vertex="1">
          <mxGeometry x="335.5" y="460" width="240" height="70" as="geometry" />
        </mxCell>
        <mxCell id="qhP3MTUpAqKOTp0r8BQ7-11" value="informationSupplyChains" style="text;html=1;resizable=0;points=[];autosize=1;align=center;verticalAlign=top;spacingTop=-4;" parent="zVmAmzPXzeWF6cD0m7T5-1" vertex="1">
          <mxGeometry x="570.5" y="410" width="150" height="20" as="geometry" />
        </mxCell>
        <mxCell id="qhP3MTUpAqKOTp0r8BQ7-12" value="*" style="text;html=1;resizable=0;points=[];autosize=1;align=center;verticalAlign=top;spacingTop=-4;" parent="zVmAmzPXzeWF6cD0m7T5-1" vertex="1">
          <mxGeometry x="575.5" y="440" width="15" height="14" as="geometry" />
        </mxCell>
        <mxCell id="qhP3MTUpAqKOTp0r8BQ7-13" value="*" style="text;html=1;resizable=0;points=[];autosize=1;align=center;verticalAlign=top;spacingTop=-4;" parent="zVmAmzPXzeWF6cD0m7T5-1" vertex="1">
          <mxGeometry x="575.5" y="507.75" width="15" height="14" as="geometry" />
        </mxCell>
        <mxCell id="qhP3MTUpAqKOTp0r8BQ7-14" value="segments" style="text;html=1;resizable=0;points=[];autosize=1;align=center;verticalAlign=top;spacingTop=-4;" parent="zVmAmzPXzeWF6cD0m7T5-1" vertex="1">
          <mxGeometry x="575.5" y="521.75" width="70" height="20" as="geometry" />
        </mxCell>
        <mxCell id="qhP3MTUpAqKOTp0r8BQ7-9" style="edgeStyle=orthogonalEdgeStyle;rounded=0;html=1;exitX=1;exitY=0.589;entryX=1;entryY=0.5;endArrow=none;endFill=0;jettySize=auto;orthogonalLoop=1;entryDx=0;entryDy=0;exitDx=0;exitDy=0;startArrow=oval;startFill=1;exitPerimeter=0;" parent="zVmAmzPXzeWF6cD0m7T5-1" source="qhP3MTUpAqKOTp0r8BQ7-10" target="qhP3MTUpAqKOTp0r8BQ7-8" edge="1">
          <mxGeometry relative="1" as="geometry" />
        </mxCell>
        <mxCell id="3u2wjPxngJ-5bQF0hgFU-0" style="edgeStyle=orthogonalEdgeStyle;rounded=0;html=1;exitX=0;exitY=0.5;dashed=1;endArrow=none;endFill=0;jettySize=auto;orthogonalLoop=1;exitDx=0;exitDy=0;" parent="zVmAmzPXzeWF6cD0m7T5-1" source="3u2wjPxngJ-5bQF0hgFU-1" edge="1">
          <mxGeometry relative="1" as="geometry">
            <mxPoint x="613.75" y="270" as="targetPoint" />
            <Array as="points">
              <mxPoint x="674" y="260" />
              <mxPoint x="614" y="260" />
            </Array>
          </mxGeometry>
        </mxCell>
        <mxCell id="3u2wjPxngJ-5bQF0hgFU-1" value="«relationship»&lt;br&gt;&lt;b&gt;InformationSupplyChainLink&lt;/b&gt;" style="html=1;strokeColor=#666666;align=center;fillColor=#f5f5f5;gradientColor=#b3b3b3;" parent="zVmAmzPXzeWF6cD0m7T5-1" vertex="1">
          <mxGeometry x="673.75" y="219" width="246" height="50" as="geometry" />
        </mxCell>
        <mxCell id="3u2wjPxngJ-5bQF0hgFU-2" value="label : string&lt;br&gt;description : string" style="rounded=0;whiteSpace=wrap;html=1;strokeColor=#000000;gradientColor=#ffffff;align=left;" parent="zVmAmzPXzeWF6cD0m7T5-1" vertex="1">
          <mxGeometry x="673.75" y="269" width="246.5" height="51" as="geometry" />
        </mxCell>
        <mxCell id="3u2wjPxngJ-5bQF0hgFU-3" style="edgeStyle=orthogonalEdgeStyle;rounded=0;orthogonalLoop=1;jettySize=auto;html=1;exitX=1;exitY=0.75;exitDx=0;exitDy=0;entryX=1;entryY=0.25;entryDx=0;entryDy=0;endArrow=none;endFill=0;startArrow=oval;startFill=1;" parent="zVmAmzPXzeWF6cD0m7T5-1" source="qhP3MTUpAqKOTp0r8BQ7-2" target="qhP3MTUpAqKOTp0r8BQ7-2" edge="1">
          <mxGeometry relative="1" as="geometry">
            <Array as="points">
              <mxPoint x="613.75" y="278" />
              <mxPoint x="613.75" y="253" />
            </Array>
          </mxGeometry>
        </mxCell>
        <mxCell id="3u2wjPxngJ-5bQF0hgFU-4" value="*" style="text;html=1;align=center;verticalAlign=middle;resizable=0;points=[];autosize=1;strokeColor=none;fillColor=none;" parent="zVmAmzPXzeWF6cD0m7T5-1" vertex="1">
          <mxGeometry x="575.5" y="219" width="30" height="30" as="geometry" />
        </mxCell>
        <mxCell id="3u2wjPxngJ-5bQF0hgFU-5" value="*" style="text;html=1;align=center;verticalAlign=middle;resizable=0;points=[];autosize=1;strokeColor=none;fillColor=none;" parent="zVmAmzPXzeWF6cD0m7T5-1" vertex="1">
          <mxGeometry x="575.5" y="281" width="30" height="30" as="geometry" />
        </mxCell>
        <mxCell id="3u2wjPxngJ-5bQF0hgFU-6" value="supplyfrom" style="text;html=1;align=center;verticalAlign=middle;resizable=0;points=[];autosize=1;strokeColor=none;fillColor=none;" parent="zVmAmzPXzeWF6cD0m7T5-1" vertex="1">
          <mxGeometry x="550.5" y="200" width="80" height="30" as="geometry" />
        </mxCell>
        <mxCell id="3u2wjPxngJ-5bQF0hgFU-7" value="supplyTo" style="text;html=1;align=center;verticalAlign=middle;resizable=0;points=[];autosize=1;strokeColor=none;fillColor=none;" parent="zVmAmzPXzeWF6cD0m7T5-1" vertex="1">
          <mxGeometry x="555.5" y="302" width="70" height="30" as="geometry" />
        </mxCell>
      </root>
    </mxGraphModel>
  </diagram>
  <diagram id="1C9Y4h7KHehtQCDG-Drg" name="example">
    <mxGraphModel dx="2639" dy="1056" grid="1" gridSize="10" guides="1" tooltips="1" connect="1" arrows="1" fold="1" page="1" pageScale="1" pageWidth="827" pageHeight="1169" math="0" shadow="0">
      <root>
        <mxCell id="0" />
        <mxCell id="1" parent="0" />
        <mxCell id="e-V-g8x9VqO9ZH_dhTw7-19" style="edgeStyle=orthogonalEdgeStyle;rounded=0;orthogonalLoop=1;jettySize=auto;html=1;exitX=0.5;exitY=1;exitDx=0;exitDy=0;entryX=0.5;entryY=0;entryDx=0;entryDy=0;" parent="1" source="e-V-g8x9VqO9ZH_dhTw7-1" target="e-V-g8x9VqO9ZH_dhTw7-7" edge="1">
          <mxGeometry relative="1" as="geometry" />
        </mxCell>
        <mxCell id="e-V-g8x9VqO9ZH_dhTw7-20" style="edgeStyle=orthogonalEdgeStyle;rounded=0;orthogonalLoop=1;jettySize=auto;html=1;exitX=0.5;exitY=1;exitDx=0;exitDy=0;" parent="1" source="e-V-g8x9VqO9ZH_dhTw7-1" target="e-V-g8x9VqO9ZH_dhTw7-9" edge="1">
          <mxGeometry relative="1" as="geometry" />
        </mxCell>
        <mxCell id="e-V-g8x9VqO9ZH_dhTw7-1" value="Drop Foot Clinical Trial&lt;br&gt;Weekly Measurements" style="rounded=0;whiteSpace=wrap;html=1;fillColor=#f5f5f5;fontColor=#333333;strokeColor=#666666;" parent="1" vertex="1">
          <mxGeometry x="365" y="610" width="166" height="60" as="geometry" />
        </mxCell>
        <mxCell id="e-V-g8x9VqO9ZH_dhTw7-2" value="InformationSupplyChain" style="rounded=0;whiteSpace=wrap;html=1;fontStyle=2;fillColor=#f5f5f5;fontColor=#333333;strokeColor=#666666;" parent="1" vertex="1">
          <mxGeometry x="365" y="580" width="166" height="30" as="geometry" />
        </mxCell>
        <mxCell id="aMksF9YB-8EwaT3wIAzR-49" style="edgeStyle=orthogonalEdgeStyle;rounded=0;orthogonalLoop=1;jettySize=auto;html=1;exitX=0.5;exitY=1;exitDx=0;exitDy=0;dashed=1;" parent="1" source="e-V-g8x9VqO9ZH_dhTw7-3" target="aMksF9YB-8EwaT3wIAzR-44" edge="1">
          <mxGeometry relative="1" as="geometry" />
        </mxCell>
        <mxCell id="e-V-g8x9VqO9ZH_dhTw7-3" value="Data Lake" style="rounded=0;whiteSpace=wrap;html=1;fillColor=#f5f5f5;fontColor=#333333;strokeColor=#666666;" parent="1" vertex="1">
          <mxGeometry x="1050" y="930" width="130" height="60" as="geometry" />
        </mxCell>
        <mxCell id="e-V-g8x9VqO9ZH_dhTw7-4" value="Collection" style="rounded=0;whiteSpace=wrap;html=1;fontStyle=2;fillColor=#fff2cc;strokeColor=#d6b656;" parent="1" vertex="1">
          <mxGeometry x="-70" y="900" width="120" height="30" as="geometry" />
        </mxCell>
        <mxCell id="e-V-g8x9VqO9ZH_dhTw7-12" style="edgeStyle=orthogonalEdgeStyle;rounded=0;orthogonalLoop=1;jettySize=auto;html=1;exitX=0.5;exitY=1;exitDx=0;exitDy=0;entryX=0.5;entryY=0;entryDx=0;entryDy=0;" parent="1" source="e-V-g8x9VqO9ZH_dhTw7-5" target="e-V-g8x9VqO9ZH_dhTw7-10" edge="1">
          <mxGeometry relative="1" as="geometry" />
        </mxCell>
        <mxCell id="e-V-g8x9VqO9ZH_dhTw7-21" style="edgeStyle=orthogonalEdgeStyle;rounded=0;orthogonalLoop=1;jettySize=auto;html=1;exitX=0.5;exitY=0;exitDx=0;exitDy=0;entryX=0;entryY=0.5;entryDx=0;entryDy=0;" parent="1" source="e-V-g8x9VqO9ZH_dhTw7-4" target="e-V-g8x9VqO9ZH_dhTw7-6" edge="1">
          <mxGeometry relative="1" as="geometry" />
        </mxCell>
        <mxCell id="e-V-g8x9VqO9ZH_dhTw7-33" style="edgeStyle=orthogonalEdgeStyle;rounded=0;orthogonalLoop=1;jettySize=auto;html=1;exitX=1;exitY=0.5;exitDx=0;exitDy=0;" parent="1" source="e-V-g8x9VqO9ZH_dhTw7-5" target="e-V-g8x9VqO9ZH_dhTw7-29" edge="1">
          <mxGeometry relative="1" as="geometry" />
        </mxCell>
        <mxCell id="e-V-g8x9VqO9ZH_dhTw7-5" value="Hospitals in Drop Foot Clinical Trial&amp;nbsp;" style="rounded=0;whiteSpace=wrap;html=1;fillColor=#fff2cc;strokeColor=#d6b656;" parent="1" vertex="1">
          <mxGeometry x="-70" y="930" width="120" height="60" as="geometry" />
        </mxCell>
        <mxCell id="e-V-g8x9VqO9ZH_dhTw7-22" style="edgeStyle=orthogonalEdgeStyle;rounded=0;orthogonalLoop=1;jettySize=auto;html=1;exitX=1;exitY=0.5;exitDx=0;exitDy=0;entryX=0.25;entryY=0;entryDx=0;entryDy=0;" parent="1" source="e-V-g8x9VqO9ZH_dhTw7-6" target="e-V-g8x9VqO9ZH_dhTw7-32" edge="1">
          <mxGeometry relative="1" as="geometry" />
        </mxCell>
        <mxCell id="e-V-g8x9VqO9ZH_dhTw7-34" style="edgeStyle=orthogonalEdgeStyle;rounded=0;orthogonalLoop=1;jettySize=auto;html=1;exitX=0.5;exitY=1;exitDx=0;exitDy=0;entryX=0.5;entryY=0;entryDx=0;entryDy=0;" parent="1" source="e-V-g8x9VqO9ZH_dhTw7-6" target="e-V-g8x9VqO9ZH_dhTw7-30" edge="1">
          <mxGeometry relative="1" as="geometry" />
        </mxCell>
        <mxCell id="e-V-g8x9VqO9ZH_dhTw7-6" value="From Hospital to Landing Area" style="rounded=0;whiteSpace=wrap;html=1;fillColor=#f5f5f5;fontColor=#333333;strokeColor=#666666;" parent="1" vertex="1">
          <mxGeometry x="90" y="770" width="190" height="60" as="geometry" />
        </mxCell>
        <mxCell id="e-V-g8x9VqO9ZH_dhTw7-7" value="InformationSupplyChain" style="rounded=0;whiteSpace=wrap;html=1;fontStyle=2;fillColor=#f5f5f5;fontColor=#333333;strokeColor=#666666;" parent="1" vertex="1">
          <mxGeometry x="90" y="740" width="190" height="30" as="geometry" />
        </mxCell>
        <mxCell id="e-V-g8x9VqO9ZH_dhTw7-23" style="edgeStyle=orthogonalEdgeStyle;rounded=0;orthogonalLoop=1;jettySize=auto;html=1;exitX=1;exitY=0.5;exitDx=0;exitDy=0;entryX=0.5;entryY=0;entryDx=0;entryDy=0;" parent="1" source="e-V-g8x9VqO9ZH_dhTw7-8" target="e-V-g8x9VqO9ZH_dhTw7-24" edge="1">
          <mxGeometry relative="1" as="geometry" />
        </mxCell>
        <mxCell id="e-V-g8x9VqO9ZH_dhTw7-42" style="edgeStyle=orthogonalEdgeStyle;rounded=0;orthogonalLoop=1;jettySize=auto;html=1;exitX=0.75;exitY=1;exitDx=0;exitDy=0;" parent="1" source="e-V-g8x9VqO9ZH_dhTw7-8" target="e-V-g8x9VqO9ZH_dhTw7-37" edge="1">
          <mxGeometry relative="1" as="geometry" />
        </mxCell>
        <mxCell id="e-V-g8x9VqO9ZH_dhTw7-47" style="edgeStyle=orthogonalEdgeStyle;rounded=0;orthogonalLoop=1;jettySize=auto;html=1;exitX=0.25;exitY=1;exitDx=0;exitDy=0;entryX=0.5;entryY=0;entryDx=0;entryDy=0;" parent="1" source="e-V-g8x9VqO9ZH_dhTw7-8" target="e-V-g8x9VqO9ZH_dhTw7-44" edge="1">
          <mxGeometry relative="1" as="geometry" />
        </mxCell>
        <mxCell id="e-V-g8x9VqO9ZH_dhTw7-8" value="From Landing Area to Data Lake" style="rounded=0;whiteSpace=wrap;html=1;fillColor=#f5f5f5;fontColor=#333333;strokeColor=#666666;" parent="1" vertex="1">
          <mxGeometry x="670" y="770" width="190" height="60" as="geometry" />
        </mxCell>
        <mxCell id="e-V-g8x9VqO9ZH_dhTw7-9" value="InformationSupplyChain" style="rounded=0;whiteSpace=wrap;html=1;fontStyle=2;fillColor=#f5f5f5;fontColor=#333333;strokeColor=#666666;" parent="1" vertex="1">
          <mxGeometry x="670" y="740" width="190" height="30" as="geometry" />
        </mxCell>
        <mxCell id="e-V-g8x9VqO9ZH_dhTw7-10" value="Organization" style="rounded=0;whiteSpace=wrap;html=1;fontStyle=2;fillColor=#d5e8d4;strokeColor=#82b366;" parent="1" vertex="1">
          <mxGeometry x="-90" y="1045" width="120" height="30" as="geometry" />
        </mxCell>
        <mxCell id="e-V-g8x9VqO9ZH_dhTw7-11" value="Old Market Hospital" style="rounded=0;whiteSpace=wrap;html=1;fillColor=#d5e8d4;strokeColor=#82b366;" parent="1" vertex="1">
          <mxGeometry x="-90" y="1075" width="120" height="60" as="geometry" />
        </mxCell>
        <mxCell id="e-V-g8x9VqO9ZH_dhTw7-13" style="edgeStyle=orthogonalEdgeStyle;rounded=0;orthogonalLoop=1;jettySize=auto;html=1;exitX=0.5;exitY=1;exitDx=0;exitDy=0;entryX=0.5;entryY=0;entryDx=0;entryDy=0;" parent="1" source="e-V-g8x9VqO9ZH_dhTw7-5" target="e-V-g8x9VqO9ZH_dhTw7-14" edge="1">
          <mxGeometry relative="1" as="geometry">
            <mxPoint y="1000" as="sourcePoint" />
          </mxGeometry>
        </mxCell>
        <mxCell id="e-V-g8x9VqO9ZH_dhTw7-14" value="Organization" style="rounded=0;whiteSpace=wrap;html=1;fontStyle=2;fillColor=#d5e8d4;strokeColor=#82b366;" parent="1" vertex="1">
          <mxGeometry x="-80" y="1055" width="120" height="30" as="geometry" />
        </mxCell>
        <mxCell id="e-V-g8x9VqO9ZH_dhTw7-15" value="Old Market Hospital" style="rounded=0;whiteSpace=wrap;html=1;fillColor=#d5e8d4;strokeColor=#82b366;" parent="1" vertex="1">
          <mxGeometry x="-80" y="1085" width="120" height="60" as="geometry" />
        </mxCell>
        <mxCell id="e-V-g8x9VqO9ZH_dhTw7-16" style="edgeStyle=orthogonalEdgeStyle;rounded=0;orthogonalLoop=1;jettySize=auto;html=1;entryX=0.5;entryY=0;entryDx=0;entryDy=0;" parent="1" source="e-V-g8x9VqO9ZH_dhTw7-5" target="e-V-g8x9VqO9ZH_dhTw7-17" edge="1">
          <mxGeometry relative="1" as="geometry">
            <mxPoint x="10" y="1010" as="sourcePoint" />
          </mxGeometry>
        </mxCell>
        <mxCell id="e-V-g8x9VqO9ZH_dhTw7-17" value="Organization" style="rounded=0;whiteSpace=wrap;html=1;fontStyle=2;fillColor=#d5e8d4;strokeColor=#82b366;" parent="1" vertex="1">
          <mxGeometry x="-70" y="1065" width="120" height="30" as="geometry" />
        </mxCell>
        <mxCell id="aMksF9YB-8EwaT3wIAzR-18" style="edgeStyle=orthogonalEdgeStyle;rounded=0;orthogonalLoop=1;jettySize=auto;html=1;exitX=1;exitY=0.25;exitDx=0;exitDy=0;" parent="1" source="e-V-g8x9VqO9ZH_dhTw7-18" target="e-V-g8x9VqO9ZH_dhTw7-50" edge="1">
          <mxGeometry relative="1" as="geometry" />
        </mxCell>
        <mxCell id="e-V-g8x9VqO9ZH_dhTw7-18" value="Old Market Hospital" style="rounded=0;whiteSpace=wrap;html=1;fillColor=#d5e8d4;strokeColor=#82b366;" parent="1" vertex="1">
          <mxGeometry x="-70" y="1095" width="120" height="60" as="geometry" />
        </mxCell>
        <mxCell id="e-V-g8x9VqO9ZH_dhTw7-24" value="SolutionComponent" style="rounded=0;whiteSpace=wrap;html=1;fontStyle=2;fillColor=#f5f5f5;fontColor=#333333;strokeColor=#666666;" parent="1" vertex="1">
          <mxGeometry x="1050" y="900" width="130" height="30" as="geometry" />
        </mxCell>
        <mxCell id="e-V-g8x9VqO9ZH_dhTw7-25" value="InformationSupplyChainComposition" style="text;html=1;align=center;verticalAlign=middle;resizable=0;points=[];autosize=1;strokeColor=none;fillColor=none;fontStyle=2" parent="1" vertex="1">
          <mxGeometry x="335" y="705" width="220" height="30" as="geometry" />
        </mxCell>
        <mxCell id="e-V-g8x9VqO9ZH_dhTw7-26" value="InformationSupply&lt;br&gt;ChainLink" style="text;html=1;align=center;verticalAlign=middle;resizable=0;points=[];autosize=1;strokeColor=none;fillColor=none;fontStyle=2" parent="1" vertex="1">
          <mxGeometry x="-40" y="760" width="120" height="40" as="geometry" />
        </mxCell>
        <mxCell id="e-V-g8x9VqO9ZH_dhTw7-27" value="InformationSupply&lt;br&gt;ChainLink" style="text;html=1;align=center;verticalAlign=middle;resizable=0;points=[];autosize=1;strokeColor=none;fillColor=none;fontStyle=2" parent="1" vertex="1">
          <mxGeometry x="280" y="760" width="120" height="40" as="geometry" />
        </mxCell>
        <mxCell id="e-V-g8x9VqO9ZH_dhTw7-28" value="InformationSupply&lt;br&gt;ChainLink" style="text;html=1;align=center;verticalAlign=middle;resizable=0;points=[];autosize=1;strokeColor=none;fillColor=none;fontStyle=2" parent="1" vertex="1">
          <mxGeometry x="860" y="760" width="120" height="40" as="geometry" />
        </mxCell>
        <mxCell id="e-V-g8x9VqO9ZH_dhTw7-39" style="edgeStyle=orthogonalEdgeStyle;rounded=0;orthogonalLoop=1;jettySize=auto;html=1;exitX=1;exitY=0.5;exitDx=0;exitDy=0;" parent="1" source="e-V-g8x9VqO9ZH_dhTw7-29" target="e-V-g8x9VqO9ZH_dhTw7-31" edge="1">
          <mxGeometry relative="1" as="geometry" />
        </mxCell>
        <mxCell id="e-V-g8x9VqO9ZH_dhTw7-52" style="edgeStyle=orthogonalEdgeStyle;rounded=0;orthogonalLoop=1;jettySize=auto;html=1;exitX=0.5;exitY=1;exitDx=0;exitDy=0;" parent="1" source="e-V-g8x9VqO9ZH_dhTw7-29" target="e-V-g8x9VqO9ZH_dhTw7-51" edge="1">
          <mxGeometry relative="1" as="geometry" />
        </mxCell>
        <mxCell id="e-V-g8x9VqO9ZH_dhTw7-29" value="FTP" style="rounded=0;whiteSpace=wrap;html=1;fillColor=#f5f5f5;fontColor=#333333;strokeColor=#666666;" parent="1" vertex="1">
          <mxGeometry x="120" y="930" width="130" height="60" as="geometry" />
        </mxCell>
        <mxCell id="e-V-g8x9VqO9ZH_dhTw7-30" value="SolutionComponent" style="rounded=0;whiteSpace=wrap;html=1;fontStyle=2;fillColor=#f5f5f5;fontColor=#333333;strokeColor=#666666;" parent="1" vertex="1">
          <mxGeometry x="120" y="900" width="130" height="30" as="geometry" />
        </mxCell>
        <mxCell id="e-V-g8x9VqO9ZH_dhTw7-40" style="edgeStyle=orthogonalEdgeStyle;rounded=0;orthogonalLoop=1;jettySize=auto;html=1;exitX=1;exitY=0.5;exitDx=0;exitDy=0;entryX=0;entryY=0.5;entryDx=0;entryDy=0;" parent="1" source="e-V-g8x9VqO9ZH_dhTw7-31" target="e-V-g8x9VqO9ZH_dhTw7-43" edge="1">
          <mxGeometry relative="1" as="geometry" />
        </mxCell>
        <mxCell id="aMksF9YB-8EwaT3wIAzR-10" style="edgeStyle=orthogonalEdgeStyle;rounded=0;orthogonalLoop=1;jettySize=auto;html=1;exitX=0.5;exitY=1;exitDx=0;exitDy=0;entryX=0.5;entryY=0;entryDx=0;entryDy=0;" parent="1" source="e-V-g8x9VqO9ZH_dhTw7-31" target="aMksF9YB-8EwaT3wIAzR-9" edge="1">
          <mxGeometry relative="1" as="geometry" />
        </mxCell>
        <mxCell id="e-V-g8x9VqO9ZH_dhTw7-31" value="LandingArea" style="rounded=0;whiteSpace=wrap;html=1;fillColor=#f5f5f5;fontColor=#333333;strokeColor=#666666;" parent="1" vertex="1">
          <mxGeometry x="315" y="930" width="130" height="60" as="geometry" />
        </mxCell>
        <mxCell id="e-V-g8x9VqO9ZH_dhTw7-38" style="edgeStyle=orthogonalEdgeStyle;rounded=0;orthogonalLoop=1;jettySize=auto;html=1;exitX=0.75;exitY=0;exitDx=0;exitDy=0;entryX=0;entryY=0.5;entryDx=0;entryDy=0;" parent="1" source="e-V-g8x9VqO9ZH_dhTw7-32" target="e-V-g8x9VqO9ZH_dhTw7-8" edge="1">
          <mxGeometry relative="1" as="geometry" />
        </mxCell>
        <mxCell id="e-V-g8x9VqO9ZH_dhTw7-32" value="SolutionComponent" style="rounded=0;whiteSpace=wrap;html=1;fontStyle=2;fillColor=#f5f5f5;fontColor=#333333;strokeColor=#666666;" parent="1" vertex="1">
          <mxGeometry x="315" y="900" width="130" height="30" as="geometry" />
        </mxCell>
        <mxCell id="e-V-g8x9VqO9ZH_dhTw7-35" value="ImplementedBy" style="text;html=1;align=center;verticalAlign=middle;resizable=0;points=[];autosize=1;strokeColor=none;fillColor=none;fontStyle=2" parent="1" vertex="1">
          <mxGeometry x="185" y="830" width="110" height="30" as="geometry" />
        </mxCell>
        <mxCell id="e-V-g8x9VqO9ZH_dhTw7-41" style="edgeStyle=orthogonalEdgeStyle;rounded=0;orthogonalLoop=1;jettySize=auto;html=1;exitX=1;exitY=0.5;exitDx=0;exitDy=0;" parent="1" source="e-V-g8x9VqO9ZH_dhTw7-36" target="e-V-g8x9VqO9ZH_dhTw7-3" edge="1">
          <mxGeometry relative="1" as="geometry" />
        </mxCell>
        <mxCell id="aMksF9YB-8EwaT3wIAzR-47" style="edgeStyle=orthogonalEdgeStyle;rounded=0;orthogonalLoop=1;jettySize=auto;html=1;exitX=0.5;exitY=1;exitDx=0;exitDy=0;" parent="1" source="e-V-g8x9VqO9ZH_dhTw7-36" target="aMksF9YB-8EwaT3wIAzR-42" edge="1">
          <mxGeometry relative="1" as="geometry" />
        </mxCell>
        <mxCell id="e-V-g8x9VqO9ZH_dhTw7-36" value="Onboarding&lt;br&gt;Process" style="rounded=0;whiteSpace=wrap;html=1;fillColor=#f5f5f5;fontColor=#333333;strokeColor=#666666;" parent="1" vertex="1">
          <mxGeometry x="840" y="930" width="130" height="60" as="geometry" />
        </mxCell>
        <mxCell id="e-V-g8x9VqO9ZH_dhTw7-37" value="SolutionComponent" style="rounded=0;whiteSpace=wrap;html=1;fontStyle=2;fillColor=#f5f5f5;fontColor=#333333;strokeColor=#666666;" parent="1" vertex="1">
          <mxGeometry x="840" y="900" width="130" height="30" as="geometry" />
        </mxCell>
        <mxCell id="e-V-g8x9VqO9ZH_dhTw7-45" style="edgeStyle=orthogonalEdgeStyle;rounded=0;orthogonalLoop=1;jettySize=auto;html=1;exitX=1;exitY=0.5;exitDx=0;exitDy=0;entryX=0;entryY=0.5;entryDx=0;entryDy=0;" parent="1" source="e-V-g8x9VqO9ZH_dhTw7-43" target="e-V-g8x9VqO9ZH_dhTw7-36" edge="1">
          <mxGeometry relative="1" as="geometry" />
        </mxCell>
        <mxCell id="aMksF9YB-8EwaT3wIAzR-37" style="edgeStyle=orthogonalEdgeStyle;rounded=0;orthogonalLoop=1;jettySize=auto;html=1;exitX=0.25;exitY=1;exitDx=0;exitDy=0;" parent="1" source="e-V-g8x9VqO9ZH_dhTw7-43" target="aMksF9YB-8EwaT3wIAzR-30" edge="1">
          <mxGeometry relative="1" as="geometry" />
        </mxCell>
        <mxCell id="aMksF9YB-8EwaT3wIAzR-38" style="edgeStyle=orthogonalEdgeStyle;rounded=0;orthogonalLoop=1;jettySize=auto;html=1;exitX=0.75;exitY=1;exitDx=0;exitDy=0;" parent="1" source="e-V-g8x9VqO9ZH_dhTw7-43" target="aMksF9YB-8EwaT3wIAzR-36" edge="1">
          <mxGeometry relative="1" as="geometry" />
        </mxCell>
        <mxCell id="e-V-g8x9VqO9ZH_dhTw7-43" value="Monitoring&lt;br&gt;Process" style="rounded=0;whiteSpace=wrap;html=1;fillColor=#f5f5f5;fontColor=#333333;strokeColor=#666666;" parent="1" vertex="1">
          <mxGeometry x="571" y="930" width="130" height="60" as="geometry" />
        </mxCell>
        <mxCell id="e-V-g8x9VqO9ZH_dhTw7-44" value="SolutionComponent" style="rounded=0;whiteSpace=wrap;html=1;fontStyle=2;fillColor=#f5f5f5;fontColor=#333333;strokeColor=#666666;" parent="1" vertex="1">
          <mxGeometry x="571" y="900" width="130" height="30" as="geometry" />
        </mxCell>
        <mxCell id="e-V-g8x9VqO9ZH_dhTw7-46" value="ImplementedBy" style="text;html=1;align=center;verticalAlign=middle;resizable=0;points=[];autosize=1;strokeColor=none;fillColor=none;fontStyle=2" parent="1" vertex="1">
          <mxGeometry x="810" y="830" width="110" height="30" as="geometry" />
        </mxCell>
        <mxCell id="e-V-g8x9VqO9ZH_dhTw7-48" value="InformationSupply&lt;br&gt;ChainLink" style="text;html=1;align=center;verticalAlign=middle;resizable=0;points=[];autosize=1;strokeColor=none;fillColor=none;fontStyle=2" parent="1" vertex="1">
          <mxGeometry x="520" y="760" width="120" height="40" as="geometry" />
        </mxCell>
        <mxCell id="e-V-g8x9VqO9ZH_dhTw7-49" value="ImplementedBy" style="text;html=1;align=center;verticalAlign=middle;resizable=0;points=[];autosize=1;strokeColor=none;fillColor=none;fontStyle=2" parent="1" vertex="1">
          <mxGeometry x="601" y="830" width="110" height="30" as="geometry" />
        </mxCell>
        <mxCell id="e-V-g8x9VqO9ZH_dhTw7-50" value="FTP Process" style="rounded=0;whiteSpace=wrap;html=1;fillColor=#fff2cc;strokeColor=#d6b656;" parent="1" vertex="1">
          <mxGeometry x="120" y="1080" width="130" height="60" as="geometry" />
        </mxCell>
        <mxCell id="e-V-g8x9VqO9ZH_dhTw7-51" value="SoftwareService" style="rounded=0;whiteSpace=wrap;html=1;fontStyle=2;fillColor=#fff2cc;strokeColor=#d6b656;" parent="1" vertex="1">
          <mxGeometry x="120" y="1050" width="130" height="30" as="geometry" />
        </mxCell>
        <mxCell id="e-V-g8x9VqO9ZH_dhTw7-53" value="ImplementedBy" style="text;html=1;align=center;verticalAlign=middle;resizable=0;points=[];autosize=1;strokeColor=none;fillColor=none;fontStyle=2" parent="1" vertex="1">
          <mxGeometry x="185" y="995" width="110" height="30" as="geometry" />
        </mxCell>
        <mxCell id="aMksF9YB-8EwaT3wIAzR-3" value="Solution&lt;br&gt;Linking&lt;br&gt;Wire" style="text;html=1;align=center;verticalAlign=middle;resizable=0;points=[];autosize=1;strokeColor=none;fillColor=none;fontStyle=2" parent="1" vertex="1">
          <mxGeometry x="970" y="900" width="70" height="60" as="geometry" />
        </mxCell>
        <mxCell id="aMksF9YB-8EwaT3wIAzR-4" value="Solution&lt;br&gt;Linking&lt;br&gt;Wire" style="text;html=1;align=center;verticalAlign=middle;resizable=0;points=[];autosize=1;strokeColor=none;fillColor=none;fontStyle=2" parent="1" vertex="1">
          <mxGeometry x="50" y="900" width="70" height="60" as="geometry" />
        </mxCell>
        <mxCell id="aMksF9YB-8EwaT3wIAzR-5" value="Solution&lt;br&gt;Linking&lt;br&gt;Wire" style="text;html=1;align=center;verticalAlign=middle;resizable=0;points=[];autosize=1;strokeColor=none;fillColor=none;fontStyle=2" parent="1" vertex="1">
          <mxGeometry x="245" y="900" width="70" height="60" as="geometry" />
        </mxCell>
        <mxCell id="aMksF9YB-8EwaT3wIAzR-6" value="Solution&lt;br&gt;Linking&lt;br&gt;Wire" style="text;html=1;align=center;verticalAlign=middle;resizable=0;points=[];autosize=1;strokeColor=none;fillColor=none;fontStyle=2" parent="1" vertex="1">
          <mxGeometry x="461" y="905" width="70" height="60" as="geometry" />
        </mxCell>
        <mxCell id="aMksF9YB-8EwaT3wIAzR-7" value="Solution&lt;br&gt;Linking&lt;br&gt;Wire" style="text;html=1;align=center;verticalAlign=middle;resizable=0;points=[];autosize=1;strokeColor=none;fillColor=none;fontStyle=2" parent="1" vertex="1">
          <mxGeometry x="730" y="905" width="70" height="60" as="geometry" />
        </mxCell>
        <mxCell id="aMksF9YB-8EwaT3wIAzR-8" value="Old Market Hospital&lt;br&gt;Landing Folder" style="rounded=0;whiteSpace=wrap;html=1;fillColor=#dae8fc;strokeColor=#6c8ebf;" parent="1" vertex="1">
          <mxGeometry x="315" y="1075" width="130" height="60" as="geometry" />
        </mxCell>
        <mxCell id="aMksF9YB-8EwaT3wIAzR-9" value="FileFolder" style="rounded=0;whiteSpace=wrap;html=1;fontStyle=2;fillColor=#dae8fc;strokeColor=#6c8ebf;" parent="1" vertex="1">
          <mxGeometry x="315" y="1045" width="130" height="30" as="geometry" />
        </mxCell>
        <mxCell id="aMksF9YB-8EwaT3wIAzR-11" value="ImplementedBy" style="text;html=1;align=center;verticalAlign=middle;resizable=0;points=[];autosize=1;strokeColor=none;fillColor=none;fontStyle=2" parent="1" vertex="1">
          <mxGeometry x="380" y="990" width="110" height="30" as="geometry" />
        </mxCell>
        <mxCell id="aMksF9YB-8EwaT3wIAzR-12" style="edgeStyle=orthogonalEdgeStyle;rounded=0;orthogonalLoop=1;jettySize=auto;html=1;exitX=0.5;exitY=1;exitDx=0;exitDy=0;entryX=0.5;entryY=0;entryDx=0;entryDy=0;" parent="1" source="e-V-g8x9VqO9ZH_dhTw7-31" target="aMksF9YB-8EwaT3wIAzR-14" edge="1">
          <mxGeometry relative="1" as="geometry">
            <mxPoint x="390" y="1000" as="sourcePoint" />
          </mxGeometry>
        </mxCell>
        <mxCell id="aMksF9YB-8EwaT3wIAzR-13" value="Old Market Hospital&lt;br&gt;Landing Folder" style="rounded=0;whiteSpace=wrap;html=1;fillColor=#dae8fc;strokeColor=#6c8ebf;" parent="1" vertex="1">
          <mxGeometry x="325" y="1085" width="130" height="60" as="geometry" />
        </mxCell>
        <mxCell id="aMksF9YB-8EwaT3wIAzR-14" value="FileFolder" style="rounded=0;whiteSpace=wrap;html=1;fontStyle=2;fillColor=#dae8fc;strokeColor=#6c8ebf;" parent="1" vertex="1">
          <mxGeometry x="325" y="1055" width="130" height="30" as="geometry" />
        </mxCell>
        <mxCell id="aMksF9YB-8EwaT3wIAzR-15" style="edgeStyle=orthogonalEdgeStyle;rounded=0;orthogonalLoop=1;jettySize=auto;html=1;exitX=0.5;exitY=1;exitDx=0;exitDy=0;entryX=0.5;entryY=0;entryDx=0;entryDy=0;" parent="1" source="e-V-g8x9VqO9ZH_dhTw7-31" target="aMksF9YB-8EwaT3wIAzR-17" edge="1">
          <mxGeometry relative="1" as="geometry">
            <mxPoint x="400" y="1010" as="sourcePoint" />
          </mxGeometry>
        </mxCell>
        <mxCell id="aMksF9YB-8EwaT3wIAzR-16" value="Old Market&lt;br&gt;Landing Area" style="rounded=0;whiteSpace=wrap;html=1;fillColor=#dae8fc;strokeColor=#6c8ebf;" parent="1" vertex="1">
          <mxGeometry x="335" y="1095" width="130" height="60" as="geometry" />
        </mxCell>
        <mxCell id="aMksF9YB-8EwaT3wIAzR-17" value="FileFolder" style="rounded=0;whiteSpace=wrap;html=1;fontStyle=2;fillColor=#dae8fc;strokeColor=#6c8ebf;" parent="1" vertex="1">
          <mxGeometry x="335" y="1065" width="130" height="30" as="geometry" />
        </mxCell>
        <mxCell id="aMksF9YB-8EwaT3wIAzR-21" style="edgeStyle=orthogonalEdgeStyle;rounded=0;orthogonalLoop=1;jettySize=auto;html=1;exitX=1;exitY=0.5;exitDx=0;exitDy=0;entryX=0;entryY=0.25;entryDx=0;entryDy=0;" parent="1" source="e-V-g8x9VqO9ZH_dhTw7-50" target="aMksF9YB-8EwaT3wIAzR-16" edge="1">
          <mxGeometry relative="1" as="geometry" />
        </mxCell>
        <mxCell id="aMksF9YB-8EwaT3wIAzR-22" value="CollectionMembership" style="text;html=1;align=center;verticalAlign=middle;resizable=0;points=[];autosize=1;strokeColor=none;fillColor=none;fontStyle=2" parent="1" vertex="1">
          <mxGeometry x="-10" y="985" width="140" height="30" as="geometry" />
        </mxCell>
        <mxCell id="aMksF9YB-8EwaT3wIAzR-40" style="edgeStyle=orthogonalEdgeStyle;rounded=0;orthogonalLoop=1;jettySize=auto;html=1;exitX=0.75;exitY=1;exitDx=0;exitDy=0;entryX=0.25;entryY=0;entryDx=0;entryDy=0;" parent="1" source="aMksF9YB-8EwaT3wIAzR-29" target="aMksF9YB-8EwaT3wIAzR-56" edge="1">
          <mxGeometry relative="1" as="geometry" />
        </mxCell>
        <mxCell id="aMksF9YB-8EwaT3wIAzR-54" style="edgeStyle=orthogonalEdgeStyle;rounded=0;orthogonalLoop=1;jettySize=auto;html=1;exitX=0;exitY=0.5;exitDx=0;exitDy=0;entryX=1;entryY=0.25;entryDx=0;entryDy=0;" parent="1" source="aMksF9YB-8EwaT3wIAzR-29" target="aMksF9YB-8EwaT3wIAzR-16" edge="1">
          <mxGeometry relative="1" as="geometry" />
        </mxCell>
        <mxCell id="aMksF9YB-8EwaT3wIAzR-29" value="Landing Area&lt;br&gt;Data Files Monitoring&lt;br&gt;Integration Connector" style="rounded=0;whiteSpace=wrap;html=1;fillColor=#dae8fc;strokeColor=#6c8ebf;" parent="1" vertex="1">
          <mxGeometry x="538" y="1080" width="130" height="60" as="geometry" />
        </mxCell>
        <mxCell id="aMksF9YB-8EwaT3wIAzR-30" value="DeployedConnector" style="rounded=0;whiteSpace=wrap;html=1;fontStyle=2;fillColor=#dae8fc;strokeColor=#6c8ebf;" parent="1" vertex="1">
          <mxGeometry x="538" y="1050" width="130" height="30" as="geometry" />
        </mxCell>
        <mxCell id="aMksF9YB-8EwaT3wIAzR-45" style="edgeStyle=orthogonalEdgeStyle;rounded=0;orthogonalLoop=1;jettySize=auto;html=1;exitX=1;exitY=0.5;exitDx=0;exitDy=0;" parent="1" source="aMksF9YB-8EwaT3wIAzR-35" target="aMksF9YB-8EwaT3wIAzR-41" edge="1">
          <mxGeometry relative="1" as="geometry" />
        </mxCell>
        <mxCell id="aMksF9YB-8EwaT3wIAzR-35" value="WatchDog&lt;br&gt;Governance Action" style="rounded=0;whiteSpace=wrap;html=1;fillColor=#d5e8d4;strokeColor=#82b366;" parent="1" vertex="1">
          <mxGeometry x="700" y="1080" width="130" height="60" as="geometry" />
        </mxCell>
        <mxCell id="aMksF9YB-8EwaT3wIAzR-36" value="GovernanceAction" style="rounded=0;whiteSpace=wrap;html=1;fontStyle=2;fillColor=#d5e8d4;strokeColor=#82b366;" parent="1" vertex="1">
          <mxGeometry x="700" y="1050" width="130" height="30" as="geometry" />
        </mxCell>
        <mxCell id="aMksF9YB-8EwaT3wIAzR-46" style="edgeStyle=orthogonalEdgeStyle;rounded=0;orthogonalLoop=1;jettySize=auto;html=1;exitX=1;exitY=0.5;exitDx=0;exitDy=0;" parent="1" source="aMksF9YB-8EwaT3wIAzR-41" target="aMksF9YB-8EwaT3wIAzR-43" edge="1">
          <mxGeometry relative="1" as="geometry" />
        </mxCell>
        <mxCell id="aMksF9YB-8EwaT3wIAzR-58" style="edgeStyle=orthogonalEdgeStyle;rounded=0;orthogonalLoop=1;jettySize=auto;html=1;exitX=0.5;exitY=1;exitDx=0;exitDy=0;entryX=1;entryY=0.5;entryDx=0;entryDy=0;" parent="1" source="aMksF9YB-8EwaT3wIAzR-41" target="aMksF9YB-8EwaT3wIAzR-55" edge="1">
          <mxGeometry relative="1" as="geometry" />
        </mxCell>
        <mxCell id="aMksF9YB-8EwaT3wIAzR-41" value="Onboarding Weekly Measurements" style="rounded=0;whiteSpace=wrap;html=1;fillColor=#d5e8d4;strokeColor=#82b366;" parent="1" vertex="1">
          <mxGeometry x="876" y="1080" width="160" height="60" as="geometry" />
        </mxCell>
        <mxCell id="aMksF9YB-8EwaT3wIAzR-42" value="GovernanceActionProcess" style="rounded=0;whiteSpace=wrap;html=1;fontStyle=2;fillColor=#d5e8d4;strokeColor=#82b366;" parent="1" vertex="1">
          <mxGeometry x="876" y="1050" width="160" height="30" as="geometry" />
        </mxCell>
        <mxCell id="aMksF9YB-8EwaT3wIAzR-43" value="Drop Foot&lt;br&gt;Clinical Trial&lt;br&gt;Weekly&lt;br&gt;Measurements" style="rounded=0;whiteSpace=wrap;html=1;fillColor=#dae8fc;strokeColor=#6c8ebf;" parent="1" vertex="1">
          <mxGeometry x="1090" y="1080" width="130" height="60" as="geometry" />
        </mxCell>
        <mxCell id="aMksF9YB-8EwaT3wIAzR-44" value="FileFolder" style="rounded=0;whiteSpace=wrap;html=1;fontStyle=2;fillColor=#dae8fc;strokeColor=#6c8ebf;" parent="1" vertex="1">
          <mxGeometry x="1090" y="1050" width="130" height="30" as="geometry" />
        </mxCell>
        <mxCell id="aMksF9YB-8EwaT3wIAzR-50" value="" style="rounded=0;whiteSpace=wrap;html=1;fillColor=#dae8fc;strokeColor=#6c8ebf;" parent="1" vertex="1">
          <mxGeometry x="1110" y="995" width="30" height="20" as="geometry" />
        </mxCell>
        <mxCell id="aMksF9YB-8EwaT3wIAzR-51" value="" style="rounded=0;whiteSpace=wrap;html=1;fillColor=#dae8fc;strokeColor=#6c8ebf;" parent="1" vertex="1">
          <mxGeometry x="1116" y="1005" width="30" height="20" as="geometry" />
        </mxCell>
        <mxCell id="aMksF9YB-8EwaT3wIAzR-52" value="" style="rounded=0;whiteSpace=wrap;html=1;fillColor=#dae8fc;strokeColor=#6c8ebf;" parent="1" vertex="1">
          <mxGeometry x="1130" y="1015" width="30" height="20" as="geometry" />
        </mxCell>
        <mxCell id="aMksF9YB-8EwaT3wIAzR-55" value="cocoMDS1" style="rounded=0;whiteSpace=wrap;html=1;fillColor=#fff2cc;strokeColor=#d6b656;" parent="1" vertex="1">
          <mxGeometry x="603" y="1210" width="130" height="60" as="geometry" />
        </mxCell>
        <mxCell id="aMksF9YB-8EwaT3wIAzR-57" style="edgeStyle=orthogonalEdgeStyle;rounded=0;orthogonalLoop=1;jettySize=auto;html=1;exitX=0.75;exitY=0;exitDx=0;exitDy=0;" parent="1" source="aMksF9YB-8EwaT3wIAzR-56" target="aMksF9YB-8EwaT3wIAzR-35" edge="1">
          <mxGeometry relative="1" as="geometry" />
        </mxCell>
        <mxCell id="aMksF9YB-8EwaT3wIAzR-56" value="SoftwareServer" style="rounded=0;whiteSpace=wrap;html=1;fontStyle=2;fillColor=#fff2cc;strokeColor=#d6b656;" parent="1" vertex="1">
          <mxGeometry x="603" y="1180" width="130" height="30" as="geometry" />
        </mxCell>
        <mxCell id="aMksF9YB-8EwaT3wIAzR-59" value="ImplementedBy" style="text;html=1;align=center;verticalAlign=middle;resizable=0;points=[];autosize=1;strokeColor=none;fillColor=none;fontStyle=2" parent="1" vertex="1">
          <mxGeometry x="491" y="990" width="110" height="30" as="geometry" />
        </mxCell>
        <mxCell id="aMksF9YB-8EwaT3wIAzR-60" value="ImplementedBy" style="text;html=1;align=center;verticalAlign=middle;resizable=0;points=[];autosize=1;strokeColor=none;fillColor=none;fontStyle=2" parent="1" vertex="1">
          <mxGeometry x="663" y="990" width="110" height="30" as="geometry" />
        </mxCell>
        <mxCell id="aMksF9YB-8EwaT3wIAzR-61" value="ImplementedBy" style="text;html=1;align=center;verticalAlign=middle;resizable=0;points=[];autosize=1;strokeColor=none;fillColor=none;fontStyle=2" parent="1" vertex="1">
          <mxGeometry x="910" y="990" width="110" height="30" as="geometry" />
        </mxCell>
        <mxCell id="aMksF9YB-8EwaT3wIAzR-62" value="ProcessCall" style="text;html=1;align=center;verticalAlign=middle;resizable=0;points=[];autosize=1;strokeColor=none;fillColor=none;fontStyle=2" parent="1" vertex="1">
          <mxGeometry x="535" y="1155" width="90" height="30" as="geometry" />
        </mxCell>
        <mxCell id="aMksF9YB-8EwaT3wIAzR-63" value="ProcessCall" style="text;html=1;align=center;verticalAlign=middle;resizable=0;points=[];autosize=1;strokeColor=none;fillColor=none;fontStyle=2" parent="1" vertex="1">
          <mxGeometry x="455" y="1080" width="90" height="30" as="geometry" />
        </mxCell>
        <mxCell id="aMksF9YB-8EwaT3wIAzR-64" value="ProcessCall" style="text;html=1;align=center;verticalAlign=middle;resizable=0;points=[];autosize=1;strokeColor=none;fillColor=none;fontStyle=2" parent="1" vertex="1">
          <mxGeometry x="750" y="1155" width="90" height="30" as="geometry" />
        </mxCell>
        <mxCell id="aMksF9YB-8EwaT3wIAzR-65" value="ProcessCall" style="text;html=1;align=center;verticalAlign=middle;resizable=0;points=[];autosize=1;strokeColor=none;fillColor=none;fontStyle=2" parent="1" vertex="1">
          <mxGeometry x="820" y="1075" width="90" height="30" as="geometry" />
        </mxCell>
        <mxCell id="aMksF9YB-8EwaT3wIAzR-66" value="ProcessCall" style="text;html=1;align=center;verticalAlign=middle;resizable=0;points=[];autosize=1;strokeColor=none;fillColor=none;fontStyle=2" parent="1" vertex="1">
          <mxGeometry x="1036" y="1075" width="90" height="30" as="geometry" />
        </mxCell>
        <mxCell id="aMksF9YB-8EwaT3wIAzR-67" value="DataFlow" style="text;html=1;align=center;verticalAlign=middle;resizable=0;points=[];autosize=1;strokeColor=none;fillColor=none;fontStyle=2" parent="1" vertex="1">
          <mxGeometry x="250" y="1085" width="70" height="30" as="geometry" />
        </mxCell>
        <mxCell id="aMksF9YB-8EwaT3wIAzR-68" value="DataFlow" style="text;html=1;align=center;verticalAlign=middle;resizable=0;points=[];autosize=1;strokeColor=none;fillColor=none;fontStyle=2" parent="1" vertex="1">
          <mxGeometry x="50" y="1080" width="70" height="30" as="geometry" />
        </mxCell>
        <mxCell id="aMksF9YB-8EwaT3wIAzR-69" value="ProcessCall" style="text;html=1;align=center;verticalAlign=middle;resizable=0;points=[];autosize=1;strokeColor=none;fillColor=none;fontStyle=2" parent="1" vertex="1">
          <mxGeometry x="760" y="1210" width="90" height="30" as="geometry" />
        </mxCell>
        <mxCell id="aMksF9YB-8EwaT3wIAzR-70" value="0021" style="text;html=1;strokeColor=none;fillColor=none;align=center;verticalAlign=middle;whiteSpace=wrap;rounded=0;fontColor=#67AB9F;" parent="1" vertex="1">
          <mxGeometry x="-70" y="870" width="60" height="30" as="geometry" />
        </mxCell>
        <mxCell id="aMksF9YB-8EwaT3wIAzR-71" value="0057" style="text;html=1;strokeColor=none;fillColor=none;align=center;verticalAlign=middle;whiteSpace=wrap;rounded=0;fontColor=#67AB9F;" parent="1" vertex="1">
          <mxGeometry x="120" y="1020" width="60" height="30" as="geometry" />
        </mxCell>
        <mxCell id="aMksF9YB-8EwaT3wIAzR-72" value="0220" style="text;html=1;strokeColor=none;fillColor=none;align=center;verticalAlign=middle;whiteSpace=wrap;rounded=0;fontColor=#67AB9F;" parent="1" vertex="1">
          <mxGeometry x="305" y="1015" width="60" height="30" as="geometry" />
        </mxCell>
        <mxCell id="aMksF9YB-8EwaT3wIAzR-73" value="0220" style="text;html=1;strokeColor=none;fillColor=none;align=center;verticalAlign=middle;whiteSpace=wrap;rounded=0;fontColor=#67AB9F;" parent="1" vertex="1">
          <mxGeometry x="1170" y="1020" width="60" height="30" as="geometry" />
        </mxCell>
        <mxCell id="aMksF9YB-8EwaT3wIAzR-74" value="0215" style="text;html=1;strokeColor=none;fillColor=none;align=center;verticalAlign=middle;whiteSpace=wrap;rounded=0;fontColor=#67AB9F;" parent="1" vertex="1">
          <mxGeometry x="535" y="1020" width="60" height="30" as="geometry" />
        </mxCell>
        <mxCell id="aMksF9YB-8EwaT3wIAzR-75" value="0040" style="text;html=1;strokeColor=none;fillColor=none;align=center;verticalAlign=middle;whiteSpace=wrap;rounded=0;fontColor=#67AB9F;" parent="1" vertex="1">
          <mxGeometry x="543" y="1200" width="60" height="30" as="geometry" />
        </mxCell>
        <mxCell id="aMksF9YB-8EwaT3wIAzR-76" value="0440" style="text;html=1;strokeColor=none;fillColor=none;align=center;verticalAlign=middle;whiteSpace=wrap;rounded=0;fontColor=#67AB9F;" parent="1" vertex="1">
          <mxGeometry x="-100" y="1015" width="60" height="30" as="geometry" />
        </mxCell>
        <mxCell id="aMksF9YB-8EwaT3wIAzR-77" value="0463" style="text;html=1;strokeColor=none;fillColor=none;align=center;verticalAlign=middle;whiteSpace=wrap;rounded=0;fontColor=#67AB9F;" parent="1" vertex="1">
          <mxGeometry x="780" y="1020" width="60" height="30" as="geometry" />
        </mxCell>
        <mxCell id="aMksF9YB-8EwaT3wIAzR-78" value="0462" style="text;html=1;strokeColor=none;fillColor=none;align=center;verticalAlign=middle;whiteSpace=wrap;rounded=0;fontColor=#67AB9F;" parent="1" vertex="1">
          <mxGeometry x="980" y="1020" width="60" height="30" as="geometry" />
        </mxCell>
        <mxCell id="aMksF9YB-8EwaT3wIAzR-79" value="0720" style="text;html=1;strokeColor=none;fillColor=none;align=center;verticalAlign=middle;whiteSpace=wrap;rounded=0;fontColor=#67AB9F;" parent="1" vertex="1">
          <mxGeometry x="305" y="580" width="60" height="30" as="geometry" />
        </mxCell>
        <mxCell id="aMksF9YB-8EwaT3wIAzR-80" value="0720" style="text;html=1;strokeColor=none;fillColor=none;align=center;verticalAlign=middle;whiteSpace=wrap;rounded=0;fontColor=#67AB9F;" parent="1" vertex="1">
          <mxGeometry x="90" y="710" width="60" height="30" as="geometry" />
        </mxCell>
        <mxCell id="aMksF9YB-8EwaT3wIAzR-81" value="0720" style="text;html=1;strokeColor=none;fillColor=none;align=center;verticalAlign=middle;whiteSpace=wrap;rounded=0;fontColor=#67AB9F;" parent="1" vertex="1">
          <mxGeometry x="800" y="710" width="60" height="30" as="geometry" />
        </mxCell>
        <mxCell id="aMksF9YB-8EwaT3wIAzR-82" value="0730" style="text;html=1;strokeColor=none;fillColor=none;align=center;verticalAlign=middle;whiteSpace=wrap;rounded=0;fontColor=#67AB9F;" parent="1" vertex="1">
          <mxGeometry x="200" y="870" width="60" height="30" as="geometry" />
        </mxCell>
        <mxCell id="aMksF9YB-8EwaT3wIAzR-83" value="0730" style="text;html=1;strokeColor=none;fillColor=none;align=center;verticalAlign=middle;whiteSpace=wrap;rounded=0;fontColor=#67AB9F;" parent="1" vertex="1">
          <mxGeometry x="350" y="870" width="60" height="30" as="geometry" />
        </mxCell>
        <mxCell id="aMksF9YB-8EwaT3wIAzR-84" value="0730" style="text;html=1;strokeColor=none;fillColor=none;align=center;verticalAlign=middle;whiteSpace=wrap;rounded=0;fontColor=#67AB9F;" parent="1" vertex="1">
          <mxGeometry x="565" y="870" width="60" height="30" as="geometry" />
        </mxCell>
        <mxCell id="aMksF9YB-8EwaT3wIAzR-85" value="0730" style="text;html=1;strokeColor=none;fillColor=none;align=center;verticalAlign=middle;whiteSpace=wrap;rounded=0;fontColor=#67AB9F;" parent="1" vertex="1">
          <mxGeometry x="840" y="870" width="60" height="30" as="geometry" />
        </mxCell>
        <mxCell id="aMksF9YB-8EwaT3wIAzR-86" value="0730" style="text;html=1;strokeColor=none;fillColor=none;align=center;verticalAlign=middle;whiteSpace=wrap;rounded=0;fontColor=#67AB9F;" parent="1" vertex="1">
          <mxGeometry x="1050" y="870" width="60" height="30" as="geometry" />
        </mxCell>
        <mxCell id="aMksF9YB-8EwaT3wIAzR-87" style="edgeStyle=orthogonalEdgeStyle;rounded=0;orthogonalLoop=1;jettySize=auto;html=1;exitX=0.5;exitY=1;exitDx=0;exitDy=0;entryX=0.5;entryY=0;entryDx=0;entryDy=0;" parent="1" source="aMksF9YB-8EwaT3wIAzR-89" target="aMksF9YB-8EwaT3wIAzR-101" edge="1">
          <mxGeometry relative="1" as="geometry" />
        </mxCell>
        <mxCell id="aMksF9YB-8EwaT3wIAzR-88" style="edgeStyle=orthogonalEdgeStyle;rounded=0;orthogonalLoop=1;jettySize=auto;html=1;exitX=0.5;exitY=1;exitDx=0;exitDy=0;" parent="1" source="aMksF9YB-8EwaT3wIAzR-89" target="aMksF9YB-8EwaT3wIAzR-106" edge="1">
          <mxGeometry relative="1" as="geometry" />
        </mxCell>
        <mxCell id="aMksF9YB-8EwaT3wIAzR-89" value="Drop Foot Clinical Trial&lt;br&gt;Weekly Measurements" style="rounded=0;whiteSpace=wrap;html=1;fillColor=#f5f5f5;fontColor=#333333;strokeColor=#666666;" parent="1" vertex="1">
          <mxGeometry x="375" y="60" width="166" height="60" as="geometry" />
        </mxCell>
        <mxCell id="aMksF9YB-8EwaT3wIAzR-90" value="InformationSupplyChain" style="rounded=0;whiteSpace=wrap;html=1;fontStyle=2;fillColor=#f5f5f5;fontColor=#333333;strokeColor=#666666;" parent="1" vertex="1">
          <mxGeometry x="375" y="30" width="166" height="30" as="geometry" />
        </mxCell>
        <mxCell id="aMksF9YB-8EwaT3wIAzR-92" value="Data Lake" style="rounded=0;whiteSpace=wrap;html=1;fillColor=#f5f5f5;fontColor=#333333;strokeColor=#666666;" parent="1" vertex="1">
          <mxGeometry x="1060" y="380" width="130" height="60" as="geometry" />
        </mxCell>
        <mxCell id="aMksF9YB-8EwaT3wIAzR-93" value="Collection" style="rounded=0;whiteSpace=wrap;html=1;fontStyle=2;fillColor=#fff2cc;strokeColor=#d6b656;" parent="1" vertex="1">
          <mxGeometry x="-60" y="350" width="120" height="30" as="geometry" />
        </mxCell>
        <mxCell id="aMksF9YB-8EwaT3wIAzR-95" style="edgeStyle=orthogonalEdgeStyle;rounded=0;orthogonalLoop=1;jettySize=auto;html=1;exitX=0.5;exitY=0;exitDx=0;exitDy=0;entryX=0;entryY=0.5;entryDx=0;entryDy=0;" parent="1" source="aMksF9YB-8EwaT3wIAzR-93" target="aMksF9YB-8EwaT3wIAzR-100" edge="1">
          <mxGeometry relative="1" as="geometry" />
        </mxCell>
        <mxCell id="aMksF9YB-8EwaT3wIAzR-96" style="edgeStyle=orthogonalEdgeStyle;rounded=0;orthogonalLoop=1;jettySize=auto;html=1;exitX=1;exitY=0.5;exitDx=0;exitDy=0;" parent="1" source="aMksF9YB-8EwaT3wIAzR-97" target="aMksF9YB-8EwaT3wIAzR-123" edge="1">
          <mxGeometry relative="1" as="geometry" />
        </mxCell>
        <mxCell id="aMksF9YB-8EwaT3wIAzR-97" value="Hospitals in Drop Foot Clinical Trial&amp;nbsp;" style="rounded=0;whiteSpace=wrap;html=1;fillColor=#fff2cc;strokeColor=#d6b656;" parent="1" vertex="1">
          <mxGeometry x="-60" y="380" width="120" height="60" as="geometry" />
        </mxCell>
        <mxCell id="aMksF9YB-8EwaT3wIAzR-98" style="edgeStyle=orthogonalEdgeStyle;rounded=0;orthogonalLoop=1;jettySize=auto;html=1;exitX=1;exitY=0.5;exitDx=0;exitDy=0;entryX=0.25;entryY=0;entryDx=0;entryDy=0;" parent="1" source="aMksF9YB-8EwaT3wIAzR-100" target="aMksF9YB-8EwaT3wIAzR-129" edge="1">
          <mxGeometry relative="1" as="geometry" />
        </mxCell>
        <mxCell id="aMksF9YB-8EwaT3wIAzR-99" style="edgeStyle=orthogonalEdgeStyle;rounded=0;orthogonalLoop=1;jettySize=auto;html=1;exitX=0.5;exitY=1;exitDx=0;exitDy=0;entryX=0.5;entryY=0;entryDx=0;entryDy=0;" parent="1" source="aMksF9YB-8EwaT3wIAzR-100" target="aMksF9YB-8EwaT3wIAzR-124" edge="1">
          <mxGeometry relative="1" as="geometry" />
        </mxCell>
        <mxCell id="aMksF9YB-8EwaT3wIAzR-100" value="From Hospital to Landing Area" style="rounded=0;whiteSpace=wrap;html=1;fillColor=#f5f5f5;fontColor=#333333;strokeColor=#666666;" parent="1" vertex="1">
          <mxGeometry x="100" y="220" width="190" height="60" as="geometry" />
        </mxCell>
        <mxCell id="aMksF9YB-8EwaT3wIAzR-101" value="InformationSupplyChain" style="rounded=0;whiteSpace=wrap;html=1;fontStyle=2;fillColor=#f5f5f5;fontColor=#333333;strokeColor=#666666;" parent="1" vertex="1">
          <mxGeometry x="100" y="190" width="190" height="30" as="geometry" />
        </mxCell>
        <mxCell id="aMksF9YB-8EwaT3wIAzR-102" style="edgeStyle=orthogonalEdgeStyle;rounded=0;orthogonalLoop=1;jettySize=auto;html=1;exitX=1;exitY=0.5;exitDx=0;exitDy=0;entryX=0.5;entryY=0;entryDx=0;entryDy=0;" parent="1" source="aMksF9YB-8EwaT3wIAzR-105" target="aMksF9YB-8EwaT3wIAzR-116" edge="1">
          <mxGeometry relative="1" as="geometry" />
        </mxCell>
        <mxCell id="aMksF9YB-8EwaT3wIAzR-103" style="edgeStyle=orthogonalEdgeStyle;rounded=0;orthogonalLoop=1;jettySize=auto;html=1;exitX=0.75;exitY=1;exitDx=0;exitDy=0;" parent="1" source="aMksF9YB-8EwaT3wIAzR-105" target="aMksF9YB-8EwaT3wIAzR-134" edge="1">
          <mxGeometry relative="1" as="geometry" />
        </mxCell>
        <mxCell id="aMksF9YB-8EwaT3wIAzR-104" style="edgeStyle=orthogonalEdgeStyle;rounded=0;orthogonalLoop=1;jettySize=auto;html=1;exitX=0.25;exitY=1;exitDx=0;exitDy=0;entryX=0.5;entryY=0;entryDx=0;entryDy=0;" parent="1" source="aMksF9YB-8EwaT3wIAzR-105" target="aMksF9YB-8EwaT3wIAzR-139" edge="1">
          <mxGeometry relative="1" as="geometry" />
        </mxCell>
        <mxCell id="aMksF9YB-8EwaT3wIAzR-105" value="From Landing Area to Data Lake" style="rounded=0;whiteSpace=wrap;html=1;fillColor=#f5f5f5;fontColor=#333333;strokeColor=#666666;" parent="1" vertex="1">
          <mxGeometry x="680" y="220" width="190" height="60" as="geometry" />
        </mxCell>
        <mxCell id="aMksF9YB-8EwaT3wIAzR-106" value="InformationSupplyChain" style="rounded=0;whiteSpace=wrap;html=1;fontStyle=2;fillColor=#f5f5f5;fontColor=#333333;strokeColor=#666666;" parent="1" vertex="1">
          <mxGeometry x="680" y="190" width="190" height="30" as="geometry" />
        </mxCell>
        <mxCell id="aMksF9YB-8EwaT3wIAzR-116" value="SolutionComponent" style="rounded=0;whiteSpace=wrap;html=1;fontStyle=2;fillColor=#f5f5f5;fontColor=#333333;strokeColor=#666666;" parent="1" vertex="1">
          <mxGeometry x="1060" y="350" width="130" height="30" as="geometry" />
        </mxCell>
        <mxCell id="aMksF9YB-8EwaT3wIAzR-117" value="InformationSupplyChainComposition" style="text;html=1;align=center;verticalAlign=middle;resizable=0;points=[];autosize=1;strokeColor=none;fillColor=none;fontStyle=2" parent="1" vertex="1">
          <mxGeometry x="345" y="155" width="220" height="30" as="geometry" />
        </mxCell>
        <mxCell id="aMksF9YB-8EwaT3wIAzR-118" value="InformationSupply&lt;br&gt;ChainLink" style="text;html=1;align=center;verticalAlign=middle;resizable=0;points=[];autosize=1;strokeColor=none;fillColor=none;fontStyle=2" parent="1" vertex="1">
          <mxGeometry x="-30" y="210" width="120" height="40" as="geometry" />
        </mxCell>
        <mxCell id="aMksF9YB-8EwaT3wIAzR-119" value="InformationSupply&lt;br&gt;ChainLink" style="text;html=1;align=center;verticalAlign=middle;resizable=0;points=[];autosize=1;strokeColor=none;fillColor=none;fontStyle=2" parent="1" vertex="1">
          <mxGeometry x="290" y="210" width="120" height="40" as="geometry" />
        </mxCell>
        <mxCell id="aMksF9YB-8EwaT3wIAzR-120" value="InformationSupply&lt;br&gt;ChainLink" style="text;html=1;align=center;verticalAlign=middle;resizable=0;points=[];autosize=1;strokeColor=none;fillColor=none;fontStyle=2" parent="1" vertex="1">
          <mxGeometry x="870" y="210" width="120" height="40" as="geometry" />
        </mxCell>
        <mxCell id="aMksF9YB-8EwaT3wIAzR-121" style="edgeStyle=orthogonalEdgeStyle;rounded=0;orthogonalLoop=1;jettySize=auto;html=1;exitX=1;exitY=0.5;exitDx=0;exitDy=0;" parent="1" source="aMksF9YB-8EwaT3wIAzR-123" target="aMksF9YB-8EwaT3wIAzR-127" edge="1">
          <mxGeometry relative="1" as="geometry" />
        </mxCell>
        <mxCell id="aMksF9YB-8EwaT3wIAzR-123" value="FTP" style="rounded=0;whiteSpace=wrap;html=1;fillColor=#f5f5f5;fontColor=#333333;strokeColor=#666666;" parent="1" vertex="1">
          <mxGeometry x="130" y="380" width="130" height="60" as="geometry" />
        </mxCell>
        <mxCell id="aMksF9YB-8EwaT3wIAzR-124" value="SolutionComponent" style="rounded=0;whiteSpace=wrap;html=1;fontStyle=2;fillColor=#f5f5f5;fontColor=#333333;strokeColor=#666666;" parent="1" vertex="1">
          <mxGeometry x="130" y="350" width="130" height="30" as="geometry" />
        </mxCell>
        <mxCell id="aMksF9YB-8EwaT3wIAzR-125" style="edgeStyle=orthogonalEdgeStyle;rounded=0;orthogonalLoop=1;jettySize=auto;html=1;exitX=1;exitY=0.5;exitDx=0;exitDy=0;entryX=0;entryY=0.5;entryDx=0;entryDy=0;" parent="1" source="aMksF9YB-8EwaT3wIAzR-127" target="aMksF9YB-8EwaT3wIAzR-138" edge="1">
          <mxGeometry relative="1" as="geometry" />
        </mxCell>
        <mxCell id="aMksF9YB-8EwaT3wIAzR-127" value="LandingArea" style="rounded=0;whiteSpace=wrap;html=1;fillColor=#f5f5f5;fontColor=#333333;strokeColor=#666666;" parent="1" vertex="1">
          <mxGeometry x="325" y="380" width="130" height="60" as="geometry" />
        </mxCell>
        <mxCell id="aMksF9YB-8EwaT3wIAzR-128" style="edgeStyle=orthogonalEdgeStyle;rounded=0;orthogonalLoop=1;jettySize=auto;html=1;exitX=0.75;exitY=0;exitDx=0;exitDy=0;entryX=0;entryY=0.5;entryDx=0;entryDy=0;" parent="1" source="aMksF9YB-8EwaT3wIAzR-129" target="aMksF9YB-8EwaT3wIAzR-105" edge="1">
          <mxGeometry relative="1" as="geometry" />
        </mxCell>
        <mxCell id="aMksF9YB-8EwaT3wIAzR-129" value="SolutionComponent" style="rounded=0;whiteSpace=wrap;html=1;fontStyle=2;fillColor=#f5f5f5;fontColor=#333333;strokeColor=#666666;" parent="1" vertex="1">
          <mxGeometry x="325" y="350" width="130" height="30" as="geometry" />
        </mxCell>
        <mxCell id="aMksF9YB-8EwaT3wIAzR-130" value="ImplementedBy" style="text;html=1;align=center;verticalAlign=middle;resizable=0;points=[];autosize=1;strokeColor=none;fillColor=none;fontStyle=2" parent="1" vertex="1">
          <mxGeometry x="195" y="280" width="110" height="30" as="geometry" />
        </mxCell>
        <mxCell id="aMksF9YB-8EwaT3wIAzR-131" style="edgeStyle=orthogonalEdgeStyle;rounded=0;orthogonalLoop=1;jettySize=auto;html=1;exitX=1;exitY=0.5;exitDx=0;exitDy=0;" parent="1" source="aMksF9YB-8EwaT3wIAzR-133" target="aMksF9YB-8EwaT3wIAzR-92" edge="1">
          <mxGeometry relative="1" as="geometry" />
        </mxCell>
        <mxCell id="aMksF9YB-8EwaT3wIAzR-133" value="Onboarding&lt;br&gt;Process" style="rounded=0;whiteSpace=wrap;html=1;fillColor=#f5f5f5;fontColor=#333333;strokeColor=#666666;" parent="1" vertex="1">
          <mxGeometry x="850" y="380" width="130" height="60" as="geometry" />
        </mxCell>
        <mxCell id="aMksF9YB-8EwaT3wIAzR-134" value="SolutionComponent" style="rounded=0;whiteSpace=wrap;html=1;fontStyle=2;fillColor=#f5f5f5;fontColor=#333333;strokeColor=#666666;" parent="1" vertex="1">
          <mxGeometry x="850" y="350" width="130" height="30" as="geometry" />
        </mxCell>
        <mxCell id="aMksF9YB-8EwaT3wIAzR-135" style="edgeStyle=orthogonalEdgeStyle;rounded=0;orthogonalLoop=1;jettySize=auto;html=1;exitX=1;exitY=0.5;exitDx=0;exitDy=0;entryX=0;entryY=0.5;entryDx=0;entryDy=0;" parent="1" source="aMksF9YB-8EwaT3wIAzR-138" target="aMksF9YB-8EwaT3wIAzR-133" edge="1">
          <mxGeometry relative="1" as="geometry" />
        </mxCell>
        <mxCell id="aMksF9YB-8EwaT3wIAzR-138" value="Monitoring&lt;br&gt;Process" style="rounded=0;whiteSpace=wrap;html=1;fillColor=#f5f5f5;fontColor=#333333;strokeColor=#666666;" parent="1" vertex="1">
          <mxGeometry x="581" y="380" width="130" height="60" as="geometry" />
        </mxCell>
        <mxCell id="aMksF9YB-8EwaT3wIAzR-139" value="SolutionComponent" style="rounded=0;whiteSpace=wrap;html=1;fontStyle=2;fillColor=#f5f5f5;fontColor=#333333;strokeColor=#666666;" parent="1" vertex="1">
          <mxGeometry x="581" y="350" width="130" height="30" as="geometry" />
        </mxCell>
        <mxCell id="aMksF9YB-8EwaT3wIAzR-140" value="ImplementedBy" style="text;html=1;align=center;verticalAlign=middle;resizable=0;points=[];autosize=1;strokeColor=none;fillColor=none;fontStyle=2" parent="1" vertex="1">
          <mxGeometry x="820" y="280" width="110" height="30" as="geometry" />
        </mxCell>
        <mxCell id="aMksF9YB-8EwaT3wIAzR-141" value="InformationSupply&lt;br&gt;ChainLink" style="text;html=1;align=center;verticalAlign=middle;resizable=0;points=[];autosize=1;strokeColor=none;fillColor=none;fontStyle=2" parent="1" vertex="1">
          <mxGeometry x="530" y="210" width="120" height="40" as="geometry" />
        </mxCell>
        <mxCell id="aMksF9YB-8EwaT3wIAzR-142" value="ImplementedBy" style="text;html=1;align=center;verticalAlign=middle;resizable=0;points=[];autosize=1;strokeColor=none;fillColor=none;fontStyle=2" parent="1" vertex="1">
          <mxGeometry x="611" y="280" width="110" height="30" as="geometry" />
        </mxCell>
        <mxCell id="aMksF9YB-8EwaT3wIAzR-146" value="Solution&lt;br&gt;Linking&lt;br&gt;Wire" style="text;html=1;align=center;verticalAlign=middle;resizable=0;points=[];autosize=1;strokeColor=none;fillColor=none;fontStyle=2" parent="1" vertex="1">
          <mxGeometry x="980" y="350" width="70" height="60" as="geometry" />
        </mxCell>
        <mxCell id="aMksF9YB-8EwaT3wIAzR-147" value="Solution&lt;br&gt;Linking&lt;br&gt;Wire" style="text;html=1;align=center;verticalAlign=middle;resizable=0;points=[];autosize=1;strokeColor=none;fillColor=none;fontStyle=2" parent="1" vertex="1">
          <mxGeometry x="60" y="350" width="70" height="60" as="geometry" />
        </mxCell>
        <mxCell id="aMksF9YB-8EwaT3wIAzR-148" value="Solution&lt;br&gt;Linking&lt;br&gt;Wire" style="text;html=1;align=center;verticalAlign=middle;resizable=0;points=[];autosize=1;strokeColor=none;fillColor=none;fontStyle=2" parent="1" vertex="1">
          <mxGeometry x="255" y="350" width="70" height="60" as="geometry" />
        </mxCell>
        <mxCell id="aMksF9YB-8EwaT3wIAzR-149" value="Solution&lt;br&gt;Linking&lt;br&gt;Wire" style="text;html=1;align=center;verticalAlign=middle;resizable=0;points=[];autosize=1;strokeColor=none;fillColor=none;fontStyle=2" parent="1" vertex="1">
          <mxGeometry x="471" y="355" width="70" height="60" as="geometry" />
        </mxCell>
        <mxCell id="aMksF9YB-8EwaT3wIAzR-150" value="Solution&lt;br&gt;Linking&lt;br&gt;Wire" style="text;html=1;align=center;verticalAlign=middle;resizable=0;points=[];autosize=1;strokeColor=none;fillColor=none;fontStyle=2" parent="1" vertex="1">
          <mxGeometry x="740" y="355" width="70" height="60" as="geometry" />
        </mxCell>
        <mxCell id="aMksF9YB-8EwaT3wIAzR-192" value="0021" style="text;html=1;strokeColor=none;fillColor=none;align=center;verticalAlign=middle;whiteSpace=wrap;rounded=0;fontColor=#67AB9F;" parent="1" vertex="1">
          <mxGeometry x="-60" y="320" width="60" height="30" as="geometry" />
        </mxCell>
        <mxCell id="aMksF9YB-8EwaT3wIAzR-201" value="0720" style="text;html=1;strokeColor=none;fillColor=none;align=center;verticalAlign=middle;whiteSpace=wrap;rounded=0;fontColor=#67AB9F;" parent="1" vertex="1">
          <mxGeometry x="315" y="30" width="60" height="30" as="geometry" />
        </mxCell>
        <mxCell id="aMksF9YB-8EwaT3wIAzR-202" value="0720" style="text;html=1;strokeColor=none;fillColor=none;align=center;verticalAlign=middle;whiteSpace=wrap;rounded=0;fontColor=#67AB9F;" parent="1" vertex="1">
          <mxGeometry x="100" y="160" width="60" height="30" as="geometry" />
        </mxCell>
        <mxCell id="aMksF9YB-8EwaT3wIAzR-203" value="0720" style="text;html=1;strokeColor=none;fillColor=none;align=center;verticalAlign=middle;whiteSpace=wrap;rounded=0;fontColor=#67AB9F;" parent="1" vertex="1">
          <mxGeometry x="810" y="160" width="60" height="30" as="geometry" />
        </mxCell>
        <mxCell id="aMksF9YB-8EwaT3wIAzR-204" value="0730" style="text;html=1;strokeColor=none;fillColor=none;align=center;verticalAlign=middle;whiteSpace=wrap;rounded=0;fontColor=#67AB9F;" parent="1" vertex="1">
          <mxGeometry x="210" y="320" width="60" height="30" as="geometry" />
        </mxCell>
        <mxCell id="aMksF9YB-8EwaT3wIAzR-205" value="0730" style="text;html=1;strokeColor=none;fillColor=none;align=center;verticalAlign=middle;whiteSpace=wrap;rounded=0;fontColor=#67AB9F;" parent="1" vertex="1">
          <mxGeometry x="360" y="320" width="60" height="30" as="geometry" />
        </mxCell>
        <mxCell id="aMksF9YB-8EwaT3wIAzR-206" value="0730" style="text;html=1;strokeColor=none;fillColor=none;align=center;verticalAlign=middle;whiteSpace=wrap;rounded=0;fontColor=#67AB9F;" parent="1" vertex="1">
          <mxGeometry x="575" y="320" width="60" height="30" as="geometry" />
        </mxCell>
        <mxCell id="aMksF9YB-8EwaT3wIAzR-207" value="0730" style="text;html=1;strokeColor=none;fillColor=none;align=center;verticalAlign=middle;whiteSpace=wrap;rounded=0;fontColor=#67AB9F;" parent="1" vertex="1">
          <mxGeometry x="850" y="320" width="60" height="30" as="geometry" />
        </mxCell>
        <mxCell id="aMksF9YB-8EwaT3wIAzR-208" value="0730" style="text;html=1;strokeColor=none;fillColor=none;align=center;verticalAlign=middle;whiteSpace=wrap;rounded=0;fontColor=#67AB9F;" parent="1" vertex="1">
          <mxGeometry x="1060" y="320" width="60" height="30" as="geometry" />
        </mxCell>
      </root>
    </mxGraphModel>
  </diagram>
  <diagram id="Rs48ojbdInrB1p3hL-QY" name="0730-Solution-Components">
    <mxGraphModel dx="1234" dy="838" grid="1" gridSize="10" guides="1" tooltips="1" connect="1" arrows="1" fold="1" page="1" pageScale="1" pageWidth="827" pageHeight="1169" math="0" shadow="0">
      <root>
        <mxCell id="bwxU4-u0AWpcO3mvrb1C-0" />
        <mxCell id="bwxU4-u0AWpcO3mvrb1C-1" parent="bwxU4-u0AWpcO3mvrb1C-0" />
        <mxCell id="N8YyVw2gop-ekfsfYVBa-0" value="" style="rounded=0;whiteSpace=wrap;html=1;align=left;fillColor=#f5f5f5;strokeColor=#666666;gradientColor=#b3b3b3;" parent="bwxU4-u0AWpcO3mvrb1C-1" vertex="1">
          <mxGeometry x="13" y="37" width="60" height="20" as="geometry" />
        </mxCell>
        <mxCell id="N8YyVw2gop-ekfsfYVBa-1" value="0730 - Solution Components" style="rounded=0;whiteSpace=wrap;html=1;align=left;verticalAlign=top;fillColor=#f5f5f5;fontColor=#333333;strokeColor=#666666;" parent="bwxU4-u0AWpcO3mvrb1C-1" vertex="1">
          <mxGeometry x="13" y="57" width="1060" height="770" as="geometry" />
        </mxCell>
        <mxCell id="N8YyVw2gop-ekfsfYVBa-2" value="«entity»&lt;br&gt;&lt;b&gt;Referenceable&lt;/b&gt;" style="html=1;strokeColor=#d6b656;align=center;fillColor=#fff2cc;gradientColor=#ffd966;" parent="bwxU4-u0AWpcO3mvrb1C-1" vertex="1">
          <mxGeometry x="137" y="130" width="240" height="50" as="geometry" />
        </mxCell>
        <mxCell id="N8YyVw2gop-ekfsfYVBa-3" style="edgeStyle=orthogonalEdgeStyle;rounded=0;html=1;exitX=0;exitY=0.5;dashed=1;endArrow=none;endFill=0;jettySize=auto;orthogonalLoop=1;exitDx=0;exitDy=0;" parent="bwxU4-u0AWpcO3mvrb1C-1" source="N8YyVw2gop-ekfsfYVBa-4" edge="1">
          <mxGeometry relative="1" as="geometry">
            <mxPoint x="414" y="340" as="targetPoint" />
            <Array as="points">
              <mxPoint x="600" y="339.75" />
            </Array>
          </mxGeometry>
        </mxCell>
        <mxCell id="N8YyVw2gop-ekfsfYVBa-4" value="«relationship»&lt;br&gt;&lt;b&gt;SolutionComposition&lt;/b&gt;" style="html=1;strokeColor=#666666;align=center;fillColor=#f5f5f5;gradientColor=#b3b3b3;" parent="bwxU4-u0AWpcO3mvrb1C-1" vertex="1">
          <mxGeometry x="600" y="307" width="246" height="50" as="geometry" />
        </mxCell>
        <mxCell id="N8YyVw2gop-ekfsfYVBa-5" value="" style="rounded=0;whiteSpace=wrap;html=1;strokeColor=#666666;align=left;fillColor=#f5f5f5;fontColor=#333333;" parent="bwxU4-u0AWpcO3mvrb1C-1" vertex="1">
          <mxGeometry x="600" y="357" width="246.5" height="33" as="geometry" />
        </mxCell>
        <mxCell id="lLk8AluBvK_CJyUnXa82-0" style="edgeStyle=orthogonalEdgeStyle;rounded=0;orthogonalLoop=1;jettySize=auto;html=1;exitX=0.5;exitY=0;exitDx=0;exitDy=0;endArrow=block;endFill=0;endSize=17;" parent="bwxU4-u0AWpcO3mvrb1C-1" source="N8YyVw2gop-ekfsfYVBa-8" target="N8YyVw2gop-ekfsfYVBa-2" edge="1">
          <mxGeometry relative="1" as="geometry" />
        </mxCell>
        <mxCell id="N8YyVw2gop-ekfsfYVBa-8" value="«entity»&lt;br&gt;&lt;b&gt;SolutionComponent&lt;/b&gt;" style="html=1;strokeColor=#666666;align=center;fillColor=#f5f5f5;gradientColor=#b3b3b3;" parent="bwxU4-u0AWpcO3mvrb1C-1" vertex="1">
          <mxGeometry x="120" y="280.5" width="274" height="50" as="geometry" />
        </mxCell>
        <mxCell id="N8YyVw2gop-ekfsfYVBa-10" value="&lt;div&gt;userDefinedStatus : string&lt;br&gt;&lt;div style=&quot;text-align: left&quot;&gt;&lt;/div&gt;&lt;div&gt;solutionComponentType : string&lt;/div&gt;&lt;div&gt;plannedDeployedImplementationType : string&lt;/div&gt;&lt;/div&gt;" style="rounded=0;whiteSpace=wrap;html=1;strokeColor=#666666;align=left;fillColor=#f5f5f5;fontColor=#333333;" parent="bwxU4-u0AWpcO3mvrb1C-1" vertex="1">
          <mxGeometry x="120" y="330.5" width="274" height="79.5" as="geometry" />
        </mxCell>
        <mxCell id="N8YyVw2gop-ekfsfYVBa-11" value="usedInSolutionComponents" style="text;html=1;resizable=0;points=[];autosize=1;align=center;verticalAlign=top;spacingTop=-4;" parent="bwxU4-u0AWpcO3mvrb1C-1" vertex="1">
          <mxGeometry x="394" y="266.5" width="160" height="20" as="geometry" />
        </mxCell>
        <mxCell id="N8YyVw2gop-ekfsfYVBa-12" value="*" style="text;html=1;resizable=0;points=[];autosize=1;align=center;verticalAlign=top;spacingTop=-4;" parent="bwxU4-u0AWpcO3mvrb1C-1" vertex="1">
          <mxGeometry x="394" y="286.5" width="15" height="14" as="geometry" />
        </mxCell>
        <mxCell id="N8YyVw2gop-ekfsfYVBa-13" value="*" style="text;html=1;resizable=0;points=[];autosize=1;align=center;verticalAlign=top;spacingTop=-4;" parent="bwxU4-u0AWpcO3mvrb1C-1" vertex="1">
          <mxGeometry x="399" y="366.5" width="15" height="14" as="geometry" />
        </mxCell>
        <mxCell id="N8YyVw2gop-ekfsfYVBa-14" value="nestedSolutionComponents" style="text;html=1;resizable=0;points=[];autosize=1;align=center;verticalAlign=top;spacingTop=-4;" parent="bwxU4-u0AWpcO3mvrb1C-1" vertex="1">
          <mxGeometry x="394" y="400" width="160" height="20" as="geometry" />
        </mxCell>
        <mxCell id="N8YyVw2gop-ekfsfYVBa-9" style="edgeStyle=orthogonalEdgeStyle;rounded=0;html=1;exitX=1;exitY=0.75;entryX=1;entryY=0.5;endArrow=none;endFill=0;jettySize=auto;orthogonalLoop=1;entryDx=0;entryDy=0;exitDx=0;exitDy=0;startArrow=oval;startFill=1;" parent="bwxU4-u0AWpcO3mvrb1C-1" source="N8YyVw2gop-ekfsfYVBa-10" target="N8YyVw2gop-ekfsfYVBa-8" edge="1">
          <mxGeometry relative="1" as="geometry" />
        </mxCell>
        <mxCell id="lLk8AluBvK_CJyUnXa82-2" value="«entity»&lt;br&gt;&lt;b&gt;Actor&lt;/b&gt;" style="html=1;strokeColor=#b85450;align=center;fillColor=#f8cecc;gradientColor=#FF0080;" parent="bwxU4-u0AWpcO3mvrb1C-1" vertex="1">
          <mxGeometry x="142" y="617" width="230" height="50" as="geometry" />
        </mxCell>
        <mxCell id="lLk8AluBvK_CJyUnXa82-4" style="edgeStyle=orthogonalEdgeStyle;rounded=0;html=1;exitX=0;exitY=0.5;dashed=1;endArrow=none;endFill=0;jettySize=auto;orthogonalLoop=1;exitDx=0;exitDy=0;" parent="bwxU4-u0AWpcO3mvrb1C-1" source="lLk8AluBvK_CJyUnXa82-5" edge="1">
          <mxGeometry relative="1" as="geometry">
            <mxPoint x="257" y="509" as="targetPoint" />
          </mxGeometry>
        </mxCell>
        <mxCell id="lLk8AluBvK_CJyUnXa82-5" value="«relationship»&lt;br&gt;&lt;b&gt;SolutionComponentActor&lt;/b&gt;" style="html=1;strokeColor=#666666;align=center;fillColor=#f5f5f5;gradientColor=#b3b3b3;" parent="bwxU4-u0AWpcO3mvrb1C-1" vertex="1">
          <mxGeometry x="367" y="484.75" width="246" height="50" as="geometry" />
        </mxCell>
        <mxCell id="lLk8AluBvK_CJyUnXa82-6" value="role : string&lt;div&gt;description : string&lt;/div&gt;" style="rounded=0;whiteSpace=wrap;html=1;strokeColor=#666666;align=left;fillColor=#f5f5f5;fontColor=#333333;" parent="bwxU4-u0AWpcO3mvrb1C-1" vertex="1">
          <mxGeometry x="367" y="534.75" width="246.5" height="49.25" as="geometry" />
        </mxCell>
        <mxCell id="lLk8AluBvK_CJyUnXa82-7" value="interactingWithSolutionComponents" style="text;html=1;align=center;verticalAlign=middle;resizable=0;points=[];autosize=1;strokeColor=none;fillColor=none;" parent="bwxU4-u0AWpcO3mvrb1C-1" vertex="1">
          <mxGeometry x="40" y="410" width="210" height="30" as="geometry" />
        </mxCell>
        <mxCell id="lLk8AluBvK_CJyUnXa82-8" value="interactingWithActors" style="text;html=1;align=center;verticalAlign=middle;resizable=0;points=[];autosize=1;strokeColor=none;fillColor=none;" parent="bwxU4-u0AWpcO3mvrb1C-1" vertex="1">
          <mxGeometry x="123" y="585" width="140" height="30" as="geometry" />
        </mxCell>
        <mxCell id="lLk8AluBvK_CJyUnXa82-9" value="*" style="text;html=1;align=center;verticalAlign=middle;resizable=0;points=[];autosize=1;strokeColor=none;fillColor=none;" parent="bwxU4-u0AWpcO3mvrb1C-1" vertex="1">
          <mxGeometry x="263" y="587" width="30" height="30" as="geometry" />
        </mxCell>
        <mxCell id="lLk8AluBvK_CJyUnXa82-10" value="*" style="text;html=1;align=center;verticalAlign=middle;resizable=0;points=[];autosize=1;strokeColor=none;fillColor=none;" parent="bwxU4-u0AWpcO3mvrb1C-1" vertex="1">
          <mxGeometry x="263" y="410" width="30" height="30" as="geometry" />
        </mxCell>
        <mxCell id="lLk8AluBvK_CJyUnXa82-3" style="edgeStyle=orthogonalEdgeStyle;rounded=0;orthogonalLoop=1;jettySize=auto;html=1;exitX=0.5;exitY=1;exitDx=0;exitDy=0;endArrow=none;endFill=0;startArrow=oval;startFill=1;" parent="bwxU4-u0AWpcO3mvrb1C-1" source="N8YyVw2gop-ekfsfYVBa-10" target="lLk8AluBvK_CJyUnXa82-2" edge="1">
          <mxGeometry relative="1" as="geometry" />
        </mxCell>
        <mxCell id="AY8B1AdRTa9FzZcmsV5U-0" value="«entity»&lt;br&gt;&lt;b&gt;ActorRole&lt;/b&gt;" style="html=1;strokeColor=#b85450;align=center;fillColor=#f8cecc;gradientColor=#FF0080;" parent="bwxU4-u0AWpcO3mvrb1C-1" vertex="1">
          <mxGeometry x="755" y="558.75" width="230" height="50" as="geometry" />
        </mxCell>
        <mxCell id="AY8B1AdRTa9FzZcmsV5U-1" style="edgeStyle=orthogonalEdgeStyle;rounded=0;orthogonalLoop=1;jettySize=auto;html=1;endArrow=block;endFill=0;endSize=17;exitX=0.5;exitY=0;exitDx=0;exitDy=0;entryX=0.5;entryY=1;entryDx=0;entryDy=0;" parent="bwxU4-u0AWpcO3mvrb1C-1" source="AY8B1AdRTa9FzZcmsV5U-2" target="AY8B1AdRTa9FzZcmsV5U-0" edge="1">
          <mxGeometry relative="1" as="geometry">
            <mxPoint x="880" y="684.5" as="sourcePoint" />
            <mxPoint x="404" y="213.5" as="targetPoint" />
          </mxGeometry>
        </mxCell>
        <mxCell id="AY8B1AdRTa9FzZcmsV5U-2" value="«entity»&lt;br&gt;&lt;b&gt;SolutionActorRole&lt;/b&gt;" style="html=1;strokeColor=#666666;align=center;fillColor=#f5f5f5;gradientColor=#b3b3b3;" parent="bwxU4-u0AWpcO3mvrb1C-1" vertex="1">
          <mxGeometry x="750" y="654.25" width="240" height="50" as="geometry" />
        </mxCell>
        <mxCell id="AY8B1AdRTa9FzZcmsV5U-3" value="&lt;br&gt;&lt;div style=&quot;text-align: left&quot;&gt;&lt;/div&gt;" style="rounded=0;whiteSpace=wrap;html=1;strokeColor=#666666;align=left;fillColor=#f5f5f5;fontColor=#333333;" parent="bwxU4-u0AWpcO3mvrb1C-1" vertex="1">
          <mxGeometry x="750" y="704.25" width="240" height="29.5" as="geometry" />
        </mxCell>
      </root>
    </mxGraphModel>
  </diagram>
  <diagram id="o-Uqw4HetekZOB9chU_F" name="0735-Solution-Ports-and-Wires">
    <mxGraphModel dx="1234" dy="838" grid="1" gridSize="10" guides="1" tooltips="1" connect="1" arrows="1" fold="1" page="1" pageScale="1" pageWidth="827" pageHeight="1169" math="0" shadow="0">
      <root>
        <mxCell id="HhVPO1wGMjnjeWsCbNTi-0" />
        <mxCell id="HhVPO1wGMjnjeWsCbNTi-1" parent="HhVPO1wGMjnjeWsCbNTi-0" />
        <mxCell id="hcyF8H9AKkszwLTk3Nxn-0" value="" style="rounded=0;whiteSpace=wrap;html=1;align=left;fillColor=#f5f5f5;strokeColor=#666666;gradientColor=#b3b3b3;" parent="HhVPO1wGMjnjeWsCbNTi-1" vertex="1">
          <mxGeometry x="13" y="37" width="60" height="20" as="geometry" />
        </mxCell>
        <mxCell id="hcyF8H9AKkszwLTk3Nxn-1" value="0735 - Solution Ports and Wires" style="rounded=0;whiteSpace=wrap;html=1;align=left;verticalAlign=top;fillColor=#f5f5f5;fontColor=#333333;strokeColor=#666666;" parent="HhVPO1wGMjnjeWsCbNTi-1" vertex="1">
          <mxGeometry x="13" y="57" width="1060" height="770" as="geometry" />
        </mxCell>
        <mxCell id="hcyF8H9AKkszwLTk3Nxn-2" value="«entity»&lt;br&gt;&lt;b&gt;Referenceable&lt;/b&gt;" style="html=1;strokeColor=#d6b656;align=center;fillColor=#fff2cc;gradientColor=#ffd966;" parent="HhVPO1wGMjnjeWsCbNTi-1" vertex="1">
          <mxGeometry x="368" y="140" width="240" height="50" as="geometry" />
        </mxCell>
        <mxCell id="hcyF8H9AKkszwLTk3Nxn-3" style="edgeStyle=orthogonalEdgeStyle;rounded=0;html=1;exitX=0;exitY=0.5;dashed=1;endArrow=none;endFill=0;jettySize=auto;orthogonalLoop=1;exitDx=0;exitDy=0;" parent="HhVPO1wGMjnjeWsCbNTi-1" source="hcyF8H9AKkszwLTk3Nxn-4" edge="1">
          <mxGeometry relative="1" as="geometry">
            <mxPoint x="628" y="200" as="targetPoint" />
            <Array as="points">
              <mxPoint x="738" y="167" />
              <mxPoint x="738" y="200" />
            </Array>
          </mxGeometry>
        </mxCell>
        <mxCell id="hcyF8H9AKkszwLTk3Nxn-4" value="«relationship»&lt;br&gt;&lt;b&gt;SolutionLinkingWire&lt;/b&gt;" style="html=1;strokeColor=#666666;align=center;fillColor=#f5f5f5;gradientColor=#b3b3b3;" parent="HhVPO1wGMjnjeWsCbNTi-1" vertex="1">
          <mxGeometry x="728" y="161.5" width="300" height="50" as="geometry" />
        </mxCell>
        <mxCell id="hcyF8H9AKkszwLTk3Nxn-5" value="&lt;div&gt;label : string&lt;br&gt;description : string&lt;br&gt;&lt;/div&gt;iscQualifiedNames : array&amp;lt;string&amp;gt;&amp;nbsp;" style="rounded=0;whiteSpace=wrap;html=1;strokeColor=#666666;align=left;fillColor=#f5f5f5;fontColor=#333333;" parent="HhVPO1wGMjnjeWsCbNTi-1" vertex="1">
          <mxGeometry x="728" y="211.5" width="300" height="78.5" as="geometry" />
        </mxCell>
        <mxCell id="hcyF8H9AKkszwLTk3Nxn-6" style="edgeStyle=orthogonalEdgeStyle;rounded=0;html=1;exitX=0;exitY=0.5;entryX=0.5;entryY=0;jettySize=auto;orthogonalLoop=1;endArrow=none;endFill=0;" parent="HhVPO1wGMjnjeWsCbNTi-1" source="hcyF8H9AKkszwLTk3Nxn-7" target="hcyF8H9AKkszwLTk3Nxn-8" edge="1">
          <mxGeometry relative="1" as="geometry" />
        </mxCell>
        <mxCell id="hcyF8H9AKkszwLTk3Nxn-7" value="" style="triangle;whiteSpace=wrap;html=1;strokeColor=#000000;gradientColor=#ffffff;align=center;rotation=-90;" parent="HhVPO1wGMjnjeWsCbNTi-1" vertex="1">
          <mxGeometry x="479.5" y="190" width="17" height="21" as="geometry" />
        </mxCell>
        <mxCell id="hcyF8H9AKkszwLTk3Nxn-8" value="«entity»&lt;br&gt;&lt;b&gt;SolutionPort&lt;/b&gt;" style="html=1;strokeColor=#666666;align=center;fillColor=#f5f5f5;gradientColor=#b3b3b3;" parent="HhVPO1wGMjnjeWsCbNTi-1" vertex="1">
          <mxGeometry x="368" y="260.5" width="240" height="50" as="geometry" />
        </mxCell>
        <mxCell id="hcyF8H9AKkszwLTk3Nxn-9" style="edgeStyle=orthogonalEdgeStyle;rounded=0;html=1;exitX=0.75;exitY=1;entryX=1;entryY=0.5;endArrow=oval;endFill=1;jettySize=auto;orthogonalLoop=1;entryDx=0;entryDy=0;exitDx=0;exitDy=0;strokeWidth=1;" parent="HhVPO1wGMjnjeWsCbNTi-1" source="hcyF8H9AKkszwLTk3Nxn-2" target="hcyF8H9AKkszwLTk3Nxn-2" edge="1">
          <mxGeometry relative="1" as="geometry" />
        </mxCell>
        <mxCell id="hcyF8H9AKkszwLTk3Nxn-10" value="&lt;div&gt;userDefinedStatus : string&lt;br&gt;direction : SolutionPortDirection&lt;br&gt;&lt;div style=&quot;text-align: left&quot;&gt;&lt;/div&gt;&lt;/div&gt;" style="rounded=0;whiteSpace=wrap;html=1;strokeColor=#666666;align=left;fillColor=#f5f5f5;fontColor=#333333;" parent="HhVPO1wGMjnjeWsCbNTi-1" vertex="1">
          <mxGeometry x="368" y="310.5" width="240" height="49.5" as="geometry" />
        </mxCell>
        <mxCell id="hcyF8H9AKkszwLTk3Nxn-11" value="wiredTo" style="text;html=1;resizable=0;points=[];autosize=1;align=center;verticalAlign=top;spacingTop=-4;" parent="HhVPO1wGMjnjeWsCbNTi-1" vertex="1">
          <mxGeometry x="608.5" y="141.5" width="60" height="20" as="geometry" />
        </mxCell>
        <mxCell id="hcyF8H9AKkszwLTk3Nxn-12" value="*" style="text;html=1;resizable=0;points=[];autosize=1;align=center;verticalAlign=top;spacingTop=-4;" parent="HhVPO1wGMjnjeWsCbNTi-1" vertex="1">
          <mxGeometry x="608.5" y="176" width="15" height="14" as="geometry" />
        </mxCell>
        <mxCell id="hcyF8H9AKkszwLTk3Nxn-13" value="*" style="text;html=1;resizable=0;points=[];autosize=1;align=center;verticalAlign=top;spacingTop=-4;" parent="HhVPO1wGMjnjeWsCbNTi-1" vertex="1">
          <mxGeometry x="526" y="193.5" width="15" height="14" as="geometry" />
        </mxCell>
        <mxCell id="hcyF8H9AKkszwLTk3Nxn-14" value="wiredTo" style="text;html=1;resizable=0;points=[];autosize=1;align=center;verticalAlign=top;spacingTop=-4;" parent="HhVPO1wGMjnjeWsCbNTi-1" vertex="1">
          <mxGeometry x="541" y="211" width="60" height="20" as="geometry" />
        </mxCell>
        <mxCell id="hcyF8H9AKkszwLTk3Nxn-16" style="edgeStyle=orthogonalEdgeStyle;rounded=0;html=1;exitX=0.75;exitY=1;endArrow=oval;endFill=1;jettySize=auto;orthogonalLoop=1;entryX=0.25;entryY=1;entryDx=0;entryDy=0;exitDx=0;exitDy=0;" parent="HhVPO1wGMjnjeWsCbNTi-1" source="hcyF8H9AKkszwLTk3Nxn-10" target="hcyF8H9AKkszwLTk3Nxn-10" edge="1">
          <mxGeometry relative="1" as="geometry">
            <mxPoint x="418" y="409.5" as="targetPoint" />
            <mxPoint x="538" y="409.5" as="sourcePoint" />
            <Array as="points">
              <mxPoint x="548" y="420" />
              <mxPoint x="428" y="420" />
            </Array>
          </mxGeometry>
        </mxCell>
        <mxCell id="hcyF8H9AKkszwLTk3Nxn-17" style="edgeStyle=orthogonalEdgeStyle;rounded=0;html=1;exitX=0;exitY=0.5;endArrow=none;endFill=0;jettySize=auto;orthogonalLoop=1;dashed=1;" parent="HhVPO1wGMjnjeWsCbNTi-1" source="hcyF8H9AKkszwLTk3Nxn-18" edge="1">
          <mxGeometry relative="1" as="geometry">
            <mxPoint x="490" y="420" as="targetPoint" />
          </mxGeometry>
        </mxCell>
        <mxCell id="hcyF8H9AKkszwLTk3Nxn-18" value="«relationship»&lt;br&gt;&lt;b&gt;SolutionPortDelegation&lt;/b&gt;" style="html=1;strokeColor=#666666;align=center;fillColor=#f5f5f5;gradientColor=#b3b3b3;" parent="HhVPO1wGMjnjeWsCbNTi-1" vertex="1">
          <mxGeometry x="608" y="450" width="237.5" height="50" as="geometry" />
        </mxCell>
        <mxCell id="hcyF8H9AKkszwLTk3Nxn-19" value="" style="rounded=0;whiteSpace=wrap;html=1;strokeColor=#666666;align=left;fillColor=#f5f5f5;fontColor=#333333;" parent="HhVPO1wGMjnjeWsCbNTi-1" vertex="1">
          <mxGeometry x="608.5" y="500" width="237" height="30" as="geometry" />
        </mxCell>
        <mxCell id="hcyF8H9AKkszwLTk3Nxn-20" value="0..1" style="text;html=1;resizable=0;points=[];autosize=1;align=center;verticalAlign=top;spacingTop=-4;" parent="HhVPO1wGMjnjeWsCbNTi-1" vertex="1">
          <mxGeometry x="511" y="364" width="40" height="20" as="geometry" />
        </mxCell>
        <mxCell id="hcyF8H9AKkszwLTk3Nxn-21" value="*" style="text;html=1;resizable=0;points=[];autosize=1;align=center;verticalAlign=top;spacingTop=-4;" parent="HhVPO1wGMjnjeWsCbNTi-1" vertex="1">
          <mxGeometry x="430" y="370" width="15" height="14" as="geometry" />
        </mxCell>
        <mxCell id="hcyF8H9AKkszwLTk3Nxn-22" value="delegationPorts" style="text;html=1;resizable=0;points=[];autosize=1;align=center;verticalAlign=top;spacingTop=-4;" parent="HhVPO1wGMjnjeWsCbNTi-1" vertex="1">
          <mxGeometry x="314" y="364" width="100" height="20" as="geometry" />
        </mxCell>
        <mxCell id="hcyF8H9AKkszwLTk3Nxn-23" value="alignsToPort" style="text;html=1;resizable=0;points=[];autosize=1;align=center;verticalAlign=top;spacingTop=-4;" parent="HhVPO1wGMjnjeWsCbNTi-1" vertex="1">
          <mxGeometry x="551.5" y="367" width="80" height="20" as="geometry" />
        </mxCell>
        <mxCell id="jyuDRc2R66ybKNxb0MKp-0" style="edgeStyle=orthogonalEdgeStyle;rounded=0;orthogonalLoop=1;jettySize=auto;html=1;entryX=0;entryY=0.5;entryDx=0;entryDy=0;endArrow=oval;endFill=1;" parent="HhVPO1wGMjnjeWsCbNTi-1" source="hcyF8H9AKkszwLTk3Nxn-24" target="hcyF8H9AKkszwLTk3Nxn-8" edge="1">
          <mxGeometry relative="1" as="geometry" />
        </mxCell>
        <mxCell id="hcyF8H9AKkszwLTk3Nxn-24" value="«entity»&lt;br&gt;&lt;b&gt;SolutionComponent&lt;/b&gt;" style="html=1;strokeColor=#666666;align=center;fillColor=#f5f5f5;gradientColor=#b3b3b3;" parent="HhVPO1wGMjnjeWsCbNTi-1" vertex="1">
          <mxGeometry x="58" y="260.5" width="180" height="50" as="geometry" />
        </mxCell>
        <mxCell id="jyuDRc2R66ybKNxb0MKp-1" value="*" style="text;html=1;resizable=0;points=[];autosize=1;align=center;verticalAlign=top;spacingTop=-4;" parent="HhVPO1wGMjnjeWsCbNTi-1" vertex="1">
          <mxGeometry x="348" y="266.5" width="15" height="14" as="geometry" />
        </mxCell>
        <mxCell id="jyuDRc2R66ybKNxb0MKp-2" value="1" style="text;html=1;resizable=0;points=[];autosize=1;align=center;verticalAlign=top;spacingTop=-4;" parent="HhVPO1wGMjnjeWsCbNTi-1" vertex="1">
          <mxGeometry x="240" y="263.5" width="20" height="20" as="geometry" />
        </mxCell>
        <mxCell id="jyuDRc2R66ybKNxb0MKp-3" value="solutionComponent" style="text;html=1;resizable=0;points=[];autosize=1;align=center;verticalAlign=top;spacingTop=-4;" parent="HhVPO1wGMjnjeWsCbNTi-1" vertex="1">
          <mxGeometry x="210" y="320" width="120" height="20" as="geometry" />
        </mxCell>
        <mxCell id="jyuDRc2R66ybKNxb0MKp-4" value="solutionPorts" style="text;html=1;resizable=0;points=[];autosize=1;align=center;verticalAlign=top;spacingTop=-4;" parent="HhVPO1wGMjnjeWsCbNTi-1" vertex="1">
          <mxGeometry x="288" y="286" width="80" height="20" as="geometry" />
        </mxCell>
        <mxCell id="WTzaCA7OmJxT4G-9FvgD-0" value="«enumeration»&lt;br&gt;&lt;b&gt;SolutionPortDirection&lt;/b&gt;" style="html=1;strokeColor=#666666;align=center;fillColor=#f5f5f5;gradientColor=#b3b3b3;" parent="HhVPO1wGMjnjeWsCbNTi-1" vertex="1">
          <mxGeometry x="108" y="421" width="182" height="53" as="geometry" />
        </mxCell>
        <mxCell id="WTzaCA7OmJxT4G-9FvgD-1" value="UNKNOWN = 0&lt;br&gt;OUTPUT = 1&lt;br&gt;INPUT = 2&lt;br&gt;INOUT = 3&lt;br&gt;OUTIN = 4&lt;br&gt;OTHER = 99" style="rounded=0;whiteSpace=wrap;html=1;strokeColor=#666666;align=left;fillColor=#f5f5f5;fontColor=#333333;" parent="HhVPO1wGMjnjeWsCbNTi-1" vertex="1">
          <mxGeometry x="108.5" y="475" width="182" height="95" as="geometry" />
        </mxCell>
        <mxCell id="WTzaCA7OmJxT4G-9FvgD-2" style="edgeStyle=orthogonalEdgeStyle;rounded=0;html=1;exitX=0.5;exitY=1;endArrow=none;endFill=0;jettySize=auto;orthogonalLoop=1;dashed=1;exitDx=0;exitDy=0;" parent="HhVPO1wGMjnjeWsCbNTi-1" source="WTzaCA7OmJxT4G-9FvgD-4" edge="1">
          <mxGeometry relative="1" as="geometry">
            <mxPoint x="308" y="280" as="targetPoint" />
          </mxGeometry>
        </mxCell>
        <mxCell id="WTzaCA7OmJxT4G-9FvgD-3" value="«relationship»&lt;br&gt;&lt;b&gt;SolutionComponentPort&lt;/b&gt;" style="html=1;strokeColor=#666666;align=center;fillColor=#f5f5f5;gradientColor=#b3b3b3;" parent="HhVPO1wGMjnjeWsCbNTi-1" vertex="1">
          <mxGeometry x="100" y="130" width="237.5" height="50" as="geometry" />
        </mxCell>
        <mxCell id="WTzaCA7OmJxT4G-9FvgD-4" value="" style="rounded=0;whiteSpace=wrap;html=1;strokeColor=#666666;align=left;fillColor=#f5f5f5;fontColor=#333333;" parent="HhVPO1wGMjnjeWsCbNTi-1" vertex="1">
          <mxGeometry x="100.5" y="180" width="237" height="31" as="geometry" />
        </mxCell>
        <mxCell id="uMywddVs4lnWGdSOSl6S-0" value="«entity»&lt;br&gt;&lt;b&gt;SolutionPort&lt;/b&gt;" style="html=1;strokeColor=#666666;align=center;fillColor=#f5f5f5;gradientColor=#b3b3b3;" parent="HhVPO1wGMjnjeWsCbNTi-1" vertex="1">
          <mxGeometry x="139.5" y="733" width="192.5" height="50" as="geometry" />
        </mxCell>
        <mxCell id="uMywddVs4lnWGdSOSl6S-1" style="edgeStyle=orthogonalEdgeStyle;rounded=0;orthogonalLoop=1;jettySize=auto;html=1;entryX=0;entryY=0.5;entryDx=0;entryDy=0;endArrow=oval;endFill=1;exitX=1;exitY=0.5;exitDx=0;exitDy=0;" parent="HhVPO1wGMjnjeWsCbNTi-1" source="uMywddVs4lnWGdSOSl6S-0" edge="1">
          <mxGeometry relative="1" as="geometry">
            <mxPoint x="527" y="757.5" as="sourcePoint" />
            <mxPoint x="657" y="757.5" as="targetPoint" />
          </mxGeometry>
        </mxCell>
        <mxCell id="uMywddVs4lnWGdSOSl6S-2" value="«entity»&lt;br&gt;&lt;b&gt;SchemaType&lt;/b&gt;" style="html=1;strokeColor=#996185;align=center;fillColor=#e6d0de;gradientColor=#d5739d;" parent="HhVPO1wGMjnjeWsCbNTi-1" vertex="1">
          <mxGeometry x="660.5" y="733" width="240" height="50" as="geometry" />
        </mxCell>
        <mxCell id="uMywddVs4lnWGdSOSl6S-5" value="*" style="text;html=1;resizable=0;points=[];autosize=1;align=center;verticalAlign=top;spacingTop=-4;" parent="HhVPO1wGMjnjeWsCbNTi-1" vertex="1">
          <mxGeometry x="336" y="765" width="15" height="14" as="geometry" />
        </mxCell>
        <mxCell id="uMywddVs4lnWGdSOSl6S-6" value="0..1" style="text;html=1;resizable=0;points=[];autosize=1;align=center;verticalAlign=top;spacingTop=-4;" parent="HhVPO1wGMjnjeWsCbNTi-1" vertex="1">
          <mxGeometry x="619" y="733" width="40" height="20" as="geometry" />
        </mxCell>
        <mxCell id="uMywddVs4lnWGdSOSl6S-7" value="describesSolutionPortData" style="text;html=1;resizable=0;points=[];autosize=1;align=center;verticalAlign=top;spacingTop=-4;" parent="HhVPO1wGMjnjeWsCbNTi-1" vertex="1">
          <mxGeometry x="332" y="733" width="160" height="20" as="geometry" />
        </mxCell>
        <mxCell id="uMywddVs4lnWGdSOSl6S-8" value="solutionPortSchema" style="text;html=1;resizable=0;points=[];autosize=1;align=center;verticalAlign=top;spacingTop=-4;" parent="HhVPO1wGMjnjeWsCbNTi-1" vertex="1">
          <mxGeometry x="529.5" y="765" width="120" height="20" as="geometry" />
        </mxCell>
        <mxCell id="uMywddVs4lnWGdSOSl6S-9" style="edgeStyle=orthogonalEdgeStyle;rounded=0;html=1;exitX=0.5;exitY=1;endArrow=none;endFill=0;jettySize=auto;orthogonalLoop=1;dashed=1;exitDx=0;exitDy=0;" parent="HhVPO1wGMjnjeWsCbNTi-1" source="uMywddVs4lnWGdSOSl6S-11" edge="1">
          <mxGeometry relative="1" as="geometry">
            <mxPoint x="512.5" y="750" as="targetPoint" />
            <mxPoint x="512.5" y="704" as="sourcePoint" />
            <Array as="points">
              <mxPoint x="512.5" y="760" />
            </Array>
          </mxGeometry>
        </mxCell>
        <mxCell id="uMywddVs4lnWGdSOSl6S-10" value="«relationship»&lt;br&gt;&lt;b&gt;SolutionPortSchema&lt;/b&gt;" style="html=1;strokeColor=#666666;align=center;fillColor=#f5f5f5;gradientColor=#b3b3b3;" parent="HhVPO1wGMjnjeWsCbNTi-1" vertex="1">
          <mxGeometry x="394" y="610" width="237.5" height="50" as="geometry" />
        </mxCell>
        <mxCell id="uMywddVs4lnWGdSOSl6S-11" value="" style="rounded=0;whiteSpace=wrap;html=1;strokeColor=#666666;align=left;fillColor=#f5f5f5;fontColor=#333333;" parent="HhVPO1wGMjnjeWsCbNTi-1" vertex="1">
          <mxGeometry x="394" y="660" width="237" height="30" as="geometry" />
        </mxCell>
      </root>
    </mxGraphModel>
  </diagram>
  <diagram id="Fgw7fBvsmTOvwbdS5kJK" name="0737-Solution-Implementation">
    <mxGraphModel dx="2074" dy="1159" grid="1" gridSize="10" guides="1" tooltips="1" connect="1" arrows="1" fold="1" page="1" pageScale="1" pageWidth="827" pageHeight="1169" math="0" shadow="0">
      <root>
        <mxCell id="p7hClk6sZ-XepdoYC8GG-0" />
        <mxCell id="p7hClk6sZ-XepdoYC8GG-1" parent="p7hClk6sZ-XepdoYC8GG-0" />
        <mxCell id="LnJQTlXx5FRkNHHAeORv-0" value="" style="rounded=0;whiteSpace=wrap;html=1;align=left;fillColor=#f5f5f5;strokeColor=#666666;gradientColor=#b3b3b3;" parent="p7hClk6sZ-XepdoYC8GG-1" vertex="1">
          <mxGeometry x="13" y="37" width="60" height="20" as="geometry" />
        </mxCell>
        <mxCell id="LnJQTlXx5FRkNHHAeORv-1" value="0737 - Solution Implementation" style="rounded=0;whiteSpace=wrap;html=1;align=left;verticalAlign=top;" parent="p7hClk6sZ-XepdoYC8GG-1" vertex="1">
          <mxGeometry x="13" y="57" width="1060" height="770" as="geometry" />
        </mxCell>
        <mxCell id="LnJQTlXx5FRkNHHAeORv-8" value="«entity»&lt;br&gt;&lt;b&gt;Referenceable&lt;/b&gt;" style="html=1;strokeColor=#d6b656;align=center;fillColor=#fff2cc;gradientColor=#ffd966;" parent="p7hClk6sZ-XepdoYC8GG-1" vertex="1">
          <mxGeometry x="423.25" y="230" width="240" height="50" as="geometry" />
        </mxCell>
        <mxCell id="LnJQTlXx5FRkNHHAeORv-13" value="«entity»&lt;br&gt;&lt;b&gt;Referenceable&lt;/b&gt;" style="html=1;strokeColor=#d6b656;align=center;fillColor=#fff2cc;gradientColor=#ffd966;" parent="p7hClk6sZ-XepdoYC8GG-1" vertex="1">
          <mxGeometry x="423.25" y="543.5" width="240" height="50" as="geometry" />
        </mxCell>
        <mxCell id="LnJQTlXx5FRkNHHAeORv-16" style="edgeStyle=orthogonalEdgeStyle;rounded=0;html=1;exitX=0;exitY=0.5;endArrow=none;endFill=0;jettySize=auto;orthogonalLoop=1;dashed=1;" parent="p7hClk6sZ-XepdoYC8GG-1" source="LnJQTlXx5FRkNHHAeORv-17" edge="1">
          <mxGeometry relative="1" as="geometry">
            <mxPoint x="684.75" y="355" as="targetPoint" />
          </mxGeometry>
        </mxCell>
        <mxCell id="LnJQTlXx5FRkNHHAeORv-17" value="«relationship»&lt;br&gt;&lt;b&gt;ImplementedBy&lt;/b&gt;" style="html=1;strokeColor=#666666;align=center;fillColor=#f5f5f5;gradientColor=#b3b3b3;" parent="p7hClk6sZ-XepdoYC8GG-1" vertex="1">
          <mxGeometry x="775.25" y="330" width="206" height="50" as="geometry" />
        </mxCell>
        <mxCell id="LnJQTlXx5FRkNHHAeORv-18" value="designStep : string&lt;br&gt;role : string&lt;br&gt;transformation : string&lt;br&gt;description : string&lt;div&gt;iscQualifiedName : string&lt;/div&gt;" style="rounded=0;whiteSpace=wrap;html=1;strokeColor=#000000;gradientColor=#ffffff;align=left;" parent="p7hClk6sZ-XepdoYC8GG-1" vertex="1">
          <mxGeometry x="774.75" y="380" width="206" height="90" as="geometry" />
        </mxCell>
        <mxCell id="LnJQTlXx5FRkNHHAeORv-25" value="*" style="text;html=1;resizable=0;points=[];autosize=1;align=center;verticalAlign=top;spacingTop=-4;" parent="p7hClk6sZ-XepdoYC8GG-1" vertex="1">
          <mxGeometry x="687.75" y="260" width="15" height="14" as="geometry" />
        </mxCell>
        <mxCell id="LnJQTlXx5FRkNHHAeORv-27" value="*" style="text;html=1;resizable=0;points=[];autosize=1;align=center;verticalAlign=top;spacingTop=-4;" parent="p7hClk6sZ-XepdoYC8GG-1" vertex="1">
          <mxGeometry x="687.75" y="550" width="15" height="14" as="geometry" />
        </mxCell>
        <mxCell id="LnJQTlXx5FRkNHHAeORv-29" value="derivedFrom" style="text;html=1;resizable=0;points=[];autosize=1;align=center;verticalAlign=top;spacingTop=-4;" parent="p7hClk6sZ-XepdoYC8GG-1" vertex="1">
          <mxGeometry x="674.75" y="230" width="80" height="20" as="geometry" />
        </mxCell>
        <mxCell id="LnJQTlXx5FRkNHHAeORv-30" value="implementedBy" style="text;html=1;resizable=0;points=[];autosize=1;align=center;verticalAlign=top;spacingTop=-4;" parent="p7hClk6sZ-XepdoYC8GG-1" vertex="1">
          <mxGeometry x="674.75" y="575" width="100" height="20" as="geometry" />
        </mxCell>
        <mxCell id="LnJQTlXx5FRkNHHAeORv-14" style="edgeStyle=orthogonalEdgeStyle;rounded=0;html=1;exitX=1;exitY=0.5;endArrow=none;endFill=0;jettySize=auto;orthogonalLoop=1;entryX=1;entryY=0.5;entryDx=0;entryDy=0;exitDx=0;exitDy=0;startArrow=oval;startFill=1;" parent="p7hClk6sZ-XepdoYC8GG-1" source="LnJQTlXx5FRkNHHAeORv-13" target="LnJQTlXx5FRkNHHAeORv-8" edge="1">
          <mxGeometry relative="1" as="geometry">
            <mxPoint x="664.75" y="250" as="targetPoint" />
          </mxGeometry>
        </mxCell>
        <mxCell id="dB4FPdV6MOcURFnhSZ9u-0" style="edgeStyle=orthogonalEdgeStyle;rounded=0;html=1;exitX=1;exitY=0.5;endArrow=none;endFill=0;jettySize=auto;orthogonalLoop=1;dashed=1;exitDx=0;exitDy=0;" edge="1" parent="p7hClk6sZ-XepdoYC8GG-1" source="dB4FPdV6MOcURFnhSZ9u-1">
          <mxGeometry relative="1" as="geometry">
            <mxPoint x="404.75" y="355" as="targetPoint" />
          </mxGeometry>
        </mxCell>
        <mxCell id="dB4FPdV6MOcURFnhSZ9u-1" value="«relationship»&lt;br&gt;&lt;b&gt;ImplementationResource&lt;/b&gt;" style="html=1;strokeColor=#666666;align=center;fillColor=#f5f5f5;gradientColor=#b3b3b3;" vertex="1" parent="p7hClk6sZ-XepdoYC8GG-1">
          <mxGeometry x="104.75" y="330" width="206" height="50" as="geometry" />
        </mxCell>
        <mxCell id="dB4FPdV6MOcURFnhSZ9u-2" value="description : string" style="rounded=0;whiteSpace=wrap;html=1;strokeColor=#000000;gradientColor=#ffffff;align=left;" vertex="1" parent="p7hClk6sZ-XepdoYC8GG-1">
          <mxGeometry x="104.75" y="380" width="206" height="40" as="geometry" />
        </mxCell>
        <mxCell id="dB4FPdV6MOcURFnhSZ9u-3" value="*" style="text;html=1;resizable=0;points=[];autosize=1;align=center;verticalAlign=top;spacingTop=-4;" vertex="1" parent="p7hClk6sZ-XepdoYC8GG-1">
          <mxGeometry x="384.75" y="260" width="15" height="14" as="geometry" />
        </mxCell>
        <mxCell id="dB4FPdV6MOcURFnhSZ9u-4" value="*" style="text;html=1;resizable=0;points=[];autosize=1;align=center;verticalAlign=top;spacingTop=-4;" vertex="1" parent="p7hClk6sZ-XepdoYC8GG-1">
          <mxGeometry x="384.75" y="550" width="15" height="14" as="geometry" />
        </mxCell>
        <mxCell id="dB4FPdV6MOcURFnhSZ9u-5" value="usedInImplementationOf" style="text;html=1;resizable=0;points=[];autosize=1;align=center;verticalAlign=top;spacingTop=-4;" vertex="1" parent="p7hClk6sZ-XepdoYC8GG-1">
          <mxGeometry x="268.25" y="230" width="150" height="20" as="geometry" />
        </mxCell>
        <mxCell id="dB4FPdV6MOcURFnhSZ9u-6" value="implementationResources" style="text;html=1;resizable=0;points=[];autosize=1;align=center;verticalAlign=top;spacingTop=-4;" vertex="1" parent="p7hClk6sZ-XepdoYC8GG-1">
          <mxGeometry x="263.25" y="575" width="160" height="20" as="geometry" />
        </mxCell>
        <mxCell id="dB4FPdV6MOcURFnhSZ9u-7" style="edgeStyle=orthogonalEdgeStyle;rounded=0;html=1;exitX=0;exitY=0.5;endArrow=none;endFill=0;jettySize=auto;orthogonalLoop=1;entryX=0;entryY=0.5;entryDx=0;entryDy=0;exitDx=0;exitDy=0;startArrow=oval;startFill=1;" edge="1" parent="p7hClk6sZ-XepdoYC8GG-1" source="LnJQTlXx5FRkNHHAeORv-13" target="LnJQTlXx5FRkNHHAeORv-8">
          <mxGeometry relative="1" as="geometry">
            <mxPoint x="374.5" y="280" as="targetPoint" />
            <mxPoint x="374.5" y="544" as="sourcePoint" />
          </mxGeometry>
        </mxCell>
      </root>
    </mxGraphModel>
  </diagram>
  <diagram id="zeh9QLlwX3uoVechH5yD" name="0740-Solution-Blueprints">
    <mxGraphModel dx="1234" dy="838" grid="1" gridSize="10" guides="1" tooltips="1" connect="1" arrows="1" fold="1" page="1" pageScale="1" pageWidth="827" pageHeight="1169" math="0" shadow="0">
      <root>
        <mxCell id="iDyODMelmu4Kh6T8s1Pu-0" />
        <mxCell id="iDyODMelmu4Kh6T8s1Pu-1" parent="iDyODMelmu4Kh6T8s1Pu-0" />
        <mxCell id="Nuc9nWQwe1Aj0xrVQ4iN-0" value="" style="rounded=0;whiteSpace=wrap;html=1;align=left;fillColor=#f5f5f5;strokeColor=#666666;gradientColor=#b3b3b3;" parent="iDyODMelmu4Kh6T8s1Pu-1" vertex="1">
          <mxGeometry x="13" y="37" width="60" height="20" as="geometry" />
        </mxCell>
        <mxCell id="Nuc9nWQwe1Aj0xrVQ4iN-1" value="0740 - Solution Blueprints" style="rounded=0;whiteSpace=wrap;html=1;align=left;verticalAlign=top;fillColor=#f5f5f5;fontColor=#333333;strokeColor=#666666;" parent="iDyODMelmu4Kh6T8s1Pu-1" vertex="1">
          <mxGeometry x="13" y="57" width="1060" height="770" as="geometry" />
        </mxCell>
        <mxCell id="Nuc9nWQwe1Aj0xrVQ4iN-2" value="«entity»&lt;br&gt;&lt;b&gt;Referenceable&lt;/b&gt;" style="html=1;strokeColor=#d6b656;align=center;fillColor=#fff2cc;gradientColor=#ffd966;" parent="iDyODMelmu4Kh6T8s1Pu-1" vertex="1">
          <mxGeometry x="520" y="150" width="240" height="50" as="geometry" />
        </mxCell>
        <mxCell id="Nuc9nWQwe1Aj0xrVQ4iN-3" style="edgeStyle=orthogonalEdgeStyle;rounded=0;html=1;exitX=0.5;exitY=0;dashed=1;endArrow=none;endFill=0;jettySize=auto;orthogonalLoop=1;exitDx=0;exitDy=0;" parent="iDyODMelmu4Kh6T8s1Pu-1" source="Nuc9nWQwe1Aj0xrVQ4iN-4" edge="1">
          <mxGeometry relative="1" as="geometry">
            <mxPoint x="380" y="330" as="targetPoint" />
            <Array as="points">
              <mxPoint x="383" y="330" />
            </Array>
          </mxGeometry>
        </mxCell>
        <mxCell id="Nuc9nWQwe1Aj0xrVQ4iN-4" value="«relationship»&lt;br&gt;&lt;b&gt;SolutionDesign&lt;/b&gt;" style="html=1;strokeColor=#666666;align=center;fillColor=#f5f5f5;gradientColor=#b3b3b3;" parent="iDyODMelmu4Kh6T8s1Pu-1" vertex="1">
          <mxGeometry x="260" y="464.5" width="246" height="50" as="geometry" />
        </mxCell>
        <mxCell id="Nuc9nWQwe1Aj0xrVQ4iN-5" value="" style="rounded=0;whiteSpace=wrap;html=1;strokeColor=#666666;align=left;fillColor=#f5f5f5;fontColor=#333333;" parent="iDyODMelmu4Kh6T8s1Pu-1" vertex="1">
          <mxGeometry x="260" y="514.5" width="246.5" height="33" as="geometry" />
        </mxCell>
        <mxCell id="eQcKejeaj2aar6C-FAFI-0" style="edgeStyle=orthogonalEdgeStyle;rounded=0;orthogonalLoop=1;jettySize=auto;html=1;exitX=0.5;exitY=0;exitDx=0;exitDy=0;entryX=0.5;entryY=1;entryDx=0;entryDy=0;startArrow=none;startFill=0;endArrow=block;endFill=0;endSize=18;strokeWidth=1;" parent="iDyODMelmu4Kh6T8s1Pu-1" source="Nuc9nWQwe1Aj0xrVQ4iN-8" target="Nuc9nWQwe1Aj0xrVQ4iN-2" edge="1">
          <mxGeometry relative="1" as="geometry" />
        </mxCell>
        <mxCell id="Nuc9nWQwe1Aj0xrVQ4iN-8" value="«entity»&lt;br&gt;&lt;b&gt;SolutionBlueprint&lt;/b&gt;" style="html=1;strokeColor=#666666;align=center;fillColor=#f5f5f5;gradientColor=#b3b3b3;" parent="iDyODMelmu4Kh6T8s1Pu-1" vertex="1">
          <mxGeometry x="520" y="300.5" width="240" height="50" as="geometry" />
        </mxCell>
        <mxCell id="Nuc9nWQwe1Aj0xrVQ4iN-9" style="edgeStyle=orthogonalEdgeStyle;rounded=0;html=1;exitX=1;exitY=0.5;entryX=0;entryY=0.5;endArrow=oval;endFill=1;jettySize=auto;orthogonalLoop=1;entryDx=0;entryDy=0;exitDx=0;exitDy=0;" parent="iDyODMelmu4Kh6T8s1Pu-1" target="Nuc9nWQwe1Aj0xrVQ4iN-8" edge="1">
          <mxGeometry relative="1" as="geometry">
            <mxPoint x="224.5" y="325.5" as="sourcePoint" />
            <mxPoint x="110" y="479.5" as="targetPoint" />
          </mxGeometry>
        </mxCell>
        <mxCell id="Nuc9nWQwe1Aj0xrVQ4iN-10" value="&lt;div&gt;userDefinedStatus : string&lt;/div&gt;" style="rounded=0;whiteSpace=wrap;html=1;strokeColor=#666666;align=left;fillColor=#f5f5f5;fontColor=#333333;" parent="iDyODMelmu4Kh6T8s1Pu-1" vertex="1">
          <mxGeometry x="520" y="350.5" width="240" height="49.5" as="geometry" />
        </mxCell>
        <mxCell id="Nuc9nWQwe1Aj0xrVQ4iN-11" value="solutionDesigns" style="text;html=1;resizable=0;points=[];autosize=1;align=center;verticalAlign=top;spacingTop=-4;" parent="iDyODMelmu4Kh6T8s1Pu-1" vertex="1">
          <mxGeometry x="411.5" y="300.5" width="110" height="20" as="geometry" />
        </mxCell>
        <mxCell id="Nuc9nWQwe1Aj0xrVQ4iN-12" value="*" style="text;html=1;resizable=0;points=[];autosize=1;align=center;verticalAlign=top;spacingTop=-4;" parent="iDyODMelmu4Kh6T8s1Pu-1" vertex="1">
          <mxGeometry x="230" y="330.5" width="30" height="20" as="geometry" />
        </mxCell>
        <mxCell id="Nuc9nWQwe1Aj0xrVQ4iN-13" value="*" style="text;html=1;resizable=0;points=[];autosize=1;align=center;verticalAlign=top;spacingTop=-4;" parent="iDyODMelmu4Kh6T8s1Pu-1" vertex="1">
          <mxGeometry x="501.5" y="336.5" width="15" height="14" as="geometry" />
        </mxCell>
        <mxCell id="Nuc9nWQwe1Aj0xrVQ4iN-14" value="describesDesignOf" style="text;html=1;resizable=0;points=[];autosize=1;align=center;verticalAlign=top;spacingTop=-4;" parent="iDyODMelmu4Kh6T8s1Pu-1" vertex="1">
          <mxGeometry x="225" y="300.5" width="120" height="20" as="geometry" />
        </mxCell>
        <mxCell id="Nuc9nWQwe1Aj0xrVQ4iN-17" style="edgeStyle=orthogonalEdgeStyle;rounded=0;html=1;exitX=0;exitY=0.5;endArrow=none;endFill=0;jettySize=auto;orthogonalLoop=1;dashed=1;" parent="iDyODMelmu4Kh6T8s1Pu-1" source="Nuc9nWQwe1Aj0xrVQ4iN-18" edge="1">
          <mxGeometry relative="1" as="geometry">
            <mxPoint x="640" y="465" as="targetPoint" />
          </mxGeometry>
        </mxCell>
        <mxCell id="Nuc9nWQwe1Aj0xrVQ4iN-18" value="«relationship»&lt;br&gt;&lt;b&gt;SolutionBlueprintComposition&lt;/b&gt;" style="html=1;strokeColor=#666666;align=center;fillColor=#f5f5f5;gradientColor=#b3b3b3;" parent="iDyODMelmu4Kh6T8s1Pu-1" vertex="1">
          <mxGeometry x="762.5" y="440" width="237.5" height="50" as="geometry" />
        </mxCell>
        <mxCell id="Nuc9nWQwe1Aj0xrVQ4iN-19" value="role : string&lt;br&gt;description : string" style="rounded=0;whiteSpace=wrap;html=1;strokeColor=#666666;align=left;fillColor=#f5f5f5;fontColor=#333333;" parent="iDyODMelmu4Kh6T8s1Pu-1" vertex="1">
          <mxGeometry x="763" y="490" width="237" height="50" as="geometry" />
        </mxCell>
        <mxCell id="Nuc9nWQwe1Aj0xrVQ4iN-20" value="*" style="text;html=1;resizable=0;points=[];autosize=1;align=center;verticalAlign=top;spacingTop=-4;" parent="iDyODMelmu4Kh6T8s1Pu-1" vertex="1">
          <mxGeometry x="648.5" y="407" width="15" height="14" as="geometry" />
        </mxCell>
        <mxCell id="Nuc9nWQwe1Aj0xrVQ4iN-21" value="*" style="text;html=1;resizable=0;points=[];autosize=1;align=center;verticalAlign=top;spacingTop=-4;" parent="iDyODMelmu4Kh6T8s1Pu-1" vertex="1">
          <mxGeometry x="615" y="565.5" width="15" height="14" as="geometry" />
        </mxCell>
        <mxCell id="Nuc9nWQwe1Aj0xrVQ4iN-22" value="usedInSolutionBlueprints" style="text;html=1;resizable=0;points=[];autosize=1;align=center;verticalAlign=top;spacingTop=-4;" parent="iDyODMelmu4Kh6T8s1Pu-1" vertex="1">
          <mxGeometry x="480" y="407" width="150" height="20" as="geometry" />
        </mxCell>
        <mxCell id="Nuc9nWQwe1Aj0xrVQ4iN-23" value="containsSolutionComponents" style="text;html=1;resizable=0;points=[];autosize=1;align=center;verticalAlign=top;spacingTop=-4;" parent="iDyODMelmu4Kh6T8s1Pu-1" vertex="1">
          <mxGeometry x="648.5" y="562" width="170" height="20" as="geometry" />
        </mxCell>
        <mxCell id="2bRppoLMGLrLk0drkfBO-0" value="«entity»&lt;br&gt;&lt;b&gt;SolutionComponent&lt;/b&gt;" style="html=1;strokeColor=#666666;align=center;fillColor=#f5f5f5;gradientColor=#b3b3b3;" parent="iDyODMelmu4Kh6T8s1Pu-1" vertex="1">
          <mxGeometry x="520.5" y="589" width="240" height="50" as="geometry" />
        </mxCell>
        <mxCell id="Nuc9nWQwe1Aj0xrVQ4iN-16" style="edgeStyle=orthogonalEdgeStyle;rounded=0;html=1;exitX=0.5;exitY=0;endArrow=none;endFill=0;jettySize=auto;orthogonalLoop=1;entryX=0.5;entryY=1;entryDx=0;entryDy=0;exitDx=0;exitDy=0;startArrow=oval;startFill=1;" parent="iDyODMelmu4Kh6T8s1Pu-1" source="2bRppoLMGLrLk0drkfBO-0" target="Nuc9nWQwe1Aj0xrVQ4iN-10" edge="1">
          <mxGeometry relative="1" as="geometry">
            <mxPoint x="641" y="410" as="targetPoint" />
          </mxGeometry>
        </mxCell>
        <mxCell id="YLU2RilW4DEBsKLLooS6-0" value="«entity»&lt;br&gt;&lt;b&gt;Referenceable&lt;/b&gt;" style="html=1;strokeColor=#d6b656;align=center;fillColor=#fff2cc;gradientColor=#ffd966;" parent="iDyODMelmu4Kh6T8s1Pu-1" vertex="1">
          <mxGeometry x="60" y="300.5" width="170" height="50" as="geometry" />
        </mxCell>
      </root>
    </mxGraphModel>
  </diagram>
  <diagram id="uawndfutH0yZkuvjO5wC" name="0750-Data-Passing">
    <mxGraphModel dx="1242" dy="806" grid="1" gridSize="10" guides="1" tooltips="1" connect="1" arrows="1" fold="1" page="1" pageScale="1" pageWidth="827" pageHeight="1169" math="0" shadow="0">
      <root>
        <mxCell id="2Mm6Z0idtYBRWI6xiasN-0" />
        <mxCell id="2Mm6Z0idtYBRWI6xiasN-1" parent="2Mm6Z0idtYBRWI6xiasN-0" />
        <mxCell id="W60M6K48ntktgvEDYVN1-0" value="" style="rounded=0;whiteSpace=wrap;html=1;align=left;fillColor=#f5f5f5;strokeColor=#666666;gradientColor=#b3b3b3;" parent="2Mm6Z0idtYBRWI6xiasN-1" vertex="1">
          <mxGeometry x="13" y="37" width="60" height="20" as="geometry" />
        </mxCell>
        <mxCell id="W60M6K48ntktgvEDYVN1-1" value="0750 - Data Passing" style="rounded=0;whiteSpace=wrap;html=1;align=left;verticalAlign=top;" parent="2Mm6Z0idtYBRWI6xiasN-1" vertex="1">
          <mxGeometry x="13" y="57" width="1060" height="770" as="geometry" />
        </mxCell>
        <mxCell id="W60M6K48ntktgvEDYVN1-3" style="edgeStyle=orthogonalEdgeStyle;rounded=0;html=1;dashed=1;endArrow=none;endFill=0;jettySize=auto;orthogonalLoop=1;exitX=0.5;exitY=1;exitDx=0;exitDy=0;" parent="2Mm6Z0idtYBRWI6xiasN-1" source="W60M6K48ntktgvEDYVN1-5" edge="1">
          <mxGeometry relative="1" as="geometry">
            <mxPoint x="410" y="370" as="targetPoint" />
            <Array as="points">
              <mxPoint x="193" y="370" />
            </Array>
          </mxGeometry>
        </mxCell>
        <mxCell id="W60M6K48ntktgvEDYVN1-4" value="«relationship»&lt;br&gt;&lt;b&gt;DataFlow&lt;/b&gt;" style="html=1;strokeColor=#666666;align=center;fillColor=#f5f5f5;gradientColor=#b3b3b3;" parent="2Mm6Z0idtYBRWI6xiasN-1" vertex="1">
          <mxGeometry x="90" y="184" width="206" height="50" as="geometry" />
        </mxCell>
        <mxCell id="W60M6K48ntktgvEDYVN1-5" value="iscQualifiedName : string&lt;div&gt;label : string&lt;br&gt;description : string&lt;br&gt;formula : string&lt;br&gt;formulaType : string&lt;/div&gt;" style="rounded=0;whiteSpace=wrap;html=1;strokeColor=#000000;gradientColor=#ffffff;align=left;" parent="2Mm6Z0idtYBRWI6xiasN-1" vertex="1">
          <mxGeometry x="90" y="234" width="206" height="96" as="geometry" />
        </mxCell>
        <mxCell id="W60M6K48ntktgvEDYVN1-8" value="«entity»&lt;br&gt;&lt;b&gt;Referenceable&lt;/b&gt;" style="html=1;strokeColor=#d6b656;align=center;fillColor=#fff2cc;gradientColor=#ffd966;" parent="2Mm6Z0idtYBRWI6xiasN-1" vertex="1">
          <mxGeometry x="434" y="430.5" width="240" height="50" as="geometry" />
        </mxCell>
        <mxCell id="W60M6K48ntktgvEDYVN1-23" value="dataSupplier" style="text;html=1;resizable=0;points=[];autosize=1;align=center;verticalAlign=top;spacingTop=-4;" parent="2Mm6Z0idtYBRWI6xiasN-1" vertex="1">
          <mxGeometry x="350.5" y="250" width="80" height="20" as="geometry" />
        </mxCell>
        <mxCell id="W60M6K48ntktgvEDYVN1-24" value="*" style="text;html=1;resizable=0;points=[];autosize=1;align=center;verticalAlign=top;spacingTop=-4;" parent="2Mm6Z0idtYBRWI6xiasN-1" vertex="1">
          <mxGeometry x="390" y="430.5" width="15" height="14" as="geometry" />
        </mxCell>
        <mxCell id="W60M6K48ntktgvEDYVN1-26" value="*" style="text;html=1;resizable=0;points=[];autosize=1;align=center;verticalAlign=top;spacingTop=-4;" parent="2Mm6Z0idtYBRWI6xiasN-1" vertex="1">
          <mxGeometry x="390" y="280" width="15" height="14" as="geometry" />
        </mxCell>
        <mxCell id="W60M6K48ntktgvEDYVN1-28" value="dataConsumer" style="text;html=1;resizable=0;points=[];autosize=1;align=center;verticalAlign=top;spacingTop=-4;" parent="2Mm6Z0idtYBRWI6xiasN-1" vertex="1">
          <mxGeometry x="340.5" y="460.5" width="90" height="20" as="geometry" />
        </mxCell>
        <mxCell id="kvA3uYM7NLorxWGpx69S-0" style="edgeStyle=orthogonalEdgeStyle;rounded=0;orthogonalLoop=1;jettySize=auto;html=1;exitX=0.25;exitY=1;exitDx=0;exitDy=0;entryX=0.75;entryY=1;entryDx=0;entryDy=0;endArrow=oval;endFill=1;strokeWidth=2;" parent="2Mm6Z0idtYBRWI6xiasN-1" source="W60M6K48ntktgvEDYVN1-8" target="W60M6K48ntktgvEDYVN1-8" edge="1">
          <mxGeometry relative="1" as="geometry" />
        </mxCell>
        <mxCell id="kvA3uYM7NLorxWGpx69S-1" style="edgeStyle=orthogonalEdgeStyle;rounded=0;html=1;exitX=0.5;exitY=0;endArrow=none;endFill=0;jettySize=auto;orthogonalLoop=1;dashed=1;exitDx=0;exitDy=0;" parent="2Mm6Z0idtYBRWI6xiasN-1" source="kvA3uYM7NLorxWGpx69S-2" edge="1">
          <mxGeometry relative="1" as="geometry">
            <mxPoint x="550" y="500" as="targetPoint" />
          </mxGeometry>
        </mxCell>
        <mxCell id="kvA3uYM7NLorxWGpx69S-2" value="«relationship»&lt;br&gt;&lt;b&gt;ControlFlow&lt;/b&gt;" style="html=1;strokeColor=#666666;align=center;fillColor=#f5f5f5;gradientColor=#b3b3b3;" parent="2Mm6Z0idtYBRWI6xiasN-1" vertex="1">
          <mxGeometry x="447" y="577.5" width="206" height="50" as="geometry" />
        </mxCell>
        <mxCell id="kvA3uYM7NLorxWGpx69S-3" value="iscQualifiedName : string&lt;div&gt;label : string&lt;br&gt;description : string&lt;br&gt;guard : string&lt;/div&gt;" style="rounded=0;whiteSpace=wrap;html=1;strokeColor=#000000;gradientColor=#ffffff;align=left;" parent="2Mm6Z0idtYBRWI6xiasN-1" vertex="1">
          <mxGeometry x="447.5" y="627.5" width="206" height="92.5" as="geometry" />
        </mxCell>
        <mxCell id="kvA3uYM7NLorxWGpx69S-4" value="*" style="text;html=1;resizable=0;points=[];autosize=1;align=center;verticalAlign=top;spacingTop=-4;" parent="2Mm6Z0idtYBRWI6xiasN-1" vertex="1">
          <mxGeometry x="477" y="487" width="15" height="14" as="geometry" />
        </mxCell>
        <mxCell id="kvA3uYM7NLorxWGpx69S-5" value="*" style="text;html=1;resizable=0;points=[];autosize=1;align=center;verticalAlign=top;spacingTop=-4;" parent="2Mm6Z0idtYBRWI6xiasN-1" vertex="1">
          <mxGeometry x="600" y="486" width="15" height="14" as="geometry" />
        </mxCell>
        <mxCell id="kvA3uYM7NLorxWGpx69S-6" value="currentStep" style="text;html=1;align=center;verticalAlign=middle;resizable=0;points=[];autosize=1;" parent="2Mm6Z0idtYBRWI6xiasN-1" vertex="1">
          <mxGeometry x="460" y="505" width="80" height="20" as="geometry" />
        </mxCell>
        <mxCell id="kvA3uYM7NLorxWGpx69S-7" value="nextStep" style="text;html=1;align=center;verticalAlign=middle;resizable=0;points=[];autosize=1;" parent="2Mm6Z0idtYBRWI6xiasN-1" vertex="1">
          <mxGeometry x="560" y="505" width="60" height="20" as="geometry" />
        </mxCell>
        <mxCell id="ZYATflbPFkWKJpmk4ABa-10" style="edgeStyle=orthogonalEdgeStyle;rounded=0;orthogonalLoop=1;jettySize=auto;html=1;entryX=0;entryY=0.5;entryDx=0;entryDy=0;endArrow=oval;endFill=1;strokeWidth=2;" parent="2Mm6Z0idtYBRWI6xiasN-1" source="ZYATflbPFkWKJpmk4ABa-1" target="W60M6K48ntktgvEDYVN1-8" edge="1">
          <mxGeometry relative="1" as="geometry">
            <Array as="points">
              <mxPoint x="414" y="279" />
              <mxPoint x="414" y="456" />
            </Array>
          </mxGeometry>
        </mxCell>
        <mxCell id="ZYATflbPFkWKJpmk4ABa-11" style="edgeStyle=orthogonalEdgeStyle;rounded=0;orthogonalLoop=1;jettySize=auto;html=1;exitX=1;exitY=0.5;exitDx=0;exitDy=0;entryX=1;entryY=0.5;entryDx=0;entryDy=0;endArrow=oval;endFill=1;strokeWidth=2;" parent="2Mm6Z0idtYBRWI6xiasN-1" source="ZYATflbPFkWKJpmk4ABa-1" target="W60M6K48ntktgvEDYVN1-8" edge="1">
          <mxGeometry relative="1" as="geometry" />
        </mxCell>
        <mxCell id="ZYATflbPFkWKJpmk4ABa-1" value="«entity»&lt;br&gt;&lt;b&gt;Referenceable&lt;/b&gt;" style="html=1;strokeColor=#d6b656;align=center;fillColor=#fff2cc;gradientColor=#ffd966;" parent="2Mm6Z0idtYBRWI6xiasN-1" vertex="1">
          <mxGeometry x="430.5" y="253.5" width="240" height="50" as="geometry" />
        </mxCell>
        <mxCell id="ZYATflbPFkWKJpmk4ABa-2" style="edgeStyle=orthogonalEdgeStyle;rounded=0;html=1;exitX=0.5;exitY=1;dashed=1;endArrow=none;endFill=0;jettySize=auto;orthogonalLoop=1;exitDx=0;exitDy=0;" parent="2Mm6Z0idtYBRWI6xiasN-1" source="ZYATflbPFkWKJpmk4ABa-4" edge="1">
          <mxGeometry relative="1" as="geometry">
            <mxPoint x="695" y="380" as="targetPoint" />
            <Array as="points">
              <mxPoint x="861" y="380" />
              <mxPoint x="695" y="380" />
            </Array>
          </mxGeometry>
        </mxCell>
        <mxCell id="ZYATflbPFkWKJpmk4ABa-3" value="«relationship»&lt;br&gt;&lt;b&gt;ProcessCall&lt;/b&gt;" style="html=1;strokeColor=#666666;align=center;fillColor=#f5f5f5;gradientColor=#b3b3b3;" parent="2Mm6Z0idtYBRWI6xiasN-1" vertex="1">
          <mxGeometry x="757.5" y="184" width="206" height="50" as="geometry" />
        </mxCell>
        <mxCell id="ZYATflbPFkWKJpmk4ABa-4" value="iscQualifiedName : string&lt;div&gt;label : string&lt;br&gt;description : string&lt;br&gt;formula : string&lt;br&gt;formulaType : string&lt;br&gt;lineNumber : string&lt;/div&gt;" style="rounded=0;whiteSpace=wrap;html=1;strokeColor=#000000;gradientColor=#ffffff;align=left;" parent="2Mm6Z0idtYBRWI6xiasN-1" vertex="1">
          <mxGeometry x="758" y="234" width="206" height="116" as="geometry" />
        </mxCell>
        <mxCell id="ZYATflbPFkWKJpmk4ABa-6" value="caller" style="text;html=1;resizable=0;points=[];autosize=1;align=center;verticalAlign=top;spacingTop=-4;" parent="2Mm6Z0idtYBRWI6xiasN-1" vertex="1">
          <mxGeometry x="674" y="250" width="40" height="20" as="geometry" />
        </mxCell>
        <mxCell id="ZYATflbPFkWKJpmk4ABa-7" value="*" style="text;html=1;resizable=0;points=[];autosize=1;align=center;verticalAlign=top;spacingTop=-4;" parent="2Mm6Z0idtYBRWI6xiasN-1" vertex="1">
          <mxGeometry x="710" y="435" width="15" height="14" as="geometry" />
        </mxCell>
        <mxCell id="ZYATflbPFkWKJpmk4ABa-8" value="*" style="text;html=1;resizable=0;points=[];autosize=1;align=center;verticalAlign=top;spacingTop=-4;" parent="2Mm6Z0idtYBRWI6xiasN-1" vertex="1">
          <mxGeometry x="699" y="271.5" width="15" height="14" as="geometry" />
        </mxCell>
        <mxCell id="ZYATflbPFkWKJpmk4ABa-9" value="called" style="text;html=1;resizable=0;points=[];autosize=1;align=center;verticalAlign=top;spacingTop=-4;" parent="2Mm6Z0idtYBRWI6xiasN-1" vertex="1">
          <mxGeometry x="681.5" y="466" width="50" height="20" as="geometry" />
        </mxCell>
      </root>
    </mxGraphModel>
  </diagram>
  <diagram name="0755-Ultimate-Source-Destination" id="Nt4w-Y3jxULpvn3Qhv32">
    <mxGraphModel dx="1242" dy="806" grid="1" gridSize="10" guides="1" tooltips="1" connect="1" arrows="1" fold="1" page="1" pageScale="1" pageWidth="827" pageHeight="1169" math="0" shadow="0">
      <root>
        <mxCell id="G8yyt1Mi78ezNpBDfPQS-0" />
        <mxCell id="G8yyt1Mi78ezNpBDfPQS-1" parent="G8yyt1Mi78ezNpBDfPQS-0" />
        <mxCell id="G8yyt1Mi78ezNpBDfPQS-2" value="" style="rounded=0;whiteSpace=wrap;html=1;align=left;fillColor=#f5f5f5;strokeColor=#666666;gradientColor=#b3b3b3;" parent="G8yyt1Mi78ezNpBDfPQS-1" vertex="1">
          <mxGeometry x="13" y="37" width="60" height="20" as="geometry" />
        </mxCell>
        <mxCell id="G8yyt1Mi78ezNpBDfPQS-3" value="0755 - Ultimate Source and Destination" style="rounded=0;whiteSpace=wrap;html=1;align=left;verticalAlign=top;" parent="G8yyt1Mi78ezNpBDfPQS-1" vertex="1">
          <mxGeometry x="13" y="57" width="1060" height="770" as="geometry" />
        </mxCell>
        <mxCell id="G8yyt1Mi78ezNpBDfPQS-4" style="edgeStyle=orthogonalEdgeStyle;rounded=0;html=1;dashed=1;endArrow=none;endFill=0;jettySize=auto;orthogonalLoop=1;exitX=0.5;exitY=0;exitDx=0;exitDy=0;" parent="G8yyt1Mi78ezNpBDfPQS-1" source="G8yyt1Mi78ezNpBDfPQS-5" edge="1">
          <mxGeometry relative="1" as="geometry">
            <mxPoint x="412" y="330" as="targetPoint" />
            <Array as="points">
              <mxPoint x="328" y="330" />
            </Array>
          </mxGeometry>
        </mxCell>
        <mxCell id="G8yyt1Mi78ezNpBDfPQS-5" value="«relationship»&lt;br&gt;&lt;b&gt;UltimateSource&lt;/b&gt;" style="html=1;strokeColor=#666666;align=center;fillColor=#f5f5f5;gradientColor=#b3b3b3;" parent="G8yyt1Mi78ezNpBDfPQS-1" vertex="1">
          <mxGeometry x="224.5" y="450" width="206" height="50" as="geometry" />
        </mxCell>
        <mxCell id="G8yyt1Mi78ezNpBDfPQS-6" value="iscQualifiedName : string&lt;div&gt;label : string&lt;br&gt;hops : map&amp;lt;string, int&amp;gt;&lt;/div&gt;" style="rounded=0;whiteSpace=wrap;html=1;strokeColor=#000000;gradientColor=#ffffff;align=left;" parent="G8yyt1Mi78ezNpBDfPQS-1" vertex="1">
          <mxGeometry x="224.5" y="500" width="206" height="70" as="geometry" />
        </mxCell>
        <mxCell id="G8yyt1Mi78ezNpBDfPQS-8" value="downstreamFromLineageSource" style="text;html=1;resizable=0;points=[];autosize=1;align=center;verticalAlign=top;spacingTop=-4;" parent="G8yyt1Mi78ezNpBDfPQS-1" vertex="1">
          <mxGeometry x="297.5" y="230" width="200" height="20" as="geometry" />
        </mxCell>
        <mxCell id="G8yyt1Mi78ezNpBDfPQS-9" value="*" style="text;html=1;resizable=0;points=[];autosize=1;align=center;verticalAlign=top;spacingTop=-4;" parent="G8yyt1Mi78ezNpBDfPQS-1" vertex="1">
          <mxGeometry x="460" y="310" width="15" height="14" as="geometry" />
        </mxCell>
        <mxCell id="G8yyt1Mi78ezNpBDfPQS-10" value="*" style="text;html=1;resizable=0;points=[];autosize=1;align=center;verticalAlign=top;spacingTop=-4;" parent="G8yyt1Mi78ezNpBDfPQS-1" vertex="1">
          <mxGeometry x="390" y="280" width="15" height="14" as="geometry" />
        </mxCell>
        <mxCell id="G8yyt1Mi78ezNpBDfPQS-11" value="ultimateSources" style="text;html=1;resizable=0;points=[];autosize=1;align=center;verticalAlign=top;spacingTop=-4;" parent="G8yyt1Mi78ezNpBDfPQS-1" vertex="1">
          <mxGeometry x="390" y="380" width="110" height="20" as="geometry" />
        </mxCell>
        <mxCell id="G8yyt1Mi78ezNpBDfPQS-22" value="«entity»&lt;br&gt;&lt;b&gt;Referenceable&lt;/b&gt;" style="html=1;strokeColor=#d6b656;align=center;fillColor=#fff2cc;gradientColor=#ffd966;" parent="G8yyt1Mi78ezNpBDfPQS-1" vertex="1">
          <mxGeometry x="430.5" y="253.5" width="240" height="50" as="geometry" />
        </mxCell>
        <mxCell id="G8yyt1Mi78ezNpBDfPQS-23" style="edgeStyle=orthogonalEdgeStyle;rounded=0;html=1;exitX=0.5;exitY=0;dashed=1;endArrow=none;endFill=0;jettySize=auto;orthogonalLoop=1;exitDx=0;exitDy=0;" parent="G8yyt1Mi78ezNpBDfPQS-1" source="G8yyt1Mi78ezNpBDfPQS-24" edge="1">
          <mxGeometry relative="1" as="geometry">
            <mxPoint x="690" y="330" as="targetPoint" />
            <Array as="points">
              <mxPoint x="774" y="330" />
            </Array>
          </mxGeometry>
        </mxCell>
        <mxCell id="G8yyt1Mi78ezNpBDfPQS-24" value="«relationship»&lt;br&gt;&lt;b&gt;UltimateDestination&lt;/b&gt;" style="html=1;strokeColor=#666666;align=center;fillColor=#f5f5f5;gradientColor=#b3b3b3;" parent="G8yyt1Mi78ezNpBDfPQS-1" vertex="1">
          <mxGeometry x="670.5" y="450" width="206" height="50" as="geometry" />
        </mxCell>
        <mxCell id="G8yyt1Mi78ezNpBDfPQS-25" value="iscQualifiedName : string&lt;br&gt;label : string&lt;br&gt;hops : map&amp;lt;string, int&amp;gt;" style="rounded=0;whiteSpace=wrap;html=1;strokeColor=#000000;gradientColor=#ffffff;align=left;" parent="G8yyt1Mi78ezNpBDfPQS-1" vertex="1">
          <mxGeometry x="670.5" y="498" width="206" height="72" as="geometry" />
        </mxCell>
        <mxCell id="G8yyt1Mi78ezNpBDfPQS-26" value="upstreamFromLineageDestination" style="text;html=1;resizable=0;points=[];autosize=1;align=center;verticalAlign=top;spacingTop=-4;" parent="G8yyt1Mi78ezNpBDfPQS-1" vertex="1">
          <mxGeometry x="580" y="230" width="200" height="20" as="geometry" />
        </mxCell>
        <mxCell id="G8yyt1Mi78ezNpBDfPQS-27" value="*" style="text;html=1;resizable=0;points=[];autosize=1;align=center;verticalAlign=top;spacingTop=-4;" parent="G8yyt1Mi78ezNpBDfPQS-1" vertex="1">
          <mxGeometry x="620" y="310" width="15" height="14" as="geometry" />
        </mxCell>
        <mxCell id="G8yyt1Mi78ezNpBDfPQS-28" value="*" style="text;html=1;resizable=0;points=[];autosize=1;align=center;verticalAlign=top;spacingTop=-4;" parent="G8yyt1Mi78ezNpBDfPQS-1" vertex="1">
          <mxGeometry x="699" y="271.5" width="15" height="14" as="geometry" />
        </mxCell>
        <mxCell id="G8yyt1Mi78ezNpBDfPQS-21" style="edgeStyle=orthogonalEdgeStyle;rounded=0;orthogonalLoop=1;jettySize=auto;html=1;exitX=1;exitY=0.5;exitDx=0;exitDy=0;entryX=0.75;entryY=1;entryDx=0;entryDy=0;endArrow=oval;endFill=1;strokeWidth=2;" parent="G8yyt1Mi78ezNpBDfPQS-1" source="G8yyt1Mi78ezNpBDfPQS-22" target="G8yyt1Mi78ezNpBDfPQS-22" edge="1">
          <mxGeometry relative="1" as="geometry">
            <Array as="points">
              <mxPoint x="691" y="279" />
              <mxPoint x="691" y="370" />
              <mxPoint x="611" y="370" />
            </Array>
          </mxGeometry>
        </mxCell>
        <mxCell id="G8yyt1Mi78ezNpBDfPQS-20" style="edgeStyle=orthogonalEdgeStyle;rounded=0;orthogonalLoop=1;jettySize=auto;html=1;entryX=0.25;entryY=1;entryDx=0;entryDy=0;endArrow=oval;endFill=1;strokeWidth=2;" parent="G8yyt1Mi78ezNpBDfPQS-1" source="G8yyt1Mi78ezNpBDfPQS-22" target="G8yyt1Mi78ezNpBDfPQS-22" edge="1">
          <mxGeometry relative="1" as="geometry">
            <Array as="points">
              <mxPoint x="414" y="279" />
              <mxPoint x="414" y="370" />
              <mxPoint x="491" y="370" />
            </Array>
          </mxGeometry>
        </mxCell>
        <mxCell id="zGBI52lKwQ4ntyn_s1rR-0" value="ultimateDestinations" style="text;html=1;resizable=0;points=[];autosize=1;align=center;verticalAlign=top;spacingTop=-4;" parent="G8yyt1Mi78ezNpBDfPQS-1" vertex="1">
          <mxGeometry x="584" y="380" width="130" height="20" as="geometry" />
        </mxCell>
      </root>
    </mxGraphModel>
  </diagram>
  <diagram name="ultimate-source-destination-example" id="2PskZhjtityP2I3ai2lo">
    <mxGraphModel dx="1434" dy="775" grid="1" gridSize="10" guides="1" tooltips="1" connect="1" arrows="1" fold="1" page="1" pageScale="1" pageWidth="827" pageHeight="1169" math="0" shadow="0">
      <root>
        <mxCell id="TrY-7bwGIJBn0EGsY4in-0" />
        <mxCell id="TrY-7bwGIJBn0EGsY4in-1" parent="TrY-7bwGIJBn0EGsY4in-0" />
        <mxCell id="WNs-wf0_aHDfpFICewkb-5" style="edgeStyle=orthogonalEdgeStyle;rounded=0;orthogonalLoop=1;jettySize=auto;html=1;exitX=1;exitY=0.5;exitDx=0;exitDy=0;fillColor=#fff2cc;strokeColor=#d6b656;" edge="1" parent="TrY-7bwGIJBn0EGsY4in-1" source="kR247BJynTkRndDY24vT-0" target="WNs-wf0_aHDfpFICewkb-4">
          <mxGeometry relative="1" as="geometry" />
        </mxCell>
        <mxCell id="WNs-wf0_aHDfpFICewkb-8" style="edgeStyle=orthogonalEdgeStyle;rounded=0;orthogonalLoop=1;jettySize=auto;html=1;exitX=0.5;exitY=1;exitDx=0;exitDy=0;entryX=0.5;entryY=1;entryDx=0;entryDy=0;" edge="1" parent="TrY-7bwGIJBn0EGsY4in-1" source="kR247BJynTkRndDY24vT-0" target="WNs-wf0_aHDfpFICewkb-0">
          <mxGeometry relative="1" as="geometry" />
        </mxCell>
        <mxCell id="WNs-wf0_aHDfpFICewkb-11" style="edgeStyle=orthogonalEdgeStyle;rounded=0;orthogonalLoop=1;jettySize=auto;html=1;exitX=0.5;exitY=0;exitDx=0;exitDy=0;entryX=0.5;entryY=0;entryDx=0;entryDy=0;" edge="1" parent="TrY-7bwGIJBn0EGsY4in-1" source="kR247BJynTkRndDY24vT-0" target="DXKy-lhIOfyJi-UmO6wV-4">
          <mxGeometry relative="1" as="geometry">
            <Array as="points">
              <mxPoint x="430" y="130" />
              <mxPoint x="1100" y="130" />
            </Array>
          </mxGeometry>
        </mxCell>
        <mxCell id="kR247BJynTkRndDY24vT-0" value="Landing Area&lt;br&gt;DataFile" style="ellipse;whiteSpace=wrap;html=1;fillColor=#fff2cc;strokeColor=#d6b656;" vertex="1" parent="TrY-7bwGIJBn0EGsY4in-1">
          <mxGeometry x="370" y="180" width="120" height="80" as="geometry" />
        </mxCell>
        <mxCell id="WNs-wf0_aHDfpFICewkb-1" style="edgeStyle=orthogonalEdgeStyle;rounded=0;orthogonalLoop=1;jettySize=auto;html=1;entryX=0;entryY=0.5;entryDx=0;entryDy=0;fillColor=#fff2cc;strokeColor=#d6b656;" edge="1" parent="TrY-7bwGIJBn0EGsY4in-1" source="WNs-wf0_aHDfpFICewkb-0" target="WNs-wf0_aHDfpFICewkb-2">
          <mxGeometry relative="1" as="geometry" />
        </mxCell>
        <mxCell id="WNs-wf0_aHDfpFICewkb-13" style="edgeStyle=orthogonalEdgeStyle;rounded=0;orthogonalLoop=1;jettySize=auto;html=1;exitX=0.5;exitY=0;exitDx=0;exitDy=0;entryX=0.5;entryY=0;entryDx=0;entryDy=0;" edge="1" parent="TrY-7bwGIJBn0EGsY4in-1" source="WNs-wf0_aHDfpFICewkb-0" target="DXKy-lhIOfyJi-UmO6wV-4">
          <mxGeometry relative="1" as="geometry">
            <Array as="points">
              <mxPoint x="90" y="110" />
              <mxPoint x="1100" y="110" />
            </Array>
          </mxGeometry>
        </mxCell>
        <mxCell id="WNs-wf0_aHDfpFICewkb-0" value="Organization" style="ellipse;whiteSpace=wrap;html=1;fillColor=#fff2cc;strokeColor=#d6b656;" vertex="1" parent="TrY-7bwGIJBn0EGsY4in-1">
          <mxGeometry x="30" y="180" width="120" height="80" as="geometry" />
        </mxCell>
        <mxCell id="WNs-wf0_aHDfpFICewkb-3" style="edgeStyle=orthogonalEdgeStyle;rounded=0;orthogonalLoop=1;jettySize=auto;html=1;exitX=1;exitY=0.5;exitDx=0;exitDy=0;fillColor=#fff2cc;strokeColor=#d6b656;" edge="1" parent="TrY-7bwGIJBn0EGsY4in-1" source="WNs-wf0_aHDfpFICewkb-2" target="kR247BJynTkRndDY24vT-0">
          <mxGeometry relative="1" as="geometry" />
        </mxCell>
        <mxCell id="WNs-wf0_aHDfpFICewkb-2" value="FTP Process" style="rounded=1;whiteSpace=wrap;html=1;fillColor=#fff2cc;strokeColor=#d6b656;" vertex="1" parent="TrY-7bwGIJBn0EGsY4in-1">
          <mxGeometry x="200" y="190" width="120" height="60" as="geometry" />
        </mxCell>
        <mxCell id="WNs-wf0_aHDfpFICewkb-7" style="edgeStyle=orthogonalEdgeStyle;rounded=0;orthogonalLoop=1;jettySize=auto;html=1;exitX=1;exitY=0.5;exitDx=0;exitDy=0;fillColor=#fff2cc;strokeColor=#d6b656;" edge="1" parent="TrY-7bwGIJBn0EGsY4in-1" source="WNs-wf0_aHDfpFICewkb-4" target="WNs-wf0_aHDfpFICewkb-6">
          <mxGeometry relative="1" as="geometry" />
        </mxCell>
        <mxCell id="WNs-wf0_aHDfpFICewkb-4" value="Provisioning&lt;br&gt;Process" style="rounded=1;whiteSpace=wrap;html=1;fillColor=#fff2cc;strokeColor=#d6b656;" vertex="1" parent="TrY-7bwGIJBn0EGsY4in-1">
          <mxGeometry x="530" y="190" width="120" height="60" as="geometry" />
        </mxCell>
        <mxCell id="WNs-wf0_aHDfpFICewkb-10" style="edgeStyle=orthogonalEdgeStyle;rounded=0;orthogonalLoop=1;jettySize=auto;html=1;exitX=0.5;exitY=1;exitDx=0;exitDy=0;entryX=0.5;entryY=1;entryDx=0;entryDy=0;" edge="1" parent="TrY-7bwGIJBn0EGsY4in-1" source="WNs-wf0_aHDfpFICewkb-6" target="WNs-wf0_aHDfpFICewkb-0">
          <mxGeometry relative="1" as="geometry">
            <Array as="points">
              <mxPoint x="750" y="310" />
              <mxPoint x="90" y="310" />
            </Array>
          </mxGeometry>
        </mxCell>
        <mxCell id="DXKy-lhIOfyJi-UmO6wV-2" style="edgeStyle=orthogonalEdgeStyle;rounded=0;orthogonalLoop=1;jettySize=auto;html=1;exitX=1;exitY=0.5;exitDx=0;exitDy=0;entryX=0;entryY=0.5;entryDx=0;entryDy=0;" edge="1" parent="TrY-7bwGIJBn0EGsY4in-1" source="WNs-wf0_aHDfpFICewkb-6" target="DXKy-lhIOfyJi-UmO6wV-0">
          <mxGeometry relative="1" as="geometry" />
        </mxCell>
        <mxCell id="_aJCXJxtPkMFLQebkrWZ-1" style="edgeStyle=orthogonalEdgeStyle;rounded=0;orthogonalLoop=1;jettySize=auto;html=1;exitX=0.5;exitY=0;exitDx=0;exitDy=0;entryX=0.5;entryY=0;entryDx=0;entryDy=0;" edge="1" parent="TrY-7bwGIJBn0EGsY4in-1" source="WNs-wf0_aHDfpFICewkb-6" target="DXKy-lhIOfyJi-UmO6wV-4">
          <mxGeometry relative="1" as="geometry">
            <Array as="points">
              <mxPoint x="750" y="150" />
              <mxPoint x="1100" y="150" />
            </Array>
          </mxGeometry>
        </mxCell>
        <mxCell id="WNs-wf0_aHDfpFICewkb-6" value="Data Lake&lt;br&gt;DataFile" style="ellipse;whiteSpace=wrap;html=1;fillColor=#fff2cc;strokeColor=#d6b656;" vertex="1" parent="TrY-7bwGIJBn0EGsY4in-1">
          <mxGeometry x="690" y="180" width="120" height="80" as="geometry" />
        </mxCell>
        <mxCell id="WNs-wf0_aHDfpFICewkb-9" value="Ultimate Source" style="text;html=1;align=center;verticalAlign=middle;resizable=0;points=[];autosize=1;strokeColor=none;fillColor=none;" vertex="1" parent="TrY-7bwGIJBn0EGsY4in-1">
          <mxGeometry x="90" y="340" width="110" height="30" as="geometry" />
        </mxCell>
        <mxCell id="WNs-wf0_aHDfpFICewkb-14" value="Ultimate Destination" style="text;html=1;align=center;verticalAlign=middle;resizable=0;points=[];autosize=1;strokeColor=none;fillColor=none;" vertex="1" parent="TrY-7bwGIJBn0EGsY4in-1">
          <mxGeometry x="900" y="80" width="130" height="30" as="geometry" />
        </mxCell>
        <mxCell id="DXKy-lhIOfyJi-UmO6wV-3" style="edgeStyle=orthogonalEdgeStyle;rounded=0;orthogonalLoop=1;jettySize=auto;html=1;exitX=1;exitY=0.5;exitDx=0;exitDy=0;entryX=0;entryY=0.5;entryDx=0;entryDy=0;" edge="1" parent="TrY-7bwGIJBn0EGsY4in-1" source="DXKy-lhIOfyJi-UmO6wV-0">
          <mxGeometry relative="1" as="geometry">
            <mxPoint x="1040" y="220" as="targetPoint" />
          </mxGeometry>
        </mxCell>
        <mxCell id="DXKy-lhIOfyJi-UmO6wV-0" value="Calculate&lt;br&gt;Scores" style="rounded=1;whiteSpace=wrap;html=1;fillColor=#fff2cc;strokeColor=#d6b656;" vertex="1" parent="TrY-7bwGIJBn0EGsY4in-1">
          <mxGeometry x="870" y="190" width="120" height="60" as="geometry" />
        </mxCell>
        <mxCell id="_aJCXJxtPkMFLQebkrWZ-0" style="edgeStyle=orthogonalEdgeStyle;rounded=0;orthogonalLoop=1;jettySize=auto;html=1;exitX=0.5;exitY=1;exitDx=0;exitDy=0;entryX=0.5;entryY=1;entryDx=0;entryDy=0;" edge="1" parent="TrY-7bwGIJBn0EGsY4in-1" source="DXKy-lhIOfyJi-UmO6wV-4" target="WNs-wf0_aHDfpFICewkb-0">
          <mxGeometry relative="1" as="geometry">
            <Array as="points">
              <mxPoint x="1100" y="340" />
              <mxPoint x="90" y="340" />
            </Array>
          </mxGeometry>
        </mxCell>
        <mxCell id="DXKy-lhIOfyJi-UmO6wV-4" value="Report&lt;br&gt;Table" style="ellipse;whiteSpace=wrap;html=1;fillColor=#fff2cc;strokeColor=#d6b656;" vertex="1" parent="TrY-7bwGIJBn0EGsY4in-1">
          <mxGeometry x="1040" y="180" width="120" height="80" as="geometry" />
        </mxCell>
      </root>
    </mxGraphModel>
  </diagram>
  <diagram id="zxtc_kXrqRpk9AghNf_3" name="0760-Business-Lineage">
    <mxGraphModel dx="1661" dy="1149" grid="1" gridSize="10" guides="1" tooltips="1" connect="1" arrows="1" fold="1" page="1" pageScale="1" pageWidth="827" pageHeight="1169" math="0" shadow="0">
      <root>
        <mxCell id="MfY8N49mbYdjZyhGcPgx-0" />
        <mxCell id="MfY8N49mbYdjZyhGcPgx-1" parent="MfY8N49mbYdjZyhGcPgx-0" />
        <mxCell id="Bs9W1tKTJKyw3gTSrdgJ-0" value="" style="rounded=0;whiteSpace=wrap;html=1;align=left;fillColor=#f5f5f5;strokeColor=#666666;gradientColor=#b3b3b3;" parent="MfY8N49mbYdjZyhGcPgx-1" vertex="1">
          <mxGeometry x="13" y="37" width="60" height="20" as="geometry" />
        </mxCell>
        <mxCell id="Bs9W1tKTJKyw3gTSrdgJ-1" value="0760 - Business Lineage" style="rounded=0;whiteSpace=wrap;html=1;align=left;verticalAlign=top;" parent="MfY8N49mbYdjZyhGcPgx-1" vertex="1">
          <mxGeometry x="13" y="57" width="1060" height="770" as="geometry" />
        </mxCell>
        <mxCell id="Bs9W1tKTJKyw3gTSrdgJ-2" value="«entity»&lt;br&gt;&lt;b&gt;Referenceable&lt;/b&gt;" style="html=1;strokeColor=#d6b656;align=center;fillColor=#fff2cc;gradientColor=#ffd966;" parent="MfY8N49mbYdjZyhGcPgx-1" vertex="1">
          <mxGeometry x="404" y="360" width="240" height="50" as="geometry" />
        </mxCell>
        <mxCell id="Bs9W1tKTJKyw3gTSrdgJ-25" style="edgeStyle=orthogonalEdgeStyle;rounded=0;html=1;exitX=0.5;exitY=1;endArrow=none;endFill=0;jettySize=auto;orthogonalLoop=1;exitDx=0;exitDy=0;" parent="MfY8N49mbYdjZyhGcPgx-1" source="Bs9W1tKTJKyw3gTSrdgJ-27" target="Bs9W1tKTJKyw3gTSrdgJ-2" edge="1">
          <mxGeometry relative="1" as="geometry">
            <mxPoint x="524" y="340" as="targetPoint" />
          </mxGeometry>
        </mxCell>
        <mxCell id="Bs9W1tKTJKyw3gTSrdgJ-26" value="«classification»&lt;br&gt;&lt;b&gt;BusinessSignificant&lt;/b&gt;" style="html=1;strokeColor=#666666;align=center;fillColor=#f5f5f5;gradientColor=#b3b3b3;" parent="MfY8N49mbYdjZyhGcPgx-1" vertex="1">
          <mxGeometry x="420.5" y="160" width="206" height="50" as="geometry" />
        </mxCell>
        <mxCell id="Bs9W1tKTJKyw3gTSrdgJ-27" value="description : string&lt;br&gt;scope : string&lt;br&gt;businessCapability : string" style="rounded=0;whiteSpace=wrap;html=1;strokeColor=#000000;gradientColor=#ffffff;align=left;" parent="MfY8N49mbYdjZyhGcPgx-1" vertex="1">
          <mxGeometry x="420.5" y="210" width="206" height="70" as="geometry" />
        </mxCell>
      </root>
    </mxGraphModel>
  </diagram>
  <diagram id="RcwXwBLVXdO_078VMeXp" name="0770-Lineage-Mapping">
    <mxGraphModel dx="1812" dy="1056" grid="1" gridSize="10" guides="1" tooltips="1" connect="1" arrows="1" fold="1" page="1" pageScale="1" pageWidth="827" pageHeight="1169" math="0" shadow="0">
      <root>
        <mxCell id="PAQjJ71nFd_H5R9HCt1y-0" />
        <mxCell id="PAQjJ71nFd_H5R9HCt1y-1" parent="PAQjJ71nFd_H5R9HCt1y-0" />
        <mxCell id="PAQjJ71nFd_H5R9HCt1y-2" value="" style="rounded=0;whiteSpace=wrap;html=1;align=left;fillColor=#f5f5f5;strokeColor=#666666;gradientColor=#b3b3b3;" parent="PAQjJ71nFd_H5R9HCt1y-1" vertex="1">
          <mxGeometry x="13" y="37" width="60" height="20" as="geometry" />
        </mxCell>
        <mxCell id="PAQjJ71nFd_H5R9HCt1y-3" value="0770 - Lineage Mapping" style="rounded=0;whiteSpace=wrap;html=1;align=left;verticalAlign=top;" parent="PAQjJ71nFd_H5R9HCt1y-1" vertex="1">
          <mxGeometry x="13" y="57" width="1060" height="770" as="geometry" />
        </mxCell>
        <mxCell id="PAQjJ71nFd_H5R9HCt1y-18" value="«entity»&lt;br&gt;&lt;b&gt;Referenceable&lt;/b&gt;" style="html=1;strokeColor=#d6b656;align=center;fillColor=#fff2cc;gradientColor=#ffd966;" parent="PAQjJ71nFd_H5R9HCt1y-1" vertex="1">
          <mxGeometry x="490" y="160" width="230" height="50" as="geometry" />
        </mxCell>
        <mxCell id="PAQjJ71nFd_H5R9HCt1y-20" value="&lt;div style=&quot;text-align: left&quot;&gt;iscQualifiedName : string&lt;/div&gt;&lt;div style=&quot;text-align: left&quot;&gt;label : string&lt;br&gt;description : string&lt;br&gt;&lt;/div&gt;" style="rounded=0;whiteSpace=wrap;html=1;strokeColor=#000000;gradientColor=#ffffff;align=left;" parent="PAQjJ71nFd_H5R9HCt1y-1" vertex="1">
          <mxGeometry x="170" y="250" width="213" height="70" as="geometry" />
        </mxCell>
        <mxCell id="PAQjJ71nFd_H5R9HCt1y-21" value="«relationship»&lt;br&gt;&lt;b&gt;LineageMapping&lt;/b&gt;" style="html=1;strokeColor=#666666;align=center;fillColor=#f5f5f5;gradientColor=#b3b3b3;" parent="PAQjJ71nFd_H5R9HCt1y-1" vertex="1">
          <mxGeometry x="170" y="200" width="214" height="50" as="geometry" />
        </mxCell>
        <mxCell id="PAQjJ71nFd_H5R9HCt1y-22" value="" style="endArrow=none;dashed=1;html=1;exitX=1;exitY=0.5;exitDx=0;exitDy=0;" parent="PAQjJ71nFd_H5R9HCt1y-1" source="PAQjJ71nFd_H5R9HCt1y-21" edge="1">
          <mxGeometry width="50" height="50" relative="1" as="geometry">
            <mxPoint x="410" y="225" as="sourcePoint" />
            <mxPoint x="470" y="225" as="targetPoint" />
          </mxGeometry>
        </mxCell>
        <mxCell id="PAQjJ71nFd_H5R9HCt1y-32" style="edgeStyle=orthogonalEdgeStyle;rounded=0;orthogonalLoop=1;jettySize=auto;html=1;exitX=0;exitY=0.5;exitDx=0;exitDy=0;endArrow=oval;endFill=1;strokeWidth=2;" parent="PAQjJ71nFd_H5R9HCt1y-1" source="PAQjJ71nFd_H5R9HCt1y-18" target="PAQjJ71nFd_H5R9HCt1y-18" edge="1">
          <mxGeometry relative="1" as="geometry">
            <Array as="points">
              <mxPoint x="470" y="185" />
              <mxPoint x="470" y="270" />
              <mxPoint x="605" y="270" />
            </Array>
          </mxGeometry>
        </mxCell>
        <mxCell id="PAQjJ71nFd_H5R9HCt1y-33" value="targetElements&lt;br style=&quot;font-size: 12px;&quot;&gt;*" style="resizable=0;html=1;align=left;verticalAlign=bottom;labelBackgroundColor=#ffffff;fontSize=12;" parent="PAQjJ71nFd_H5R9HCt1y-1" connectable="0" vertex="1">
          <mxGeometry x="605" y="210" as="geometry">
            <mxPoint x="10" y="35" as="offset" />
          </mxGeometry>
        </mxCell>
        <mxCell id="PAQjJ71nFd_H5R9HCt1y-34" value="sourceElements&lt;br style=&quot;font-size: 12px;&quot;&gt;*" style="resizable=0;html=1;align=right;verticalAlign=bottom;labelBackgroundColor=#ffffff;fontSize=12;" parent="PAQjJ71nFd_H5R9HCt1y-1" connectable="0" vertex="1">
          <mxGeometry x="490" y="185" as="geometry">
            <mxPoint x="-10" as="offset" />
          </mxGeometry>
        </mxCell>
        <mxCell id="6dIQfDZ042DH6V1hUI4r-0" value="«entity»&lt;br&gt;&lt;b&gt;Referenceable&lt;/b&gt;" style="html=1;strokeColor=#d6b656;align=center;fillColor=#fff2cc;gradientColor=#ffd966;" parent="PAQjJ71nFd_H5R9HCt1y-1" vertex="1">
          <mxGeometry x="490" y="420" width="230" height="50" as="geometry" />
        </mxCell>
        <mxCell id="6dIQfDZ042DH6V1hUI4r-1" value="&lt;div style=&quot;text-align: left&quot;&gt;&lt;span style=&quot;background-color: transparent; color: light-dark(rgb(0, 0, 0), rgb(255, 255, 255));&quot;&gt;label : string&lt;/span&gt;&lt;br&gt;&lt;/div&gt;&lt;div style=&quot;text-align: left&quot;&gt;description : string&lt;br&gt;&lt;/div&gt;&lt;div style=&quot;text-align: left&quot;&gt;formula : string&lt;/div&gt;&lt;div style=&quot;text-align: left&quot;&gt;formulaType : string&lt;/div&gt;&lt;div style=&quot;text-align: left&quot;&gt;queryId : string&lt;/div&gt;&lt;div style=&quot;text-align: left&quot;&gt;query : string&lt;/div&gt;&lt;div style=&quot;text-align: left&quot;&gt;queryType : string&lt;/div&gt;&lt;div style=&quot;text-align: left&quot;&gt;&lt;div&gt;iscQualifiedName : string&lt;/div&gt;&lt;/div&gt;" style="rounded=0;whiteSpace=wrap;html=1;strokeColor=#000000;gradientColor=#ffffff;align=left;" parent="PAQjJ71nFd_H5R9HCt1y-1" vertex="1">
          <mxGeometry x="170" y="510" width="213" height="140" as="geometry" />
        </mxCell>
        <mxCell id="6dIQfDZ042DH6V1hUI4r-2" value="«relationship»&lt;br&gt;&lt;b&gt;DataMapping&lt;/b&gt;" style="html=1;strokeColor=#666666;align=center;fillColor=#f5f5f5;gradientColor=#b3b3b3;" parent="PAQjJ71nFd_H5R9HCt1y-1" vertex="1">
          <mxGeometry x="170" y="460" width="214" height="50" as="geometry" />
        </mxCell>
        <mxCell id="6dIQfDZ042DH6V1hUI4r-3" value="" style="endArrow=none;dashed=1;html=1;exitX=1;exitY=0.5;exitDx=0;exitDy=0;" parent="PAQjJ71nFd_H5R9HCt1y-1" source="6dIQfDZ042DH6V1hUI4r-2" edge="1">
          <mxGeometry width="50" height="50" relative="1" as="geometry">
            <mxPoint x="410" y="485" as="sourcePoint" />
            <mxPoint x="470" y="485" as="targetPoint" />
          </mxGeometry>
        </mxCell>
        <mxCell id="6dIQfDZ042DH6V1hUI4r-4" style="edgeStyle=orthogonalEdgeStyle;rounded=0;orthogonalLoop=1;jettySize=auto;html=1;exitX=0;exitY=0.5;exitDx=0;exitDy=0;endArrow=oval;endFill=1;strokeWidth=2;" parent="PAQjJ71nFd_H5R9HCt1y-1" source="6dIQfDZ042DH6V1hUI4r-0" target="6dIQfDZ042DH6V1hUI4r-0" edge="1">
          <mxGeometry relative="1" as="geometry">
            <Array as="points">
              <mxPoint x="470" y="445" />
              <mxPoint x="470" y="530" />
              <mxPoint x="605" y="530" />
            </Array>
          </mxGeometry>
        </mxCell>
        <mxCell id="6dIQfDZ042DH6V1hUI4r-5" value="targetAttributes&lt;br style=&quot;font-size: 12px;&quot;&gt;*" style="resizable=0;html=1;align=left;verticalAlign=bottom;labelBackgroundColor=#ffffff;fontSize=12;" parent="PAQjJ71nFd_H5R9HCt1y-1" connectable="0" vertex="1">
          <mxGeometry x="605" y="470" as="geometry">
            <mxPoint x="10" y="35" as="offset" />
          </mxGeometry>
        </mxCell>
        <mxCell id="6dIQfDZ042DH6V1hUI4r-6" value="sourceAttributes&lt;br style=&quot;font-size: 12px;&quot;&gt;*" style="resizable=0;html=1;align=right;verticalAlign=bottom;labelBackgroundColor=#ffffff;fontSize=12;" parent="PAQjJ71nFd_H5R9HCt1y-1" connectable="0" vertex="1">
          <mxGeometry x="490" y="445" as="geometry">
            <mxPoint x="-10" as="offset" />
          </mxGeometry>
        </mxCell>
      </root>
    </mxGraphModel>
  </diagram>
  <diagram id="1heTYpc5zRvK1-4A-ymS" name="0780-Code-Analysis">
    <mxGraphModel dx="2173" dy="861" grid="1" gridSize="10" guides="1" tooltips="1" connect="1" arrows="1" fold="1" page="1" pageScale="1" pageWidth="827" pageHeight="1169" math="0" shadow="0">
      <root>
        <mxCell id="kJ_jG_LcmkP7lPx9VDzN-0" />
        <mxCell id="kJ_jG_LcmkP7lPx9VDzN-1" parent="kJ_jG_LcmkP7lPx9VDzN-0" />
        <mxCell id="kJ_jG_LcmkP7lPx9VDzN-2" value="" style="rounded=0;whiteSpace=wrap;html=1;align=left;fillColor=#f5f5f5;strokeColor=#666666;gradientColor=#b3b3b3;" parent="kJ_jG_LcmkP7lPx9VDzN-1" vertex="1">
          <mxGeometry x="-170" width="60" height="20" as="geometry" />
        </mxCell>
        <mxCell id="kJ_jG_LcmkP7lPx9VDzN-3" value="0780 - Code Analysis" style="rounded=0;whiteSpace=wrap;html=1;align=left;verticalAlign=top;" parent="kJ_jG_LcmkP7lPx9VDzN-1" vertex="1">
          <mxGeometry x="-170" y="20" width="1060" height="770" as="geometry" />
        </mxCell>
        <mxCell id="kJ_jG_LcmkP7lPx9VDzN-4" value="«entity»&lt;br&gt;&lt;b&gt;Referenceable&lt;/b&gt;" style="html=1;strokeColor=#d6b656;align=center;fillColor=#fff2cc;gradientColor=#ffd966;" parent="kJ_jG_LcmkP7lPx9VDzN-1" vertex="1">
          <mxGeometry x="490" y="170" width="160" height="50" as="geometry" />
        </mxCell>
        <mxCell id="kJ_jG_LcmkP7lPx9VDzN-6" style="edgeStyle=orthogonalEdgeStyle;rounded=0;html=1;exitX=1;exitY=0.5;endArrow=none;endFill=0;jettySize=auto;orthogonalLoop=1;" parent="kJ_jG_LcmkP7lPx9VDzN-1" edge="1">
          <mxGeometry relative="1" as="geometry">
            <mxPoint x="490" y="195" as="targetPoint" />
            <mxPoint x="416" y="195" as="sourcePoint" />
          </mxGeometry>
        </mxCell>
        <mxCell id="kJ_jG_LcmkP7lPx9VDzN-16" value="firstRun : date&lt;br&gt;lastRun : date&lt;br&gt;analysisType : string&lt;br&gt;description : string&lt;br&gt;lineCount : long&lt;br&gt;lineCountWithoutComments : long&lt;br&gt;simpleConditionCount : long&lt;br&gt;complexConditionCount : long&lt;br&gt;setVariableCount : long&lt;br&gt;simpleCalculation : long&lt;br&gt;complexCalculation : long&lt;br&gt;dataReadCount : long&lt;br&gt;dataCreateCount : long&lt;br&gt;dataUpdateCount : long&lt;br&gt;dataDeleteCount : long&lt;br&gt;dataChecksCount : long&lt;br&gt;additionalProperties : map&amp;lt;string, string&amp;gt;" style="rounded=0;whiteSpace=wrap;html=1;strokeColor=#000000;gradientColor=#ffffff;align=left;" parent="kJ_jG_LcmkP7lPx9VDzN-1" vertex="1">
          <mxGeometry x="130" y="220" width="286.5" height="262.75" as="geometry" />
        </mxCell>
        <mxCell id="kJ_jG_LcmkP7lPx9VDzN-17" value="«classification»&lt;br&gt;&lt;b&gt;CodeAnalysis&lt;/b&gt;" style="html=1;strokeColor=#666666;align=center;fillColor=#f5f5f5;gradientColor=#b3b3b3;" parent="kJ_jG_LcmkP7lPx9VDzN-1" vertex="1">
          <mxGeometry x="130" y="170" width="286" height="50" as="geometry" />
        </mxCell>
      </root>
    </mxGraphModel>
  </diagram>
  <diagram id="3S0usdNazNUSUhkqzZvG" name="0790-Incomplete">
    <mxGraphModel dx="2411" dy="806" grid="1" gridSize="10" guides="1" tooltips="1" connect="1" arrows="1" fold="1" page="1" pageScale="1" pageWidth="1169" pageHeight="827" math="0" shadow="0">
      <root>
        <mxCell id="GMl6AKF_GNv5icvfV1Ee-0" />
        <mxCell id="GMl6AKF_GNv5icvfV1Ee-1" parent="GMl6AKF_GNv5icvfV1Ee-0" />
        <mxCell id="GMl6AKF_GNv5icvfV1Ee-2" value="" style="rounded=0;whiteSpace=wrap;html=1;align=left;fillColor=#f5f5f5;strokeColor=#666666;gradientColor=#b3b3b3;" parent="GMl6AKF_GNv5icvfV1Ee-1" vertex="1">
          <mxGeometry x="-170" width="60" height="20" as="geometry" />
        </mxCell>
        <mxCell id="GMl6AKF_GNv5icvfV1Ee-3" value="0790 - Incomplete" style="rounded=0;whiteSpace=wrap;html=1;align=left;verticalAlign=top;" parent="GMl6AKF_GNv5icvfV1Ee-1" vertex="1">
          <mxGeometry x="-170" y="20" width="1060" height="770" as="geometry" />
        </mxCell>
        <mxCell id="GMl6AKF_GNv5icvfV1Ee-4" value="«entity»&lt;br&gt;&lt;b&gt;Referenceable&lt;/b&gt;" style="html=1;strokeColor=#d6b656;align=center;fillColor=#fff2cc;gradientColor=#ffd966;" parent="GMl6AKF_GNv5icvfV1Ee-1" vertex="1">
          <mxGeometry x="490" y="170" width="160" height="50" as="geometry" />
        </mxCell>
        <mxCell id="GMl6AKF_GNv5icvfV1Ee-5" style="edgeStyle=orthogonalEdgeStyle;rounded=0;html=1;exitX=1;exitY=0.5;endArrow=none;endFill=0;jettySize=auto;orthogonalLoop=1;" parent="GMl6AKF_GNv5icvfV1Ee-1" edge="1">
          <mxGeometry relative="1" as="geometry">
            <mxPoint x="490" y="195" as="targetPoint" />
            <mxPoint x="416" y="195" as="sourcePoint" />
          </mxGeometry>
        </mxCell>
        <mxCell id="GMl6AKF_GNv5icvfV1Ee-6" value="" style="rounded=0;whiteSpace=wrap;html=1;strokeColor=#000000;gradientColor=#ffffff;align=left;" parent="GMl6AKF_GNv5icvfV1Ee-1" vertex="1">
          <mxGeometry x="130" y="220" width="286.5" height="20" as="geometry" />
        </mxCell>
        <mxCell id="GMl6AKF_GNv5icvfV1Ee-7" value="«classification»&lt;br&gt;&lt;b&gt;Incomplete&lt;/b&gt;" style="html=1;strokeColor=#666666;align=center;fillColor=#f5f5f5;gradientColor=#b3b3b3;" parent="GMl6AKF_GNv5icvfV1Ee-1" vertex="1">
          <mxGeometry x="130" y="170" width="286" height="50" as="geometry" />
        </mxCell>
      </root>
    </mxGraphModel>
  </diagram>
</mxfile>
